SplineFontDB: 3.2
FontName: Caudex-BoldItalic
FullName: Caudex BoldItalic
FamilyName: Caudex
Weight: Bold
Copyright: Copyright (c) The Caudex Project Authors https://github.com/nidud/caudex
Version: 2.0
ItalicAngle: -13
UnderlinePosition: -100
UnderlineWidth: 30
Ascent: 1638
Descent: 410
InvalidEm: 0
sfntRevision: 0x00020000
LayerCount: 2
Layer: 0 1 "Back" 1
Layer: 1 1 "Fore" 0
XUID: [1021 646 -1554209282 922]
StyleMap: 0x0021
FSType: 0
OS2Version: 0
OS2_WeightWidthSlopeOnly: 0
OS2_UseTypoMetrics: 0
CreationTime: 1305227018
ModificationTime: 1706840138
PfmFamily: 17
TTFWeight: 700
TTFWidth: 5
LineGap: 0
VLineGap: 0
Panose: 2 4 7 2 5 5 5 3 3 4
OS2TypoAscent: 2034
OS2TypoAOffset: 0
OS2TypoDescent: -606
OS2TypoDOffset: 0
OS2TypoLinegap: 0
OS2WinAscent: 2034
OS2WinAOffset: 0
OS2WinDescent: 606
OS2WinDOffset: 0
HheadAscent: 2034
HheadAOffset: 0
HheadDescent: -606
HheadDOffset: 0
OS2SubXSize: 1285
OS2SubYSize: 1230
OS2SubXOff: 0
OS2SubYOff: 0
OS2SupXSize: 655
OS2SupYSize: 860
OS2SupXOff: 0
OS2SupYOff: 550
OS2StrikeYSize: 100
OS2StrikeYPos: 530
OS2CapHeight: 1405
OS2XHeight: 931
OS2FamilyClass: 260
OS2Vendor: 'PfEd'
OS2CodePages: e000009f.dfd70000
OS2UnicodeRanges: e40002ff.5000f8fb.00008008.00000000
Lookup: 258 0 0 "'kern' Horizontal Kerning in Latin lookup 0" { "'kern' Horizontal Kerning in Latin lookup 0 subtable" [307,0,0] } ['kern' ('latn' <'dflt' > ) ]
DEI: 91125
KernClass2: 18 16 "'kern' Horizontal Kerning in Latin lookup 0 subtable"
 148 A Agrave Aacute Acircumflex Atilde Adieresis Aring Amacron Abreve Aogonek Aringacute uni1EA0 uni1EA2 uni1EA4 uni1EA6 uni1EA8 uni1EAA uni1EAC uni1EAE
 17 F uni03DC uni1E1E
 16 L Lacute uni1E36
 17 P uni1E54 uni1E56
 31 R Racute Rcaron uni1E58 uni1E5A
 24 T Tcaron uni1E6A uni1E6C
 63 V W Wcircumflex Wgrave Wacute Wdieresis uni1E7E uni1E86 uni1E88
 54 Y Ycircumflex Ydieresis uni0232 Ygrave uni1EF4 uni1EF6
 9 r uni1E5B
 108 v w y wcircumflex ycircumflex wgrave ygrave wacute wdieresis uni1D20 uni1D21 uni1E7F uni1E87 uni1E89 uni1E8F

StartChar: .notdef
Encoding: 65536 -1 0
Width: 772
GlyphClass: 1
Flags: W
LayerCount: 2
Fore
SplineSet
324 1404 m 1,0,-1
 1096 1404 l 1,1,-1
 772 0 l 1,2,-1
 0 0 l 1,3,-1
 324 1404 l 1,0,-1
328 244 m 2,5,-1
 312 175 l 2,6,7
 309 164 309 164 309 154 c 0,8,9
 309 102 309 102 388 102 c 0,10,11
 480 102 480 102 496 175 c 2,12,-1
 512 244 l 2,13,14
 515 255 515 255 515 265 c 0,15,16
 515 317 515 317 437 317 c 0,17,4
 345 317 345 317 328 244 c 2,5,-1
515 504 m 2,18,-1
 553 653 l 2,19,20
 568 713 568 713 592 744 c 0,21,22
 615 773 615 773 673 805 c 0,23,24
 697 819 697 819 715 829 c 0,25,26
 879 917 879 917 912 1059 c 0,27,28
 920 1094 920 1094 920 1124 c 0,29,30
 920 1192 920 1192 879 1237 c 0,31,32
 818 1302 818 1302 684 1302 c 0,33,34
 554 1302 554 1302 464 1235 c 0,35,36
 374 1169 374 1169 347 1054 c 0,37,38
 341 1028 341 1028 353 1016 c 0,39,40
 364 1005 364 1005 394 1005 c 0,41,42
 420 1005 420 1005 441 1016 c 0,43,44
 458 1026 458 1026 464 1046 c 0,45,46
 500 1162 500 1162 542 1204 c 0,47,48
 583 1248 583 1248 651 1248 c 0,49,50
 728 1248 728 1248 757 1201 c 0,51,52
 772 1175 772 1175 772 1135 c 0,53,54
 772 1102 772 1102 762 1059 c 0,55,56
 742 971 742 971 688 908 c 0,57,58
 631 844 631 844 509 771 c 1,59,-1
 448 505 l 2,60,61
 441 474 441 474 441 451 c 0,62,63
 441 443 441 443 442 436 c 0,64,65
 444 411 444 411 459 411 c 0,66,67
 476 411 476 411 490 433 c 256,68,69
 504 455 504 455 515 504 c 2,18,-1
EndSplineSet
Validated: 1
EndChar

StartChar: exclam
Encoding: 33 33 4
Width: 550
GlyphClass: 1
Flags: W
LayerCount: 2
Fore
SplineSet
315 250 m 128,-1,1
 385 250 385 250 410 217 c 0,2,3
 424 199 424 199 424 173 c 0,4,5
 424 159 424 159 420 143 c 2,6,-1
 401 61 l 2,7,8
 390 15 390 15 357 -12 c 0,9,10
 316 -45 316 -45 246.5 -45 c 128,-1,11
 177 -45 177 -45 151 -12 c 0,12,13
 137 6 137 6 137 32 c 0,14,15
 137 46 137 46 141 61 c 2,16,-1
 160 143 l 2,17,18
 171 190 171 190 204 217 c 0,19,0
 245 250 245 250 315 250 c 128,-1,1
439 1332 m 2,20,-1
 441 1341 l 2,21,22
 450 1379 450 1379 476 1400 c 0,23,24
 507 1425 507 1425 556 1425 c 2,25,-1
 622 1425 l 2,26,27
 672 1425 672 1425 690 1401 c 0,28,29
 706 1380 706 1380 699 1345 c 1,30,-1
 698 1343 l 1,31,-1
 696 1332 l 2,32,33
 696 1331 696 1331 406 385 c 0,34,35
 401 365 401 365 386.5 353 c 128,-1,36
 372 341 372 341 351 341 c 0,37,38
 350 341 350 341 349 341 c 2,39,-1
 328 341 l 2,40,41
 307 341 307 341 297.5 353 c 128,-1,42
 288 365 288 365 293 385 c 0,43,44
 439 1331 439 1331 439 1332 c 2,20,-1
EndSplineSet
Validated: 1
EndChar

StartChar: quotedbl
Encoding: 34 34 5
Width: 799
GlyphClass: 1
Flags: W
LayerCount: 2
Fore
SplineSet
510 1463 m 2,0,-1
 557 1463 l 2,1,2
 600 1463 600 1463 615 1445 c 0,3,4
 624 1433 624 1433 619 1414 c 2,5,-1
 618 1409 l 2,6,7
 618 1408 618 1408 465 968 c 0,8,9
 462 956 462 956 450 946 c 128,-1,10
 438 936 438 936 419 937 c 2,11,-1
 404 937 l 2,12,13
 386 937 386 937 378 946 c 128,-1,14
 370 955 370 955 373 968 c 0,15,16
 423 1408 423 1408 423 1409 c 2,17,-1
 424 1413 l 2,18,19
 428 1432 428 1432 445 1445 c 0,20,21
 467 1463 467 1463 510 1463 c 2,0,-1
884 1463 m 2,22,-1
 931 1463 l 2,23,24
 974 1463 974 1463 989 1445 c 0,25,26
 998 1433 998 1433 993 1414 c 2,27,-1
 992 1409 l 2,28,29
 992 1408 992 1408 839 968 c 0,30,31
 836 956 836 956 824 946 c 128,-1,32
 812 936 812 936 793 937 c 2,33,-1
 778 937 l 2,34,35
 760 937 760 937 752 946 c 128,-1,36
 744 955 744 955 747 968 c 0,37,38
 797 1408 797 1408 797 1409 c 2,39,-1
 798 1413 l 2,40,41
 802 1432 802 1432 819 1445 c 0,42,43
 841 1463 841 1463 884 1463 c 2,22,-1
EndSplineSet
Validated: 1
EndChar

StartChar: numbersign
Encoding: 35 35 6
Width: 1100
GlyphClass: 1
Flags: W
LayerCount: 2
Fore
SplineSet
814 742 m 1,0,-1
 668 742 l 1,1,-1
 573 507 l 1,2,-1
 719 507 l 1,3,-1
 814 742 l 1,0,-1
333 -20 m 2,4,-1
 248 -20 l 2,5,6
 237 -20 237 -20 232 -13 c 0,7,8
 225 -4 225 -4 228 11 c 0,9,10
 229 16 229 16 231 22 c 2,11,-1
 369 362 l 1,12,-1
 114 362 l 2,13,14
 98 362 98 362 90 370 c 0,15,16
 84 378 84 378 87 390 c 0,17,18
 88 393 88 393 88 395 c 0,19,20
 123 480 123 480 123 481 c 0,21,22
 127 491 127 491 136 497 c 0,23,24
 148 507 148 507 165 507 c 2,25,-1
 427 507 l 1,26,-1
 522 742 l 1,27,-1
 267 742 l 2,28,29
 251 742 251 742 244 750 c 0,30,31
 238 758 238 758 241 770 c 0,32,33
 242 773 242 773 242 775 c 0,34,35
 277 860 277 860 277 861 c 0,36,37
 281 871 281 871 289 877 c 0,38,39
 301 887 301 887 319 887 c 2,40,-1
 581 887 l 1,41,-1
 721 1233 l 2,42,43
 728 1249 728 1249 739 1258 c 128,-1,44
 750 1267 750 1267 762 1267 c 2,45,-1
 847 1267 l 2,46,47
 859 1267 859 1267 864 1260 c 0,48,49
 871 1251 871 1251 868 1237 c 0,50,51
 867 1232 867 1232 864 1227 c 0,52,53
 754 956 754 956 727 887 c 1,54,-1
 873 887 l 1,55,-1
 1013 1233 l 2,56,57
 1020 1249 1020 1249 1031 1258 c 128,-1,58
 1042 1267 1042 1267 1055 1267 c 2,59,-1
 1139 1267 l 2,60,61
 1151 1267 1151 1267 1157 1259 c 128,-1,62
 1163 1251 1163 1251 1161 1237 c 0,63,64
 1160 1232 1160 1232 1157 1227 c 0,65,66
 1047 956 1047 956 1020 887 c 1,67,-1
 1274 887 l 2,68,69
 1291 887 1291 887 1297 879 c 128,-1,70
 1303 871 1303 871 1301 860 c 0,71,72
 1300 857 1300 857 1299 853 c 2,73,-1
 1265 769 l 2,74,75
 1262 759 1262 759 1252 752 c 0,76,77
 1240 742 1240 742 1222 742 c 2,78,-1
 961 742 l 1,79,-1
 866 507 l 1,80,-1
 1120 507 l 2,81,82
 1137 507 1137 507 1143 499 c 128,-1,83
 1149 491 1149 491 1147 480 c 0,84,85
 1146 477 1146 477 1145 473 c 2,86,-1
 1111 389 l 2,87,88
 1108 379 1108 379 1098 372 c 0,89,90
 1086 362 1086 362 1069 362 c 2,91,-1
 808 362 l 1,92,-1
 668 16 l 2,93,94
 661 -1 661 -1 649 -11 c 0,95,96
 638 -20 638 -20 625 -20 c 2,97,-1
 541 -20 l 2,98,99
 529 -20 529 -20 524 -13 c 0,100,101
 516 -3 516 -3 520 12 c 0,102,103
 521 17 521 17 523 22 c 0,104,105
 591 192 591 192 661 362 c 1,106,-1
 515 362 l 1,107,-1
 375 16 l 2,108,109
 368 -2 368 -2 356.5 -11 c 128,-1,110
 345 -20 345 -20 333 -20 c 2,4,-1
EndSplineSet
Validated: 1
EndChar

StartChar: dollar
Encoding: 36 36 7
Width: 1100
GlyphClass: 1
Flags: W
LayerCount: 2
Fore
SplineSet
106 257 m 2,0,1
 105 266 105 266 108 278 c 128,-1,2
 111 290 111 290 126 306 c 0,3,4
 144 327 144 327 167 327 c 0,5,6
 179 327 179 327 188 316 c 0,7,8
 197 304 197 304 201 286 c 0,9,10
 231 153 231 153 304 114 c 0,11,12
 378 74 378 74 494 73 c 1,13,-1
 624 635 l 1,14,15
 615 636 615 636 605 637 c 0,16,17
 496 649 496 649 410 696 c 0,18,19
 320 744 320 744 300 809.5 c 128,-1,20
 280 875 280 875 280 925 c 0,21,22
 280 970 280 970 291 1018 c 0,23,24
 336 1215 336 1215 504 1342 c 0,25,26
 643 1448 643 1448 815 1466 c 1,27,-1
 837 1561 l 2,28,29
 839 1569 839 1569 845 1575 c 128,-1,30
 851 1581 851 1581 856 1581 c 2,31,-1
 952 1581 l 2,32,33
 957 1581 957 1581 959.5 1575 c 128,-1,34
 962 1569 962 1569 960 1561 c 2,35,-1
 939 1468 l 1,36,37
 1149 1454 1149 1454 1278 1355 c 0,38,39
 1286 1349 1286 1349 1283 1338 c 0,40,41
 1283 1337 1283 1337 1210 1126 c 0,42,43
 1204 1110 1204 1110 1192 1100 c 128,-1,44
 1180 1090 1180 1090 1163 1090 c 2,45,-1
 1159 1090 l 2,46,47
 1134 1090 1134 1090 1125 1130 c 0,48,49
 1105 1216 1105 1216 1041 1276 c 0,50,51
 984 1329 984 1329 909 1338 c 1,52,-1
 793 838 l 1,53,54
 826 833 826 833 866 826 c 0,55,56
 929 816 929 816 1004 792 c 0,57,58
 1085 764 1085 764 1118 714 c 128,-1,59
 1151 664 1151 664 1159.5 621.5 c 128,-1,60
 1168 579 1168 579 1168 551 c 0,61,62
 1168 509 1168 509 1157 459 c 0,63,64
 1104 230 1104 230 889 87 c 0,65,66
 779 14 779 14 671 -19 c 0,67,68
 627 -32 627 -32 591 -41 c 1,69,-1
 564 -156 l 2,70,71
 562 -164 562 -164 556.5 -170 c 128,-1,72
 551 -176 551 -176 546 -176 c 2,73,-1
 450 -176 l 2,74,75
 445 -176 445 -176 442 -170 c 128,-1,76
 439 -164 439 -164 441 -156 c 2,77,-1
 464 -58 l 1,78,79
 430 -60 430 -60 413 -59 c 0,80,81
 271 -59 271 -59 151 -19 c 0,82,83
 142 -16 142 -16 140 -7 c 2,84,-1
 106 257 l 2,0,1
784 1331 m 1,85,86
 752 1325 752 1325 725 1313 c 0,87,88
 661 1286 661 1286 631 1260 c 128,-1,89
 601 1234 601 1234 576 1198 c 0,90,91
 551 1164 551 1164 534 1128 c 0,92,93
 520 1096 520 1096 514 1069 c 0,94,95
 513 1066 513 1066 512 1062 c 0,96,97
 505 1031 505 1031 509 1001 c 1,98,-1
 509 1000 l 1,99,100
 514 940 514 940 548 910 c 128,-1,101
 582 880 582 880 613 872 c 0,102,103
 642 864 642 864 675 858 c 1,104,-1
 784 1331 l 1,85,86
619 83 m 1,105,106
 658 93 658 93 709 115 c 0,107,108
 787 150 787 150 844.5 219 c 128,-1,109
 902 288 902 288 927 388 c 1,110,-1
 929 399 l 2,111,112
 934 425 934 425 934 447 c 0,113,114
 934 515 934 515 887 556 c 0,115,116
 858 582 858 582 785 604 c 0,117,118
 764 610 764 610 742 615 c 1,119,-1
 619 83 l 1,105,106
EndSplineSet
Validated: 1
EndChar

StartChar: ampersand
Encoding: 38 38 9
Width: 1292
GlyphClass: 1
Flags: W
LayerCount: 2
Fore
SplineSet
365 316 m 0,0,1
 357 281 357 281 357 249 c 0,2,3
 357 196 357 196 380 154 c 0,4,5
 418 82 418 82 503 82 c 0,6,7
 578 82 578 82 645 122 c 0,8,9
 709 160 709 160 765 214 c 1,10,-1
 570 587 l 1,11,12
 412 482 412 482 371 336 c 0,13,14
 371 335 371 335 369 330.5 c 128,-1,15
 367 326 367 326 365 316 c 0,0,1
934 1066 m 2,16,17
 942 1100 942 1100 942 1128 c 0,18,19
 942 1153 942 1153 936 1174 c 0,20,21
 924 1216 924 1216 849 1216 c 0,22,23
 790 1216 790 1216 748 1178 c 0,24,25
 703 1135 703 1135 682 1061 c 1,26,27
 682 1061 682 1061 680 1055.5 c 128,-1,28
 678 1050 678 1050 676 1041 c 0,29,30
 667 1002 667 1002 667 963 c 0,31,32
 667 874 667 874 713 785 c 1,33,34
 799 833 799 833 849 892 c 0,35,36
 902 955 902 955 931 1052 c 1,37,-1
 934 1066 l 2,16,17
1409 690 m 2,38,-1
 1409 688 l 2,39,40
 1407 678 1407 678 1402 672 c 0,41,42
 1389 655 1389 655 1351 638 c 0,43,44
 1344 635 1344 635 1320 625 c 128,-1,45
 1296 615 1296 615 1278 605 c 0,46,47
 1196 559 1196 559 1130 485 c 128,-1,48
 1064 411 1064 411 971 304 c 1,49,50
 1050 168 1050 168 1053.5 161.5 c 128,-1,51
 1057 155 1057 155 1066 143 c 0,52,53
 1101 97 1101 97 1174 59 c 0,54,55
 1204 45 1204 45 1209 27 c 0,56,57
 1210 25 1210 25 1211 20 c 0,58,59
 1212 8 1212 8 1205 -2 c 0,60,61
 1201 -10 1201 -10 1191.5 -15 c 128,-1,62
 1182 -20 1182 -20 1167 -20 c 2,63,-1
 923 -20 l 2,64,65
 877 -20 877 -20 846 55 c 0,66,67
 829 94 829 94 811 127 c 1,68,69
 714 39 714 39 618 -5 c 0,70,71
 511 -52 511 -52 391 -52 c 0,72,73
 247 -52 247 -52 180 35 c 0,74,75
 143 85 143 85 143 170 c 0,76,77
 143 202 143 202 148 238 c 0,78,79
 149 245 149 245 151 252 c 128,-1,80
 153 259 153 259 154 265 c 0,81,82
 189 391 189 391 284 490 c 0,83,84
 367 580 367 580 531 677 c 1,85,86
 494 752 494 752 481 827 c 0,87,88
 476 851 476 851 476 884 c 0,89,90
 476 925 476 925 484 980 c 0,91,92
 484 985 484 985 486.5 993 c 128,-1,93
 489 1001 489 1001 491 1010 c 0,94,95
 528 1150 528 1150 638 1237 c 0,96,97
 744 1322 744 1322 874 1322 c 2,98,-1
 880 1322 l 2,99,100
 1016 1322 1016 1322 1075 1247 c 0,101,102
 1109 1203 1109 1203 1109 1142 c 0,103,104
 1109 1113 1109 1113 1101 1079 c 2,105,-1
 1097 1062 l 2,106,107
 1097 1061 1097 1061 1097 1061 c 1,108,109
 1064 950 1064 950 979 863 c 0,110,111
 897 780 897 780 757 701 c 1,112,113
 758 701 758 701 922 392 c 1,114,-1
 1060 573 l 2,115,116
 1069 585 1069 585 1074 599 c 2,117,118
 1074 599 1074 599 1075.5 602 c 128,-1,119
 1077 605 1077 605 1078 610 c 128,-1,120
 1079 615 1079 615 1078 622 c 128,-1,121
 1077 629 1077 629 1073 637 c 0,122,123
 1064 653 1064 653 1068 671 c 2,124,-1
 1069 674 l 2,125,126
 1070 679 1070 679 1076.5 690 c 128,-1,127
 1083 701 1083 701 1093 709 c 0,128,129
 1107 720 1107 720 1122 720 c 2,130,-1
 1380 720 l 2,131,132
 1399 720 1399 720 1407 707 c 0,133,134
 1412 701 1412 701 1409 690 c 2,38,-1
EndSplineSet
Validated: 1
EndChar

StartChar: quotesingle
Encoding: 39 39 10
Width: 426
GlyphClass: 1
Flags: W
LayerCount: 2
Fore
SplineSet
510 1463 m 2,0,-1
 557 1463 l 2,1,2
 600 1463 600 1463 615 1445 c 0,3,4
 624 1433 624 1433 619 1414 c 2,5,-1
 618 1409 l 2,6,7
 618 1408 618 1408 465 968 c 0,8,9
 462 956 462 956 450.5 946.5 c 128,-1,10
 439 937 439 937 419 937 c 2,11,-1
 404 937 l 2,12,13
 385 937 385 937 377.5 946 c 128,-1,14
 370 955 370 955 373 968 c 0,15,16
 423 1408 423 1408 423 1409 c 2,17,-1
 424 1413 l 2,18,19
 428 1432 428 1432 445 1445 c 0,20,21
 467 1463 467 1463 510 1463 c 2,0,-1
EndSplineSet
Validated: 1
EndChar

StartChar: parenleft
Encoding: 40 40 11
Width: 682
GlyphClass: 1
Flags: W
LayerCount: 2
Fore
SplineSet
289 757 m 2,0,1
 321 896 321 896 369 1024.5 c 128,-1,2
 417 1153 417 1153 504 1252 c 0,3,4
 548 1303 548 1303 590.5 1345.5 c 128,-1,5
 633 1388 633 1388 696 1421 c 0,6,7
 818 1487 818 1487 923 1487 c 0,8,9
 961 1487 961 1487 961 1454 c 0,10,11
 961 1446 961 1446 959 1437 c 0,12,13
 953 1410 953 1410 945 1404 c 0,14,15
 933 1390 933 1390 874 1377 c 128,-1,16
 815 1364 815 1364 742 1304 c 0,17,18
 662 1240 662 1240 605 1113 c 0,19,20
 547 985 547 985 468 640 c 2,21,-1
 435 497 l 2,22,23
 353 141 353 141 353 17 c 0,24,25
 353 -104 353 -104 403 -168 c 0,26,27
 430 -201 430 -201 456 -218 c 0,28,29
 481 -235 481 -235 525 -249 c 0,30,31
 557 -261 557 -261 563 -275 c 0,32,33
 562 -281 562 -281 558 -300 c 2,34,-1
 557 -305 l 2,35,36
 552 -326 552 -326 539 -338 c 0,37,38
 522 -352 522 -352 495 -352 c 0,39,40
 417 -352 417 -352 344 -312 c 0,41,42
 268 -271 268 -271 216 -176 c 128,-1,43
 164 -81 164 -81 157 19 c 0,44,45
 156 38 156 38 156 59 c 0,46,47
 156 183 156 183 201 377 c 2,48,-1
 289 757 l 2,0,1
EndSplineSet
Validated: 1
EndChar

StartChar: parenright
Encoding: 41 41 12
Width: 628
GlyphClass: 1
Flags: W
LayerCount: 2
Fore
SplineSet
651 379 m 2,0,1
 619 240 619 240 571 111.5 c 128,-1,2
 523 -17 523 -17 436 -116 c 0,3,4
 392 -167 392 -167 349.5 -209.5 c 128,-1,5
 307 -252 307 -252 244 -285 c 0,6,7
 122 -351 122 -351 17 -351 c 0,8,9
 -20 -351 -20 -351 -20 -319 c 0,10,11
 -20 -311 -20 -311 -18 -301 c 0,12,13
 -12 -274 -12 -274 -5 -268 c 0,14,15
 7 -254 7 -254 66 -241 c 128,-1,16
 125 -228 125 -228 198 -168 c 0,17,18
 278 -104 278 -104 335 23 c 0,19,20
 393 151 393 151 473 496 c 2,21,-1
 506 639 l 2,22,23
 587 990 587 990 587 1119 c 0,24,25
 587 1240 587 1240 537 1304 c 0,26,27
 510 1337 510 1337 485 1354 c 256,28,29
 460 1371 460 1371 416 1385 c 0,30,31
 384 1397 384 1397 378 1411 c 0,32,33
 379 1417 379 1417 383 1436 c 2,34,-1
 384 1441 l 2,35,36
 389 1462 389 1462 401 1474 c 0,37,38
 418 1488 418 1488 446 1488 c 0,39,40
 524 1488 524 1488 596 1448 c 0,41,42
 672 1407 672 1407 724 1312 c 128,-1,43
 776 1217 776 1217 783 1117 c 0,44,45
 784 1098 784 1098 784 1077 c 0,46,47
 784 953 784 953 739 759 c 2,48,-1
 651 379 l 2,0,1
EndSplineSet
Validated: 1
EndChar

StartChar: asterisk
Encoding: 42 42 13
Width: 1100
GlyphClass: 1
Flags: W
LayerCount: 2
Fore
SplineSet
988 466 m 0,0,1
 985 454 985 454 975 442 c 0,2,3
 962 427 962 427 936 397 c 0,4,5
 918 377 918 377 896 377 c 0,6,7
 879 377 879 377 861 390 c 2,8,-1
 735 486 l 1,9,-1
 719 498 l 1,10,-1
 673 300 l 2,11,12
 666 269 666 269 648 254 c 0,13,14
 633 242 633 242 614 242 c 2,15,-1
 562 242 l 2,16,17
 543 242 543 242 534 254 c 0,18,19
 522 269 522 269 529 300 c 2,20,-1
 575 498 l 1,21,-1
 383 390 l 2,22,23
 360 377 360 377 343 377 c 0,24,25
 321 377 321 377 312 397 c 2,26,-1
 293 442 l 2,27,28
 288 454 288 454 292 466 c 0,29,30
 298 492 298 492 332 512 c 2,31,-1
 545 632 l 1,32,-1
 387 751 l 2,33,34
 361 771 361 771 368 797 c 0,35,36
 371 809 371 809 381 821 c 0,37,38
 394 836 394 836 420 866 c 0,39,40
 438 886 438 886 460 886 c 0,41,42
 477 886 477 886 495 873 c 2,43,-1
 620 777 l 1,44,-1
 637 765 l 1,45,-1
 683 964 l 2,46,47
 690 993 690 993 708 1008 c 0,48,49
 723 1020 723 1020 741 1020 c 2,50,-1
 793 1020 l 2,51,52
 812 1020 812 1020 822 1008 c 0,53,54
 834 993 834 993 827 964 c 2,55,-1
 781 765 l 1,56,-1
 973 873 l 2,57,58
 996 886 996 886 1013 886 c 0,59,60
 1035 886 1035 886 1044 866 c 2,61,-1
 1063 821 l 2,62,63
 1068 809 1068 809 1064 797 c 0,64,65
 1058 771 1058 771 1023 751 c 2,66,-1
 842 649 l 1,67,-1
 811 632 l 1,68,-1
 968 512 l 2,69,70
 994 492 994 492 988 466 c 0,0,1
EndSplineSet
Validated: 1
EndChar

StartChar: plus
Encoding: 43 43 14
Width: 1100
GlyphClass: 1
Flags: W
LayerCount: 2
Fore
SplineSet
733 559 m 1,0,-1
 673 300 l 2,1,2
 666 269 666 269 648 254 c 0,3,4
 633 242 633 242 614 242 c 2,5,-1
 562 242 l 2,6,7
 543 242 543 242 534 254 c 0,8,9
 522 269 522 269 529 300 c 2,10,-1
 589 559 l 1,11,-1
 329 559 l 2,12,13
 299 559 299 559 288 574 c 0,14,15
 279 586 279 586 283 605 c 2,16,-1
 295 658 l 2,17,18
 299 677 299 677 314 689 c 0,19,20
 332 704 332 704 363 704 c 2,21,-1
 623 704 l 1,22,-1
 683 964 l 2,23,24
 690 993 690 993 708 1008 c 0,25,26
 723 1020 723 1020 741 1020 c 2,27,-1
 793 1020 l 2,28,29
 812 1020 812 1020 822 1008 c 0,30,31
 834 993 834 993 827 964 c 2,32,-1
 767 704 l 1,33,-1
 1027 704 l 2,34,35
 1057 704 1057 704 1068 689 c 0,36,37
 1077 677 1077 677 1073 658 c 2,38,-1
 1061 605 l 2,39,40
 1057 586 1057 586 1042 574 c 0,41,42
 1024 559 1024 559 993 559 c 2,43,-1
 733 559 l 1,0,-1
EndSplineSet
Validated: 1
EndChar

StartChar: comma
Encoding: 44 44 15
Width: 480
GlyphClass: 1
Flags: W
LayerCount: 2
Fore
SplineSet
141 61 m 2,0,-1
 160 143 l 2,1,2
 171 190 171 190 204 217 c 0,3,4
 245 250 245 250 315 250 c 128,-1,5
 385 250 385 250 410 217 c 0,6,7
 424 199 424 199 424 173 c 0,8,9
 424 159 424 159 420 143 c 2,10,-1
 401 61 l 2,11,12
 401 60 401 60 400 58 c 0,13,14
 330 -138 330 -138 144 -242 c 1,15,16
 104 -269 104 -269 72 -269 c 0,17,18
 50 -269 50 -269 34 -257 c 0,19,20
 32 -255 32 -255 31 -253 c 0,21,22
 23 -240 23 -240 25 -225 c 0,23,24
 29 -208 29 -208 46 -193 c 0,25,26
 69 -173 69 -173 100 -158 c 0,27,28
 183 -113 183 -113 222 -44 c 1,29,30
 172 -39 172 -39 151 -12 c 0,31,32
 137 6 137 6 137 32 c 0,33,34
 137 45 137 45 141 61 c 2,0,-1
EndSplineSet
Validated: 1
EndChar

StartChar: hyphen
Encoding: 45 45 16
Width: 1100
GlyphClass: 1
Flags: W
LayerCount: 2
Fore
SplineSet
331 569 m 2,0,-1
 995 569 l 2,1,2
 1025 569 1025 569 1037 554 c 0,3,4
 1046 542 1046 542 1042 523 c 2,5,-1
 1030 470 l 2,6,7
 1026 451 1026 451 1010 439 c 0,8,9
 992 424 992 424 962 424 c 2,10,-1
 298 424 l 2,11,12
 268 424 268 424 256 439 c 0,13,14
 247 451 247 451 252 470 c 2,15,-1
 264 523 l 2,16,17
 268 542 268 542 283 554 c 0,18,19
 301 569 301 569 331 569 c 2,0,-1
EndSplineSet
Validated: 1
EndChar

StartChar: period
Encoding: 46 46 17
Width: 480
GlyphClass: 1
Flags: W
LayerCount: 2
Fore
SplineSet
315 250 m 128,-1,1
 385 250 385 250 410 217 c 0,2,3
 424 199 424 199 424 173 c 0,4,5
 424 159 424 159 420 143 c 2,6,-1
 401 61 l 2,7,8
 390 15 390 15 357 -12 c 0,9,10
 316 -45 316 -45 246.5 -45 c 128,-1,11
 177 -45 177 -45 151 -12 c 0,12,13
 137 6 137 6 137 32 c 0,14,15
 137 46 137 46 141 61 c 2,16,-1
 160 143 l 2,17,18
 171 190 171 190 204 217 c 0,19,0
 245 250 245 250 315 250 c 128,-1,1
EndSplineSet
Validated: 1
EndChar

StartChar: slash
Encoding: 47 47 18
Width: 1100
GlyphClass: 1
Flags: W
LayerCount: 2
Fore
SplineSet
1387 1494 m 2,0,1
 1395 1494 1395 1494 1399.5 1488 c 128,-1,2
 1404 1482 1404 1482 1402.5 1476 c 128,-1,3
 1401 1470 1401 1470 1398 1464 c 2,4,-1
 200 -80 l 2,5,6
 198 -83 198 -83 195 -84 c 0,7,8
 188 -90 188 -90 179 -90 c 2,9,-1
 37 -90 l 2,10,11
 29 -90 29 -90 24.5 -84 c 128,-1,12
 20 -78 20 -78 21.5 -72 c 128,-1,13
 23 -66 23 -66 26 -60 c 2,14,-1
 1227 1484 l 2,15,16
 1235 1494 1235 1494 1247 1494 c 2,17,-1
 1387 1494 l 2,0,1
EndSplineSet
Validated: 1
EndChar

StartChar: zero
Encoding: 48 48 19
Width: 1100
GlyphClass: 1
Flags: W
LayerCount: 2
Fore
SplineSet
307 989 m 2,0,1
 352 1185 352 1185 508.5 1325.5 c 128,-1,2
 665 1466 665 1466 889 1466 c 0,3,4
 1116 1466 1116 1466 1205 1324 c 0,5,6
 1264 1230 1264 1230 1264 1113 c 0,7,8
 1264 1054 1264 1054 1249 989 c 2,9,-1
 1136 498 l 2,10,11
 1071 216 1071 216 903 79 c 0,12,13
 750 -45 750 -45 516 -45 c 0,14,15
 314 -45 314 -45 228 67 c 0,16,17
 166 148 166 148 166 287 c 0,18,19
 166 377 166 377 192 491 c 2,20,-1
 307 989 l 2,0,1
863 1354 m 0,21,22
 757 1354 757 1354 694 1303 c 0,23,24
 653 1270 653 1270 630 1216 c 0,25,26
 562 1064 562 1064 539 966 c 2,27,-1
 421 454 l 2,28,29
 398 356 398 356 398 215 c 0,30,31
 398 209 398 209 398 203 c 0,32,33
 398 143 398 143 423 110 c 0,34,35
 457 66 457 66 537 66 c 0,36,37
 679 66 679 66 762 175 c 0,38,39
 851 291 851 291 889 454 c 2,40,-1
 1007 966 l 2,41,42
 1028 1058 1028 1058 1028 1134 c 0,43,44
 1028 1194 1028 1194 1015 1245 c 0,45,46
 1006 1279 1006 1279 989 1302 c 0,47,48
 950 1354 950 1354 863 1354 c 0,21,22
EndSplineSet
Validated: 1
EndChar

StartChar: one
Encoding: 49 49 20
Width: 1100
GlyphClass: 1
Flags: W
LayerCount: 2
Fore
SplineSet
816 16 m 0,0,1
 813 1 813 1 800 -9.5 c 128,-1,2
 787 -20 787 -20 767 -20 c 2,3,-1
 427 -20 l 2,4,5
 409 -20 409 -20 400.5 -9 c 128,-1,6
 392 2 392 2 397 21 c 1,7,-1
 397 23 l 2,8,9
 397 24 397 24 398 24 c 0,10,11
 402 41 402 41 419.5 55.5 c 128,-1,12
 437 70 437 70 474 82 c 0,13,14
 488 86 488 86 497 94 c 0,15,16
 518 111 518 111 526 146 c 2,17,-1
 776 1232 l 1,18,-1
 592 1232 l 2,19,20
 584 1232 584 1232 579.5 1238 c 128,-1,21
 575 1244 575 1244 577 1252 c 2,22,-1
 588 1299 l 2,23,24
 590 1307 590 1307 597 1313 c 0,25,26
 601 1316 601 1316 604 1317 c 2,27,-1
 1026 1481 l 2,28,29
 1030 1483 1030 1483 1036 1483 c 128,-1,30
 1042 1483 1042 1483 1047 1477 c 128,-1,31
 1052 1471 1052 1471 1050 1463 c 2,32,-1
 746 146 l 2,33,34
 738 110 738 110 750 94 c 0,35,36
 756 86 756 86 768 82 c 0,37,38
 797 71 797 71 808 56.5 c 128,-1,39
 819 42 819 42 818 26 c 0,40,41
 818 24 818 24 817 23 c 2,42,-1
 817 22 l 2,43,44
 817 19 817 19 816 16 c 0,0,1
EndSplineSet
Validated: 1
EndChar

StartChar: two
Encoding: 50 50 21
Width: 1100
GlyphClass: 1
Flags: W
LayerCount: 2
Fore
SplineSet
132 0 m 2,0,-1
 150 78 l 2,1,2
 172 172 172 172 243 242 c 0,3,4
 310 308 310 308 450 429 c 1,5,6
 450 429 450 429 462 438 c 0,7,8
 532 493 532 493 612.5 564.5 c 128,-1,9
 693 636 693 636 784.5 721 c 128,-1,10
 876 806 876 806 928 890 c 0,11,12
 980 976 980 976 993 1032 c 0,13,14
 999 1060 999 1060 999.5 1085 c 128,-1,15
 1000 1110 1000 1110 993 1132 c 0,16,17
 965 1224 965 1224 881 1260 c 0,18,19
 832 1281 832 1281 779 1281 c 128,-1,20
 726 1281 726 1281 675 1270 c 0,21,22
 558 1242 558 1242 461 1136 c 0,23,24
 430 1102 430 1102 414 1073 c 0,25,26
 411 1069 411 1069 407 1066 c 0,27,28
 400 1060 400 1060 392 1060 c 2,29,-1
 388 1060 l 2,30,31
 380 1060 380 1060 375 1066 c 128,-1,32
 370 1072 370 1072 372 1080 c 2,33,-1
 402 1210 l 2,34,35
 403 1213 403 1213 405 1217 c 0,36,37
 422 1246 422 1246 437 1266 c 0,38,39
 437 1267 437 1267 439 1268 c 0,40,41
 499 1339 499 1339 589 1394 c 128,-1,42
 679 1449 679 1449 792 1466 c 0,43,44
 837 1472 837 1472 880 1472 c 0,45,46
 1018 1472 1018 1472 1127 1402 c 0,47,48
 1237 1330 1237 1330 1237 1189 c 0,49,50
 1237 1143 1237 1143 1225 1090 c 2,51,-1
 1224 1086 l 2,52,53
 1191 943 1191 943 1086.5 818 c 128,-1,54
 982 693 982 693 854.5 580.5 c 128,-1,55
 727 468 727 468 596 350 c 0,56,57
 486 252 486 252 414 170 c 1,58,-1
 748 170 l 2,59,60
 874 170 874 170 997 211 c 0,61,62
 1001 212 1001 212 1005 212 c 0,63,64
 1012 212 1012 212 1016.5 206 c 128,-1,65
 1021 200 1021 200 1019 192 c 2,66,-1
 987 42 l 2,67,68
 984 31 984 31 973 25 c 0,69,70
 903 -13 903 -13 833.5 -16.5 c 128,-1,71
 764 -20 764 -20 706 -20 c 2,72,-1
 147 -20 l 2,73,74
 139 -20 139 -20 134.5 -14 c 128,-1,75
 130 -8 130 -8 132 0 c 2,0,-1
EndSplineSet
Validated: 1
EndChar

StartChar: three
Encoding: 51 51 22
Width: 1100
GlyphClass: 1
Flags: W
LayerCount: 2
Fore
SplineSet
381 -51 m 0,0,1
 246 -51 246 -51 165 26 c 0,2,3
 159 32 159 32 160 41 c 0,4,5
 194 208 194 208 194 209 c 0,6,7
 196 217 196 217 203.5 223 c 128,-1,8
 211 229 211 229 219 229 c 2,9,-1
 225 229 l 2,10,11
 236 229 236 229 240 219 c 0,12,13
 276 122 276 122 401 92 c 0,14,15
 447 81 447 81 507.5 81 c 128,-1,16
 568 81 568 81 641 115 c 0,17,18
 749 165 749 165 804 260 c 0,19,20
 835 312 835 312 846 359 c 0,21,22
 855 395 855 395 855 429 c 0,23,24
 855 537 855 537 766 617 c 0,25,26
 687 689 687 689 524 692 c 0,27,28
 516 692 516 692 511.5 697.5 c 128,-1,29
 507 703 507 703 508 711 c 0,30,31
 513 740 513 740 513 740 c 2,32,33
 515 748 515 748 520.5 753 c 128,-1,34
 526 758 526 758 531 759 c 0,35,36
 604 781 604 781 701 820 c 0,37,38
 793 857 793 857 848.5 924.5 c 128,-1,39
 904 992 904 992 918 1053 c 0,40,41
 922 1070 922 1070 923 1089 c 0,42,43
 923 1095 923 1095 923 1101 c 0,44,45
 923 1173 923 1173 880 1231 c 0,46,47
 835 1289 835 1289 745 1289 c 0,48,49
 737 1289 737 1289 733 1288.5 c 128,-1,50
 729 1288 729 1288 728 1288 c 0,51,52
 623 1282 623 1282 537 1201 c 0,53,54
 498 1164 498 1164 477 1123 c 0,55,56
 475 1118 475 1118 469 1113 c 128,-1,57
 463 1108 463 1108 455 1108 c 2,58,-1
 451 1108 l 2,59,60
 443 1108 443 1108 438.5 1114 c 128,-1,61
 434 1120 434 1120 435 1128 c 2,62,-1
 471 1283 l 2,63,64
 473 1291 473 1291 479 1296 c 0,65,66
 588 1391 588 1391 690.5 1428.5 c 128,-1,67
 793 1466 793 1466 880 1466 c 0,68,69
 1044 1464 1044 1464 1113 1373 c 0,70,71
 1145 1331 1145 1331 1157 1270 c 1,72,73
 1157 1270 1157 1270 1158 1269 c 0,74,75
 1162 1246 1162 1246 1162 1223 c 0,76,77
 1162 1190 1162 1190 1154 1157 c 0,78,79
 1122 1020 1122 1020 953 889 c 0,80,81
 930 871 930 871 901 851 c 1,82,83
 1012 781 1012 781 1047 681 c 0,84,85
 1070 614 1070 614 1070 547 c 0,86,87
 1070 503 1070 503 1060 458 c 0,88,89
 1056 439 1056 439 1051 426 c 0,90,91
 980 201 980 201 733 49 c 0,92,93
 603 -31 603 -31 433 -48 c 0,94,95
 406 -51 406 -51 381 -51 c 0,0,1
EndSplineSet
Validated: 1
EndChar

StartChar: four
Encoding: 52 52 23
Width: 1100
GlyphClass: 1
Flags: W
LayerCount: 2
Fore
SplineSet
763 576 m 1,0,-1
 902 1179 l 1,1,-1
 366 576 l 1,2,-1
 763 576 l 1,0,-1
941 395 m 1,3,-1
 884 146 l 2,4,5
 878 119 878 119 889 104.5 c 128,-1,6
 900 90 900 90 926 83 c 0,7,8
 977 69 977 69 991 50 c 0,9,10
 1001 37 1001 37 996.5 19.5 c 128,-1,11
 992 2 992 2 978.5 -9 c 128,-1,12
 965 -20 965 -20 947 -20 c 2,13,-1
 523 -20 l 2,14,15
 504 -20 504 -20 495.5 -8.5 c 128,-1,16
 487 3 487 3 491 21 c 0,17,18
 495 38 495 38 511 50 c 0,19,20
 534 69 534 69 593 83 c 0,21,22
 622 90 622 90 639.5 104.5 c 128,-1,23
 657 119 657 119 664 146 c 2,24,-1
 721 395 l 1,25,-1
 159 395 l 2,26,27
 151 395 151 395 146.5 401 c 128,-1,28
 142 407 142 407 144 415 c 2,29,-1
 170 529 l 2,30,31
 171 535 171 535 176 540 c 2,32,-1
 960 1416 l 2,33,34
 968 1425 968 1425 979 1425 c 2,35,-1
 1159 1425 l 2,36,37
 1167 1425 1167 1425 1171.5 1419 c 128,-1,38
 1176 1413 1176 1413 1174 1405 c 2,39,-1
 983 576 l 1,40,-1
 1165 576 l 2,41,42
 1173 576 1173 576 1177.5 570 c 128,-1,43
 1182 564 1182 564 1180 556 c 2,44,-1
 1148 415 l 2,45,46
 1146 407 1146 407 1138.5 401 c 128,-1,47
 1131 395 1131 395 1123 395 c 2,48,-1
 941 395 l 1,3,-1
EndSplineSet
Validated: 1
EndChar

StartChar: five
Encoding: 53 53 24
Width: 1100
GlyphClass: 1
Flags: W
LayerCount: 2
Fore
SplineSet
526 1175 m 1,0,-1
 435 779 l 1,1,2
 436 779 436 779 483 803.5 c 128,-1,3
 530 828 530 828 584 847 c 0,4,5
 688 885 688 885 797 885 c 0,6,7
 813 885 813 885 830 884 c 0,8,9
 984 872 984 872 1066 734 c 1,10,11
 1115 643 1115 643 1115 538 c 0,12,13
 1115 483 1115 483 1102 425 c 2,14,-1
 1101 419 l 1,15,16
 1057 243 1057 243 879 98 c 0,17,18
 705 -43 705 -43 491 -43 c 2,19,-1
 482 -43 l 2,20,21
 353 -40 353 -40 285.5 -20 c 128,-1,22
 218 0 218 0 152 32 c 0,23,24
 108 51 108 51 108 89 c 0,25,26
 108 95 108 95 109 101 c 0,27,28
 112 124 112 124 117 144 c 0,29,30
 133 212 133 212 165 238 c 0,31,32
 198 263 198 263 219 263 c 0,33,34
 235 263 235 263 242 253 c 0,35,36
 271 205 271 205 325 149 c 0,37,38
 371 99 371 99 478 99 c 2,39,-1
 486 99 l 2,40,41
 576 99 576 99 663.5 154.5 c 128,-1,42
 751 210 751 210 809 297 c 0,43,44
 848 357 848 357 863 425 c 0,45,46
 874 471 874 471 875 522 c 0,47,48
 875 642 875 642 785 699 c 0,49,50
 720 739 720 739 659 739 c 0,51,52
 631 739 631 739 604 732 c 0,53,54
 510 705 510 705 441 655 c 0,55,56
 400 626 400 626 370 621 c 0,57,58
 351 616 351 616 332 616 c 0,59,60
 323 616 323 616 317 617 c 0,61,62
 303 617 303 617 278.5 619 c 128,-1,63
 254 621 254 621 265 668 c 2,64,-1
 416 1320 l 2,65,66
 426 1362 426 1362 438.5 1373.5 c 128,-1,67
 451 1385 451 1385 501 1385 c 2,68,-1
 981 1385 l 2,69,70
 1036 1385 1036 1385 1101 1381.5 c 128,-1,71
 1166 1378 1166 1378 1226 1335 c 1,72,-1
 1178 1125 l 1,73,74
 1054 1175 1054 1175 932 1175 c 2,75,-1
 526 1175 l 1,0,-1
EndSplineSet
Validated: 1
EndChar

StartChar: six
Encoding: 54 54 25
Width: 1100
GlyphClass: 1
Flags: W
LayerCount: 2
Fore
SplineSet
1161 481 m 1,0,1
 1110 260 1110 260 928 108 c 0,2,3
 744 -46 744 -46 543 -46 c 2,4,-1
 528 -46 l 1,5,6
 528 -46 528 -46 527 -46 c 0,7,8
 312 -40 312 -40 210 108 c 0,9,10
 141 208 141 208 141 336 c 0,11,12
 141 398 141 398 157 466 c 2,13,-1
 159 475 l 1,14,15
 237 802 237 802 431.5 1033 c 128,-1,16
 626 1264 626 1264 918 1437 c 0,17,18
 950 1456 950 1456 967 1463.5 c 128,-1,19
 984 1471 984 1471 1021 1471 c 2,20,-1
 1089 1470 l 2,21,22
 1122 1470 1122 1470 1134 1465 c 0,23,24
 1140 1463 1140 1463 1144 1457.5 c 128,-1,25
 1148 1452 1148 1452 1146 1442 c 0,26,27
 1142 1424 1142 1424 1113 1411 c 0,28,29
 920 1296 920 1296 787 1184 c 0,30,31
 677 1091 677 1091 570 959 c 1,32,33
 658 991 658 991 755 991 c 0,34,35
 788 991 788 991 822 987 c 0,36,37
 990 968 990 968 1078 865 c 0,38,39
 1176 751 1176 751 1176 601 c 0,40,41
 1176 545 1176 545 1162 484 c 1,42,-1
 1161 481 l 1,0,1
515 757 m 0,43,44
 402 631 402 631 362 459 c 0,45,46
 346 388 346 388 346 327 c 0,47,48
 346 240 346 240 379 173 c 0,49,50
 435 63 435 63 541 63 c 2,51,-1
 553 63 l 1,52,53
 668 69 668 69 777 192 c 0,54,55
 891 318 891 318 931 490 c 0,56,57
 947 561 947 561 947 623 c 0,58,59
 947 710 947 710 914 777 c 0,60,61
 858 887 858 887 753 887 c 2,62,-1
 742 887 l 1,63,64
 625 880 625 880 515 757 c 0,43,44
EndSplineSet
Validated: 1
EndChar

StartChar: seven
Encoding: 55 55 26
Width: 1100
GlyphClass: 1
Flags: W
LayerCount: 2
Fore
SplineSet
153 -20 m 2,0,1
 145 -20 145 -20 141 -14.5 c 128,-1,2
 137 -9 137 -9 137 -3 c 0,3,4
 139 13 139 13 142 25 c 0,5,6
 154 75 154 75 190 131 c 0,7,8
 232 195 232 195 266 241 c 0,9,10
 373 386 373 386 684 766 c 2,11,-1
 974 1122 l 1,12,-1
 1046 1210 l 1,13,-1
 683 1210 l 2,14,15
 557 1210 557 1210 443 1170 c 0,16,17
 439 1168 439 1168 435 1169 c 0,18,19
 428 1169 428 1169 423.5 1175 c 128,-1,20
 419 1181 419 1181 421 1189 c 2,21,-1
 461 1363 l 2,22,23
 464 1374 464 1374 474 1380 c 0,24,25
 536 1415 536 1415 610 1420 c 0,26,27
 676 1425 676 1425 733 1425 c 2,28,-1
 1227 1425 l 2,29,30
 1259 1425 1259 1425 1271 1421 c 0,31,32
 1287 1415 1287 1415 1284 1392 c 0,33,34
 1283 1383 1283 1383 1281 1373 c 128,-1,35
 1279 1363 1279 1363 1278 1358 c 0,36,37
 1261 1287 1261 1287 1214 1221 c 0,38,39
 1029 967 1029 967 829 690 c 128,-1,40
 629 413 629 413 532 278.5 c 128,-1,41
 435 144 435 144 435 144 c 2,42,43
 381 72 381 72 346 -4 c 0,44,45
 344 -10 344 -10 337.5 -15 c 128,-1,46
 331 -20 331 -20 323 -20 c 2,47,-1
 153 -20 l 2,0,1
EndSplineSet
Validated: 1
EndChar

StartChar: eight
Encoding: 56 56 27
Width: 1100
GlyphClass: 1
Flags: W
LayerCount: 2
Fore
SplineSet
759 846 m 0,0,1
 762 846 762 846 765 845 c 0,2,3
 899 846 899 846 959 917 c 0,4,5
 1024 994 1024 994 1049 1104 c 0,6,7
 1059 1147 1059 1147 1059 1185 c 0,8,9
 1059 1243 1059 1243 1036 1290 c 0,10,11
 999 1363 999 1363 878 1363 c 128,-1,12
 757 1363 757 1363 688 1289 c 0,13,14
 616 1212 616 1212 590 1104 c 0,15,16
 589 1100 589 1100 588 1095 c 0,17,18
 578 1049 578 1049 578 1008 c 0,19,20
 578 959 578 959 593 918 c 0,21,22
 620 846 620 846 759 846 c 0,0,1
562 1380 m 0,23,24
 712 1468 712 1468 928 1468 c 128,-1,25
 1144 1468 1144 1468 1229 1363 c 0,26,27
 1284 1293 1284 1293 1284 1196 c 0,28,29
 1284 1151 1284 1151 1272 1100 c 2,30,-1
 1269 1088 l 1,31,32
 1269 1088 1269 1088 1269 1087 c 0,33,34
 1236 955 1236 955 1137 875 c 0,35,36
 1073 823 1073 823 984 795 c 1,37,38
 1076 755 1076 755 1128 678 c 0,39,40
 1174 613 1174 613 1174 513 c 0,41,42
 1174 450 1174 450 1156 374 c 1,43,-1
 1156 372 l 1,44,45
 1110 172 1110 172 937 67 c 0,46,47
 765 -40 765 -40 531 -40 c 2,48,-1
 529 -40 l 2,49,50
 295 -40 295 -40 185 73 c 0,51,52
 108 152 108 152 108 279 c 0,53,54
 108 336 108 336 123 402 c 0,55,56
 163 571 163 571 284 676 c 0,57,58
 378 757 378 757 497 797 c 1,59,60
 430 825 430 825 394 872 c 0,61,62
 351 928 351 928 351 1011 c 0,63,64
 351 1053 351 1053 362 1102 c 0,65,66
 407 1289 407 1289 562 1380 c 0,23,24
728.5 736 m 128,-1,68
 611 736 611 736 511 659 c 0,69,70
 410 582 410 582 370 406 c 2,71,-1
 369 402 l 2,72,73
 352 326 352 326 352 268 c 0,74,75
 352 188 352 188 385 145 c 0,76,77
 440 74 440 74 576 74 c 0,78,79
 713 74 713 74 802 146.5 c 128,-1,80
 891 219 891 219 934 405 c 0,81,82
 950 478 950 478 950 534 c 0,83,84
 950 620 950 620 911 664 c 0,85,67
 846 736 846 736 728.5 736 c 128,-1,68
588 1095 m 1,86,-1
 588 1095 l 1,87,88
 588 1095 588 1095 588 1095 c 1,86,-1
369 402 m 1,89,-1
 369 402 l 1,90,91
 369 402 369 402 369 402 c 1,89,-1
EndSplineSet
Validated: 1
EndChar

StartChar: nine
Encoding: 57 57 28
Width: 1100
GlyphClass: 1
Flags: W
LayerCount: 2
Fore
SplineSet
267 944 m 1,0,1
 318 1165 318 1165 500 1317 c 0,2,3
 684 1471 684 1471 885 1471 c 2,4,-1
 900 1471 l 1,5,6
 900 1471 900 1471 901 1471 c 0,7,8
 1116 1465 1116 1465 1218 1317 c 0,9,10
 1287 1217 1287 1217 1287 1089 c 0,11,12
 1287 1027 1287 1027 1271 959 c 2,13,-1
 1269 950 l 1,14,15
 1191 623 1191 623 996.5 392 c 128,-1,16
 802 161 802 161 510 -12 c 0,17,18
 478 -31 478 -31 461 -38.5 c 128,-1,19
 444 -46 444 -46 407 -46 c 2,20,-1
 339 -45 l 2,21,22
 306 -45 306 -45 294 -40 c 0,23,24
 288 -38 288 -38 284 -32.5 c 128,-1,25
 280 -27 280 -27 282 -17 c 0,26,27
 286 1 286 1 315 14 c 0,28,29
 508 129 508 129 641 241 c 0,30,31
 751 334 751 334 858 466 c 1,32,33
 770 434 770 434 673 434 c 0,34,35
 640 434 640 434 606 438 c 0,36,37
 438 457 438 457 350 560 c 0,38,39
 252 674 252 674 252 824 c 0,40,41
 252 880 252 880 266 941 c 1,42,-1
 267 944 l 1,0,1
913 668 m 0,43,44
 1026 794 1026 794 1066 966 c 0,45,46
 1082 1037 1082 1037 1082 1098 c 0,47,48
 1082 1185 1082 1185 1049 1252 c 0,49,50
 993 1362 993 1362 887 1362 c 2,51,-1
 875 1362 l 1,52,53
 760 1356 760 1356 651 1233 c 0,54,55
 537 1106 537 1106 497 934 c 0,56,57
 481 863 481 863 481 802 c 0,58,59
 481 715 481 715 514 648 c 0,60,61
 570 538 570 538 675 538 c 2,62,-1
 686 538 l 1,63,64
 803 545 803 545 913 668 c 0,43,44
EndSplineSet
Validated: 1
EndChar

StartChar: colon
Encoding: 58 58 29
Width: 480
GlyphClass: 1
Flags: W
LayerCount: 2
Fore
SplineSet
315 250 m 128,-1,1
 385 250 385 250 410 217 c 0,2,3
 424 199 424 199 424 173 c 0,4,5
 424 159 424 159 420 143 c 2,6,-1
 401 61 l 2,7,8
 390 15 390 15 357 -12 c 0,9,10
 316 -45 316 -45 246.5 -45 c 128,-1,11
 177 -45 177 -45 151 -12 c 0,12,13
 137 6 137 6 137 32 c 0,14,15
 137 46 137 46 141 61 c 2,16,-1
 160 143 l 2,17,18
 171 190 171 190 204 217 c 0,19,0
 245 250 245 250 315 250 c 128,-1,1
480 968 m 128,-1,21
 550 968 550 968 576 935 c 0,22,23
 590 917 590 917 590 891 c 0,24,25
 590 877 590 877 586 861 c 2,26,-1
 567 779 l 2,27,28
 556 733 556 733 523 706 c 0,29,30
 482 673 482 673 412 673 c 128,-1,31
 342 673 342 673 317 706 c 0,32,33
 303 724 303 724 303 750 c 0,34,35
 303 764 303 764 307 779 c 2,36,-1
 326 861 l 2,37,38
 337 908 337 908 370 935 c 0,39,20
 410 968 410 968 480 968 c 128,-1,21
EndSplineSet
Validated: 1
EndChar

StartChar: semicolon
Encoding: 59 59 30
Width: 480
GlyphClass: 1
Flags: W
LayerCount: 2
Fore
SplineSet
455 968 m 128,-1,1
 525 968 525 968 551 935 c 0,2,3
 565 917 565 917 565 891 c 0,4,5
 565 877 565 877 561 861 c 2,6,-1
 542 779 l 2,7,8
 531 733 531 733 498 706 c 0,9,10
 457 673 457 673 387 673 c 128,-1,11
 317 673 317 673 292 706 c 0,12,13
 278 724 278 724 278 750 c 0,14,15
 278 764 278 764 282 779 c 2,16,-1
 301 861 l 2,17,18
 312 908 312 908 345 935 c 0,19,0
 385 968 385 968 455 968 c 128,-1,1
141 61 m 2,20,-1
 160 143 l 2,21,22
 171 190 171 190 204 217 c 0,23,24
 245 250 245 250 315 250 c 128,-1,25
 385 250 385 250 410 217 c 0,26,27
 424 199 424 199 424 173 c 0,28,29
 424 159 424 159 420 143 c 2,30,-1
 401 61 l 2,31,32
 401 60 401 60 400 58 c 0,33,34
 330 -138 330 -138 144 -242 c 1,35,36
 104 -269 104 -269 72 -269 c 0,37,38
 50 -269 50 -269 34 -257 c 0,39,40
 32 -255 32 -255 31 -253 c 0,41,42
 23 -240 23 -240 25 -225 c 0,43,44
 29 -208 29 -208 46 -193 c 0,45,46
 69 -173 69 -173 100 -158 c 0,47,48
 183 -113 183 -113 222 -44 c 1,49,50
 172 -39 172 -39 151 -12 c 0,51,52
 137 6 137 6 137 32 c 0,53,54
 137 45 137 45 141 61 c 2,20,-1
EndSplineSet
Validated: 1
EndChar

StartChar: less
Encoding: 60 60 31
Width: 1100
GlyphClass: 1
Flags: W
LayerCount: 2
Fore
SplineSet
337 679 m 2,0,-1
 1094 1283 l 2,1,2
 1126 1307 1126 1307 1150 1307 c 0,3,4
 1170 1307 1170 1307 1182 1291 c 128,-1,5
 1194 1275 1194 1275 1207 1258 c 128,-1,6
 1220 1241 1220 1241 1220 1240 c 0,7,8
 1225 1230 1225 1230 1225 1217 c 0,9,10
 1225 1210 1225 1210 1222 1195.5 c 128,-1,11
 1219 1181 1219 1181 1190 1156 c 2,12,13
 1190 1156 1190 1156 531 631 c 1,14,15
 947 108 947 108 947 106 c 1,16,17
 947 106 947 106 947 106 c 1,18,19
 960 87 960 87 960 66 c 0,20,21
 960 62 960 62 959 58 c 0,22,23
 959 56 959 56 958 54 c 0,24,25
 954 37 954 37 938 22 c 2,26,27
 938 22 938 22 878 -27 c 0,28,29
 858 -43 858 -43 838 -43 c 0,30,31
 814 -43 814 -43 794 -19 c 2,32,-1
 307 593 l 2,33,34
 299 604 299 604 299 619 c 0,35,36
 299 625 299 625 302 639 c 128,-1,37
 305 653 305 653 337 679 c 2,0,-1
EndSplineSet
Validated: 1
EndChar

StartChar: equal
Encoding: 61 61 32
Width: 1100
GlyphClass: 1
Flags: W
LayerCount: 2
Fore
SplineSet
328 553 m 2,0,-1
 992 553 l 2,1,2
 1022 553 1022 553 1033 538 c 0,3,4
 1042 526 1042 526 1038 507 c 2,5,-1
 1026 454 l 2,6,7
 1022 435 1022 435 1007 423 c 0,8,9
 989 408 989 408 958 408 c 2,10,-1
 294 408 l 2,11,12
 264 408 264 408 253 423 c 0,13,14
 244 435 244 435 248 454 c 2,15,-1
 260 507 l 2,16,17
 264 526 264 526 279 538 c 0,18,19
 298 553 298 553 328 553 c 2,0,-1
397 853 m 2,20,-1
 1061 853 l 2,21,22
 1091 853 1091 853 1102 838 c 0,23,24
 1111 826 1111 826 1107 807 c 2,25,-1
 1095 754 l 2,26,27
 1091 735 1091 735 1076 723 c 0,28,29
 1058 708 1058 708 1027 708 c 2,30,-1
 363 708 l 2,31,32
 333 708 333 708 322 723 c 0,33,34
 313 735 313 735 317 754 c 2,35,-1
 329 807 l 2,36,37
 333 826 333 826 348 838 c 0,38,39
 367 853 367 853 397 853 c 2,20,-1
EndSplineSet
Validated: 1
EndChar

StartChar: greater
Encoding: 62 62 33
Width: 1100
GlyphClass: 1
Flags: W
LayerCount: 2
Fore
SplineSet
1055 585 m 2,0,-1
 298 -19 l 2,1,2
 266 -43 266 -43 242 -43 c 0,3,4
 222 -43 222 -43 209.5 -27 c 128,-1,5
 197 -11 197 -11 185 6 c 128,-1,6
 173 23 173 23 172 24 c 0,7,8
 164 40 164 40 168.5 62 c 128,-1,9
 173 84 173 84 202 108 c 2,10,-1
 861 633 l 1,11,12
 444 1157 444 1157 444 1158 c 0,13,14
 429 1181 429 1181 432 1206 c 0,15,16
 432 1208 432 1208 433 1210 c 0,17,18
 437 1227 437 1227 454 1242 c 2,19,-1
 514 1291 l 2,20,21
 534 1307 534 1307 554 1307 c 0,22,23
 578 1307 578 1307 598 1283 c 2,24,-1
 1085 671 l 2,25,26
 1097 655 1097 655 1092 633 c 128,-1,27
 1087 611 1087 611 1055 585 c 2,0,-1
EndSplineSet
Validated: 1
EndChar

StartChar: question
Encoding: 63 63 34
Width: 784
GlyphClass: 1
Flags: W
LayerCount: 2
Fore
SplineSet
500 381 m 0,0,1
 483 367 483 367 465 367 c 0,2,3
 432 367 432 367 428 410 c 0,4,5
 427 419 427 419 427 430 c 0,6,7
 427 458 427 458 436 497 c 2,8,-1
 507 804 l 2,9,10
 509 814 509 814 518 820 c 0,11,12
 659 906 659 906 719 975 c 128,-1,13
 779 1044 779 1044 801 1138 c 0,14,15
 812 1184 812 1184 812 1220 c 0,16,17
 812 1263 812 1263 796 1290 c 0,18,19
 768 1337 768 1337 687 1337 c 0,20,21
 618 1337 618 1337 577 1295 c 0,22,23
 532 1248 532 1248 494 1122 c 0,24,25
 483 1089 483 1089 454 1073 c 0,26,27
 427 1056 427 1056 387 1056 c 128,-1,28
 347 1056 347 1056 329 1073 c 0,29,30
 327 1074 327 1074 326 1077 c 0,31,32
 311 1096 311 1096 319 1132 c 0,33,34
 352 1274 352 1274 466 1358 c 0,35,36
 578 1440 578 1440 736 1440 c 128,-1,37
 894 1440 894 1440 971 1360 c 0,38,39
 1024 1303 1024 1303 1024 1217 c 0,40,41
 1024 1180 1024 1180 1014 1139 c 0,42,43
 974 964 974 964 771 854 c 0,44,45
 750 843 750 843 723 828 c 0,46,47
 686 807 686 807 666.5 791.5 c 128,-1,48
 647 776 647 776 638 764 c 0,49,50
 638 763 638 763 637 763 c 0,51,52
 615 736 615 736 597 667 c 0,53,54
 575 581 575 581 554 496 c 0,55,56
 541 440 541 440 522 407 c 0,57,58
 522 406 522 406 521 405 c 0,59,60
 511 390 511 390 500 381 c 0,0,1
434 250 m 128,-1,62
 504 250 504 250 529 217 c 0,63,64
 543 199 543 199 543 173 c 0,65,66
 543 159 543 159 539 143 c 2,67,-1
 520 61 l 2,68,69
 509 15 509 15 476 -12 c 0,70,71
 435 -45 435 -45 365.5 -45 c 128,-1,72
 296 -45 296 -45 270 -12 c 0,73,74
 256 6 256 6 256 32 c 0,75,76
 256 46 256 46 260 61 c 2,77,-1
 279 143 l 2,78,79
 290 190 290 190 323 217 c 0,80,61
 364 250 364 250 434 250 c 128,-1,62
EndSplineSet
Validated: 1
EndChar

StartChar: at
Encoding: 64 64 35
Width: 2119
GlyphClass: 1
Flags: W
LayerCount: 2
Fore
SplineSet
1899 168 m 0,0,1
 1831 100 1831 100 1748.5 42 c 128,-1,2
 1666 -16 1666 -16 1578 -49 c 0,3,4
 1475 -89 1475 -89 1382 -89 c 0,5,6
 1313 -89 1313 -89 1252 -66 c 0,7,8
 1172 -36 1172 -36 1172 43 c 0,9,10
 1172 63 1172 63 1177 87 c 1,11,-1
 1171 61 l 1,12,-1
 876 -32 l 2,13,14
 836 -45 836 -45 809 -45 c 2,15,-1
 767 -45 l 1,16,17
 613 -37 613 -37 557 81 c 0,18,19
 531 135 531 135 531 202 c 0,20,21
 531 248 531 248 543 300 c 0,22,23
 569 414 569 414 642 529 c 128,-1,24
 715 644 715 644 800 722 c 0,25,26
 850 769 850 769 939 819 c 0,27,28
 969 835 969 835 1006 848 c 0,29,30
 1100 878 1100 878 1194.5 908 c 128,-1,31
 1289 938 1289 938 1384 968 c 0,32,33
 1408 976 1408 976 1429 976 c 2,34,-1
 1435 976 l 2,35,36
 1502 973 1502 973 1582 942 c 0,37,38
 1591 939 1591 939 1595 937 c 0,39,40
 1610 929 1610 929 1637 918 c 0,41,42
 1644 916 1644 916 1648 916 c 0,43,44
 1655 916 1655 916 1663 920 c 0,45,46
 1691 937 1691 937 1702 946 c 0,47,48
 1719 962 1719 962 1741 962 c 0,49,50
 1751 962 1751 962 1760 958 c 0,51,52
 1789 944 1789 944 1784 922 c 2,53,-1
 1783 918 l 1,54,-1
 1449 196 l 2,55,56
 1431 157 1431 157 1425 128 c 0,57,58
 1421 110 1421 110 1421 95 c 0,59,60
 1421 51 1421 51 1459 41 c 0,61,62
 1472 37 1472 37 1488 37 c 0,63,64
 1520 37 1520 37 1562 53 c 0,65,66
 1632 77 1632 77 1694 125 c 0,67,68
 1799 204 1799 204 1892 356 c 0,69,70
 1987 511 1987 511 2030 699 c 0,71,72
 2054 806 2054 806 2054 894 c 0,73,74
 2054 1084 2054 1084 1942 1190 c 0,75,76
 1772 1350 1772 1350 1478 1350 c 0,77,78
 1258 1350 1258 1350 1018 1240 c 0,79,80
 778 1131 778 1131 592 904 c 0,81,82
 404 677 404 677 336 387 c 0,83,84
 309 270 309 270 309 164 c 0,85,86
 309 66 309 66 332 -22 c 0,87,88
 379 -202 379 -202 528 -304 c 0,89,90
 673 -404 673 -404 912 -404 c 0,91,92
 1114 -404 1114 -404 1310 -333 c 0,93,94
 1489 -268 1489 -268 1639 -163 c 0,95,96
 1653 -152 1653 -152 1670 -152 c 0,97,98
 1688 -152 1688 -152 1698 -165 c 0,99,100
 1709 -179 1709 -179 1705 -196 c 0,101,102
 1702 -209 1702 -209 1692 -222 c 0,103,104
 1674 -249 1674 -249 1653 -265 c 0,105,106
 1470 -405 1470 -405 1263 -466 c 128,-1,107
 1056 -527 1056 -527 838 -527 c 0,108,109
 426 -527 426 -527 223 -267 c 0,110,111
 84 -90 84 -90 84 153 c 0,112,113
 84 264 84 264 113 388 c 0,114,115
 217 839 217 839 616 1151 c 0,116,117
 1017 1462 1017 1462 1495 1462 c 0,118,119
 1879 1462 1879 1462 2083 1254 c 0,120,121
 2229 1103 2229 1103 2229 885 c 0,122,123
 2229 799 2229 799 2206 702 c 0,124,125
 2138 408 2138 408 1899 168 c 0,0,1
1202 159 m 1,126,-1
 1481 765 l 1,127,128
 1463 793 1463 793 1415.5 822.5 c 128,-1,129
 1368 852 1368 852 1323 854 c 2,130,-1
 1320 854 l 2,131,132
 1305 854 1305 854 1288 848 c 0,133,134
 1245 835 1245 835 1203 821.5 c 128,-1,135
 1161 808 1161 808 1119 795 c 0,136,137
 1096 787 1096 787 1076 773 c 0,138,139
 988 710 988 710 925 619 c 128,-1,140
 862 528 862 528 828 439 c 0,141,142
 809 393 809 393 800 352 c 0,143,144
 790 309 790 309 790 273 c 0,145,146
 790 241 790 241 798 214 c 0,147,148
 822 130 822 130 898 105 c 0,149,150
 929 95 929 95 963 95 c 0,151,152
 974 95 974 95 986 96 c 0,153,154
 1005 98 1005 98 1038 108 c 0,155,156
 1062 115 1062 115 1119 133 c 128,-1,157
 1176 151 1176 151 1202 159 c 1,126,-1
EndSplineSet
Validated: 1
EndChar

StartChar: A
Encoding: 65 65 36
Width: 1593
GlyphClass: 1
Flags: W
LayerCount: 2
Fore
SplineSet
1569 13 m 0,0,1
 1567 5 1567 5 1562 -1.5 c 128,-1,2
 1557 -8 1557 -8 1553 -11 c 0,3,4
 1542 -20 1542 -20 1527 -20 c 2,5,-1
 1189 -20 l 2,6,7
 1174 -20 1174 -20 1161.5 -10 c 128,-1,8
 1149 0 1149 0 1148 10 c 128,-1,9
 1147 20 1147 20 1149 29 c 0,10,11
 1153 45 1153 45 1173 60 c 0,12,13
 1186 70 1186 70 1195.5 76.5 c 128,-1,14
 1205 83 1205 83 1210 86 c 0,15,16
 1220 94 1220 94 1224 114 c 0,17,18
 1227 125 1227 125 1224 139 c 0,19,20
 1191 304 1191 304 1157 469 c 1,21,-1
 600 469 l 1,22,23
 434 212 434 212 411.5 177.5 c 128,-1,24
 389 143 389 143 379 127 c 2,25,-1
 372 114 l 2,26,27
 368 103 368 103 367 96 c 0,28,29
 363 79 363 79 369.5 68 c 128,-1,30
 376 57 376 57 376.5 45 c 128,-1,31
 377 33 377 33 375.5 27 c 128,-1,32
 374 21 374 21 369 13 c 0,33,34
 361 -1 361 -1 351 -9 c 0,35,36
 337 -20 337 -20 320 -20 c 2,37,-1
 62 -20 l 2,38,39
 45 -20 45 -20 38 -10.5 c 128,-1,40
 31 -1 31 -1 34 13 c 0,41,42
 43 50 43 50 94 70 c 0,43,44
 126 83 126 83 168 100 c 1,45,46
 205 123 205 123 227 154 c 2,47,-1
 1089 1435 l 2,48,49
 1092 1438 1092 1438 1095 1441 c 0,50,51
 1102 1447 1102 1447 1110 1447 c 2,52,-1
 1172 1447 l 2,53,54
 1180 1447 1180 1447 1185 1441 c 0,55,56
 1187 1438 1187 1438 1187 1435 c 2,57,-1
 1245 1146 l 1,58,-1
 1386 442 l 2,59,60
 1445 154 1445 154 1445 154 c 2,61,62
 1451 123 1451 123 1474 103 c 0,63,64
 1501 81 1501 81 1521 72 c 0,65,66
 1553 56 1553 56 1563 42.5 c 128,-1,67
 1573 29 1573 29 1569 13 c 0,0,1
678 590 m 1,68,-1
 1133 590 l 1,69,-1
 1026 1128 l 1,70,-1
 857 866 l 1,71,-1
 678 590 l 1,68,-1
EndSplineSet
Validated: 1
EndChar

StartChar: B
Encoding: 66 66 37
Width: 1240
GlyphClass: 1
Flags: W
LayerCount: 2
Fore
SplineSet
1033 1425 m 2,0,1
 1134 1425 1134 1425 1236 1389 c 0,2,3
 1341 1352 1341 1352 1376 1245 c 0,4,5
 1391 1201 1391 1201 1391 1148 c 0,6,7
 1391 1099 1391 1099 1378 1041 c 0,8,9
 1350 927 1350 927 1265 838 c 0,10,11
 1217 786 1217 786 1145 748 c 1,12,13
 1250 698 1250 698 1286 596 c 0,14,15
 1302 548 1302 548 1302 491 c 0,16,17
 1302 436 1302 436 1287 372 c 0,18,19
 1256 246 1256 246 1163 149 c 0,20,21
 1082 63 1082 63 964.5 21.5 c 128,-1,22
 847 -20 847 -20 756 -20 c 2,23,-1
 129 -20 l 2,24,25
 110 -20 110 -20 101.5 -9 c 128,-1,26
 93 2 93 2 98 21 c 0,27,28
 107 60 107 60 175 83 c 0,29,30
 188 87 188 87 199 95 c 0,31,32
 219 111 219 111 227 146 c 2,33,-1
 483 1258 l 2,34,35
 491 1291 491 1291 479 1308 c 0,36,37
 473 1316 473 1316 461 1320 c 0,38,39
 411 1340 411 1340 411 1373 c 0,40,41
 411 1378 411 1378 412 1383 c 0,42,43
 417 1403 417 1403 430.5 1414 c 128,-1,44
 444 1425 444 1425 463 1425 c 2,45,-1
 1033 1425 l 2,0,1
714 1305 m 1,46,-1
 596 794 l 1,47,-1
 851 794 l 1,48,49
 965 806 965 806 1046 870 c 0,50,51
 1130 937 1130 937 1156 1050 c 0,52,53
 1164 1084 1164 1084 1164 1114 c 0,54,55
 1164 1181 1164 1181 1125 1230 c 0,56,57
 1063 1305 1063 1305 930 1305 c 2,58,-1
 714 1305 l 1,46,-1
923 183 m 0,59,60
 1017 258 1017 258 1046 380 c 0,61,62
 1055 418 1055 418 1055 452 c 0,63,64
 1055 528 1055 528 1012 583 c 0,65,66
 943 667 943 667 794 667 c 2,67,-1
 567 667 l 1,68,-1
 434 93 l 1,69,-1
 640 93 l 2,70,71
 710 93 710 93 786 113.5 c 128,-1,72
 862 134 862 134 923 183 c 0,59,60
EndSplineSet
Validated: 1
EndChar

StartChar: C
Encoding: 67 67 38
Width: 1405
GlyphClass: 1
Flags: W
LayerCount: 2
Fore
SplineSet
835 -57 m 0,0,1
 521 -57 521 -57 324 144 c 0,2,3
 185 287 185 287 185 506 c 0,4,5
 185 597 185 597 209 701 c 0,6,7
 289 1047 289 1047 573.5 1256 c 128,-1,8
 858 1465 858 1465 1186 1465 c 0,9,10
 1303 1465 1303 1465 1429.5 1439 c 128,-1,11
 1556 1413 1556 1413 1658 1336 c 0,12,13
 1666 1330 1666 1330 1664 1319 c 0,14,15
 1664 1318 1664 1318 1627 1212 c 128,-1,16
 1590 1106 1590 1106 1590 1105 c 0,17,18
 1584 1091 1584 1091 1571.5 1081 c 128,-1,19
 1559 1071 1559 1071 1542 1071 c 2,20,-1
 1539 1071 l 2,21,22
 1526 1071 1526 1071 1517.5 1081.5 c 128,-1,23
 1509 1092 1509 1092 1504 1110 c 1,24,25
 1504 1110 1504 1110 1504 1111 c 0,26,27
 1476 1230 1476 1230 1380 1285 c 0,28,29
 1288 1336 1288 1336 1170 1336 c 2,30,-1
 1149 1336 l 1,31,32
 886 1324 886 1324 695 1128 c 0,33,34
 521 950 521 950 472 735 c 0,35,36
 466 711 466 711 464 698.5 c 128,-1,37
 462 686 462 686 462 686 c 2,38,39
 452 625 452 625 452 567 c 0,40,41
 452 412 452 412 526 278 c 0,42,43
 626 96 626 96 869 85 c 0,44,45
 893 84 893 84 913 84 c 0,46,47
 1037 84 1037 84 1124 121 c 0,48,49
 1224 164 1224 164 1316 296 c 0,50,51
 1343 336 1343 336 1376 336 c 0,52,53
 1395 336 1395 336 1404.5 323.5 c 128,-1,54
 1414 311 1414 311 1409 292 c 0,55,56
 1406 280 1406 280 1399 267 c 2,57,-1
 1256 24 l 2,58,59
 1251 16 1251 16 1242 13 c 0,60,61
 1135 -28 1135 -28 1030 -42.5 c 128,-1,62
 925 -57 925 -57 835 -57 c 0,0,1
1399 267 m 1,63,64
 1399 267 1399 267 1399 267 c 1,65,-1
 1399 267 l 1,63,64
EndSplineSet
Validated: 1
EndChar

StartChar: D
Encoding: 68 68 39
Width: 1585
GlyphClass: 1
Flags: W
LayerCount: 2
Fore
SplineSet
1708 792 m 0,0,1
 1702 758 1702 758 1695 727 c 0,2,3
 1656 558 1656 558 1561 422 c 0,4,5
 1448 260 1448 260 1288 155 c 0,6,7
 1016 -23 1016 -23 683 -27 c 1,8,-1
 603 -27 l 2,9,10
 545 -27 545 -27 494 -26 c 2,11,-1
 377 -26 l 2,12,13
 293 -26 293 -26 251 -23 c 2,14,-1
 228 -23 l 2,15,16
 189 -23 189 -23 123 -29 c 0,17,18
 84 -29 84 -29 84 0 c 0,19,20
 84 6 84 6 86 13 c 0,21,22
 95 51 95 51 149 69 c 128,-1,23
 203 87 203 87 215 139 c 2,24,-1
 474 1262 l 2,25,26
 476 1273 476 1273 476 1282 c 0,27,28
 476 1316 476 1316 440 1330 c 0,29,30
 402 1345 402 1345 402 1375 c 0,31,32
 402 1381 402 1381 403 1387 c 0,33,34
 412 1428 412 1428 459 1428 c 0,35,36
 501 1427 501 1427 543 1427 c 128,-1,37
 585 1427 585 1427 629 1428 c 0,38,39
 716 1431 716 1431 799 1433 c 2,40,-1
 858 1433 l 2,41,42
 1012 1433 1012 1433 1166 1425 c 0,43,44
 1351 1414 1351 1414 1488 1349 c 0,45,46
 1618 1285 1618 1285 1682 1154 c 0,47,48
 1722 1074 1722 1074 1722 956 c 0,49,50
 1722 953 1722 953 1722 950 c 0,51,52
 1722 878 1722 878 1708 792 c 0,0,1
723 1297 m 1,53,-1
 451 116 l 1,54,55
 549 97 549 97 659 97 c 0,56,57
 702 97 702 97 744 100 c 0,58,59
 894 111 894 111 1020 171 c 0,60,61
 1170 241 1170 241 1283 388 c 0,62,63
 1386 524 1386 524 1435 736 c 2,64,-1
 1443 769 l 2,65,66
 1460 855 1460 855 1460 925 c 0,67,68
 1460 984 1460 984 1448 1033 c 0,69,70
 1421 1139 1421 1139 1351 1201 c 0,71,72
 1249 1293 1249 1293 1077 1309 c 0,73,74
 1017 1314 1017 1314 954 1314 c 0,75,76
 833 1314 833 1314 723 1297 c 1,53,-1
EndSplineSet
Validated: 1
EndChar

StartChar: E
Encoding: 69 69 40
Width: 1251
GlyphClass: 1
Flags: W
LayerCount: 2
Fore
SplineSet
608 657 m 1,0,-1
 482 114 l 1,1,-1
 889 114 l 2,2,3
 973 114 973 114 1047 179 c 0,4,5
 1127 250 1127 250 1170 290 c 0,6,7
 1189 308 1189 308 1200.5 313.5 c 128,-1,8
 1212 319 1212 319 1220 319 c 0,9,10
 1239 319 1239 319 1247.5 308 c 128,-1,11
 1256 297 1256 297 1252 280 c 128,-1,12
 1248 263 1248 263 1242 252 c 2,13,-1
 1110 -5 l 2,14,15
 1108 -10 1108 -10 1101.5 -15 c 128,-1,16
 1095 -20 1095 -20 1087 -20 c 2,17,-1
 168 -20 l 2,18,19
 151 -20 151 -20 143 -9.5 c 128,-1,20
 135 1 135 1 140 21 c 0,21,22
 149 60 149 60 217 82 c 0,23,24
 230 86 230 86 241 95 c 0,25,26
 261 111 261 111 269 146 c 2,27,-1
 525 1257 l 2,28,29
 533 1292 533 1292 521 1308 c 0,30,31
 515 1316 515 1316 503 1321 c 0,32,33
 453 1340 453 1340 453 1373 c 0,34,35
 453 1378 453 1378 454 1383 c 0,36,37
 459 1403 459 1403 472.5 1414 c 128,-1,38
 486 1425 486 1425 505 1425 c 2,39,-1
 1433 1425 l 2,40,41
 1441 1425 1441 1425 1445.5 1419 c 128,-1,42
 1450 1413 1450 1413 1448 1405 c 2,43,-1
 1389 1147 l 2,44,45
 1385 1128 1385 1128 1371 1117 c 128,-1,46
 1357 1106 1357 1106 1338 1106 c 0,47,48
 1325 1106 1325 1106 1316 1118.5 c 128,-1,49
 1307 1131 1307 1131 1297 1155 c 0,50,51
 1261 1228 1261 1228 1235 1261 c 0,52,53
 1212 1291 1212 1291 1161 1291 c 2,54,-1
 754 1291 l 1,55,-1
 638 788 l 1,56,-1
 847 788 l 2,57,58
 882 788 882 788 903 805 c 0,59,60
 913 813 913 813 921 827 c 0,61,62
 961 891 961 891 1001 891 c 0,63,64
 1019 891 1019 891 1027.5 880 c 128,-1,65
 1036 869 1036 869 1031 850 c 2,66,-1
 973 596 l 2,67,68
 969 577 969 577 955 566 c 128,-1,69
 941 555 941 555 922 555 c 0,70,71
 884 555 884 555 871 618 c 0,72,73
 868 630 868 630 861 638 c 0,74,75
 846 657 846 657 811 657 c 2,76,-1
 608 657 l 1,0,-1
EndSplineSet
Validated: 1
EndChar

StartChar: F
Encoding: 70 70 41
Width: 1139
GlyphClass: 1
Flags: W
LayerCount: 2
Fore
SplineSet
169 -20 m 2,0,1
 133 -20 133 -20 133 7 c 0,2,3
 133 13 133 13 135 21 c 0,4,5
 140 43 140 43 175 62 c 0,6,7
 191 72 191 72 212.5 83.5 c 128,-1,8
 234 95 234 95 248 112 c 0,9,10
 260 128 260 128 264 146 c 2,11,-1
 520 1257 l 2,12,13
 522 1268 522 1268 522 1277 c 0,14,15
 522 1312 522 1312 486 1326 c 0,16,17
 448 1341 448 1341 448 1371 c 0,18,19
 448 1377 448 1377 449 1383 c 0,20,21
 458 1424 458 1424 505 1424 c 2,22,-1
 1458 1424 l 1,23,-1
 1394 1147 l 2,24,25
 1385 1106 1385 1106 1338 1106 c 0,26,27
 1313 1106 1313 1106 1291 1156 c 0,28,29
 1258 1224 1258 1224 1233.5 1257.5 c 128,-1,30
 1209 1291 1209 1291 1161 1291 c 2,31,-1
 759 1291 l 1,32,-1
 643 788 l 1,33,-1
 847 788 l 2,34,35
 876 788 876 788 906 816 c 0,36,37
 928 836 928 836 948 863.5 c 128,-1,38
 968 891 968 891 1001 891 c 0,39,40
 1038 891 1038 891 1038 864 c 0,41,42
 1038 858 1038 858 1036 850 c 2,43,-1
 978 596 l 2,44,45
 969 555 969 555 923 555 c 0,46,47
 888 555 888 555 880 586 c 128,-1,48
 872 617 872 617 858 638 c 0,49,50
 843 658 843 658 817 658 c 2,51,-1
 613 658 l 1,52,-1
 495 146 l 2,53,54
 489 122 489 122 495 106 c 0,55,56
 502 92 502 92 515.5 82 c 128,-1,57
 529 72 529 72 542 63 c 0,58,59
 570 43 570 43 565 21 c 0,60,61
 563 13 563 13 559 5 c 0,62,63
 538 -20 538 -20 510 -20 c 2,64,-1
 169 -20 l 2,0,1
EndSplineSet
Validated: 1
EndChar

StartChar: G
Encoding: 71 71 42
Width: 1563
GlyphClass: 1
Flags: W
LayerCount: 2
Fore
SplineSet
835 -57 m 0,0,1
 521 -57 521 -57 324 144 c 0,2,3
 185 287 185 287 185 506 c 0,4,5
 185 597 185 597 209 701 c 0,6,7
 289 1047 289 1047 573.5 1256 c 128,-1,8
 858 1465 858 1465 1186 1465 c 0,9,10
 1303 1465 1303 1465 1429.5 1439 c 128,-1,11
 1556 1413 1556 1413 1658 1336 c 0,12,13
 1666 1330 1666 1330 1664 1319 c 0,14,15
 1664 1318 1664 1318 1627 1212 c 128,-1,16
 1590 1106 1590 1106 1590 1105 c 0,17,18
 1584 1091 1584 1091 1571.5 1081 c 128,-1,19
 1559 1071 1559 1071 1542 1071 c 2,20,-1
 1539 1071 l 2,21,22
 1526 1071 1526 1071 1518 1082 c 0,23,24
 1509 1094 1509 1094 1504 1111 c 0,25,26
 1473 1244 1473 1244 1393 1286 c 0,27,28
 1311 1330 1311 1330 1155 1330 c 0,29,30
 940 1330 940 1330 736 1180 c 0,31,32
 535 1031 535 1031 459 701 c 0,33,34
 444 637 444 637 444 574 c 0,35,36
 444 430 444 430 522 292 c 0,37,38
 634 96 634 96 869 85 c 0,39,40
 893 84 893 84 913 84 c 0,41,42
 1023 84 1023 84 1105 113 c 0,43,44
 1198 146 1198 146 1279 245 c 1,45,-1
 1321 427 l 2,46,47
 1324 447 1324 447 1306 458 c 0,48,49
 1283 472 1283 472 1237 493 c 0,50,51
 1206 507 1206 507 1194.5 522 c 128,-1,52
 1183 537 1183 537 1187 555 c 128,-1,53
 1191 573 1191 573 1204.5 584 c 128,-1,54
 1218 595 1218 595 1237 595 c 2,55,-1
 1638 595 l 2,56,57
 1657 595 1657 595 1665.5 584 c 128,-1,58
 1674 573 1674 573 1670 553 c 0,59,60
 1661 514 1661 514 1592 491 c 0,61,62
 1579 487 1579 487 1569 479 c 0,63,64
 1549 463 1549 463 1541 428 c 2,65,-1
 1451 39 l 2,66,67
 1449 31 1449 31 1442 25 c 128,-1,68
 1435 19 1435 19 1427 19 c 0,69,70
 1273 12 1273 12 1125 -23 c 0,71,72
 1048 -42 1048 -42 974.5 -49.5 c 128,-1,73
 901 -57 901 -57 835 -57 c 0,0,1
EndSplineSet
Validated: 1
EndChar

StartChar: H
Encoding: 72 72 43
Width: 1638
GlyphClass: 1
Flags: W
LayerCount: 2
Fore
SplineSet
1772 1256 m 2,0,-1
 1516 147 l 2,1,2
 1508 111 1508 111 1521 94 c 0,3,4
 1527 86 1527 86 1538 82 c 0,5,6
 1588 63 1588 63 1588 31 c 0,7,8
 1588 26 1588 26 1587 21 c 0,9,10
 1583 2 1583 2 1569 -9 c 128,-1,11
 1555 -20 1555 -20 1536 -20 c 2,12,-1
 1197 -20 l 2,13,14
 1179 -20 1179 -20 1170.5 -9 c 128,-1,15
 1162 2 1162 2 1167 21 c 0,16,17
 1176 60 1176 60 1244 82 c 0,18,19
 1257 86 1257 86 1268 95 c 0,20,21
 1288 111 1288 111 1296 146 c 2,22,-1
 1419 680 l 1,23,-1
 612 680 l 1,24,-1
 489 147 l 2,25,26
 481 111 481 111 494 94 c 0,27,28
 500 86 500 86 511 82 c 0,29,30
 561 63 561 63 561 31 c 0,31,32
 561 26 561 26 560 21 c 0,33,34
 556 2 556 2 542 -9 c 128,-1,35
 528 -20 528 -20 509 -20 c 2,36,-1
 170 -20 l 2,37,38
 152 -20 152 -20 143.5 -9 c 128,-1,39
 135 2 135 2 140 21 c 0,40,41
 149 60 149 60 217 82 c 0,42,43
 230 86 230 86 241 95 c 0,44,45
 261 111 261 111 269 146 c 2,46,-1
 525 1256 l 2,47,48
 533 1291 533 1291 521 1307 c 0,49,50
 515 1315 515 1315 503 1320 c 0,51,52
 453 1339 453 1339 453 1372 c 0,53,54
 453 1377 453 1377 454 1382 c 0,55,56
 459 1402 459 1402 472.5 1413 c 128,-1,57
 486 1424 486 1424 505 1424 c 2,58,-1
 843 1424 l 2,59,60
 862 1424 862 1424 870.5 1413 c 128,-1,61
 879 1402 879 1402 874 1382 c 0,62,63
 865 1342 865 1342 797 1320 c 0,64,65
 784 1316 784 1316 773 1307 c 0,66,67
 753 1291 753 1291 745 1256 c 2,68,-1
 641 807 l 1,69,-1
 1448 807 l 1,70,-1
 1552 1256 l 2,71,72
 1560 1291 1560 1291 1548 1307 c 0,73,74
 1542 1315 1542 1315 1530 1320 c 0,75,76
 1480 1339 1480 1339 1480 1372 c 0,77,78
 1480 1377 1480 1377 1481 1382 c 0,79,80
 1486 1402 1486 1402 1499.5 1413 c 128,-1,81
 1513 1424 1513 1424 1532 1424 c 2,82,-1
 1870 1424 l 2,83,84
 1889 1424 1889 1424 1897.5 1413 c 128,-1,85
 1906 1402 1906 1402 1901 1382 c 0,86,87
 1892 1342 1892 1342 1824 1320 c 0,88,89
 1811 1316 1811 1316 1800 1307 c 0,90,91
 1780 1291 1780 1291 1772 1256 c 2,0,-1
EndSplineSet
Validated: 1
EndChar

StartChar: I
Encoding: 73 73 44
Width: 690
GlyphClass: 1
Flags: W
LayerCount: 2
Fore
SplineSet
745 1256 m 2,0,-1
 489 147 l 2,1,2
 481 111 481 111 494 94 c 0,3,4
 500 86 500 86 511 82 c 0,5,6
 561 63 561 63 561 31 c 0,7,8
 561 26 561 26 560 21 c 0,9,10
 556 2 556 2 542 -9 c 128,-1,11
 528 -20 528 -20 509 -20 c 2,12,-1
 170 -20 l 2,13,14
 152 -20 152 -20 143.5 -9 c 128,-1,15
 135 2 135 2 140 21 c 0,16,17
 149 60 149 60 217 82 c 0,18,19
 230 86 230 86 241 95 c 0,20,21
 261 111 261 111 269 146 c 2,22,-1
 525 1256 l 2,23,24
 533 1291 533 1291 521 1307 c 0,25,26
 515 1315 515 1315 503 1320 c 0,27,28
 453 1339 453 1339 453 1372 c 0,29,30
 453 1377 453 1377 454 1382 c 0,31,32
 459 1402 459 1402 472.5 1413 c 128,-1,33
 486 1424 486 1424 505 1424 c 2,34,-1
 843 1424 l 2,35,36
 862 1424 862 1424 870.5 1413 c 128,-1,37
 879 1402 879 1402 874 1382 c 0,38,39
 865 1342 865 1342 797 1320 c 0,40,41
 784 1316 784 1316 773 1307 c 0,42,43
 753 1291 753 1291 745 1256 c 2,0,-1
EndSplineSet
Validated: 1
EndChar

StartChar: J
Encoding: 74 74 45
Width: 682
GlyphClass: 1
Flags: W
LayerCount: 2
Fore
SplineSet
492 180 m 2,0,1
 446 -20 446 -20 395 -119 c 0,2,3
 342 -223 342 -223 254 -295 c 0,4,5
 141 -387 141 -387 18 -418 c 0,6,7
 15 -419 15 -419 12 -419 c 0,8,9
 4 -419 4 -419 0 -413 c 128,-1,10
 -4 -407 -4 -407 -2 -399 c 2,11,-1
 9 -349 l 2,12,13
 12 -338 12 -338 23 -332 c 0,14,15
 65 -309 65 -309 105 -275 c 0,16,17
 144 -240 144 -240 175 -183 c 0,18,19
 196 -144 196 -144 212 -74 c 2,20,-1
 519 1258 l 2,21,22
 527 1292 527 1292 515 1309 c 0,23,24
 509 1317 509 1317 497 1321 c 0,25,26
 448 1341 448 1341 448 1373 c 0,27,28
 448 1379 448 1379 449 1384 c 0,29,30
 453 1403 453 1403 466.5 1414 c 128,-1,31
 480 1425 480 1425 499 1425 c 2,32,-1
 838 1425 l 2,33,34
 857 1425 857 1425 865.5 1414 c 128,-1,35
 874 1403 874 1403 869 1383 c 0,36,37
 860 1344 860 1344 792 1321 c 0,38,39
 779 1317 779 1317 768 1309 c 0,40,41
 748 1293 748 1293 740 1258 c 2,42,-1
 492 180 l 2,0,1
EndSplineSet
Validated: 1
EndChar

StartChar: K
Encoding: 75 75 46
Width: 1487
GlyphClass: 1
Flags: W
LayerCount: 2
Fore
SplineSet
1482 1425 m 0,0,1
 1510 1425 1510 1425 1533 1412 c 0,2,3
 1628 1360 1628 1360 1628 1359 c 0,4,5
 1651 1343 1651 1343 1646 1322 c 0,6,7
 1643 1309 1643 1309 1637 1298 c 2,8,-1
 1551 1152 l 2,9,10
 1548 1148 1548 1148 1544 1145 c 0,11,12
 1537 1139 1537 1139 1531.5 1139 c 128,-1,13
 1526 1139 1526 1139 1521 1141 c 2,14,-1
 1459 1170 l 2,15,16
 1428 1184 1428 1184 1389 1184 c 0,17,18
 1355 1184 1355 1184 1314 1151 c 2,19,-1
 838 772 l 1,20,-1
 1418 92 l 2,21,22
 1432 74 1432 74 1447.5 66 c 128,-1,23
 1463 58 1463 58 1470 50 c 0,24,25
 1480 37 1480 37 1475.5 19.5 c 128,-1,26
 1471 2 1471 2 1457.5 -9 c 128,-1,27
 1444 -20 1444 -20 1426 -20 c 2,28,-1
 1087 -20 l 2,29,30
 1068 -20 1068 -20 1059.5 -9 c 128,-1,31
 1051 2 1051 2 1056 21 c 0,32,33
 1060 37 1060 37 1086 57 c 0,34,35
 1091 61 1091 61 1092 64 c 0,36,37
 1095 75 1095 75 1075 96 c 2,38,-1
 815 400 l 1,39,-1
 605 648 l 1,40,-1
 489 147 l 2,41,42
 481 111 481 111 494 94 c 0,43,44
 500 86 500 86 511 82 c 0,45,46
 561 63 561 63 561 31 c 0,47,48
 561 26 561 26 560 21 c 0,49,50
 556 2 556 2 542 -9 c 128,-1,51
 528 -20 528 -20 509 -20 c 2,52,-1
 170 -20 l 2,53,54
 152 -20 152 -20 143.5 -9 c 128,-1,55
 135 2 135 2 140 21 c 0,56,57
 149 60 149 60 217 82 c 0,58,59
 230 86 230 86 241 95 c 0,60,61
 261 111 261 111 269 146 c 2,62,-1
 525 1256 l 2,63,64
 533 1291 533 1291 521 1307 c 0,65,66
 515 1315 515 1315 503 1320 c 0,67,68
 453 1339 453 1339 453 1372 c 0,69,70
 453 1377 453 1377 454 1382 c 0,71,72
 459 1402 459 1402 472.5 1413 c 128,-1,73
 486 1424 486 1424 505 1424 c 2,74,-1
 843 1424 l 2,75,76
 862 1424 862 1424 870.5 1413 c 128,-1,77
 879 1402 879 1402 874 1382 c 0,78,79
 865 1342 865 1342 797 1320 c 0,80,81
 784 1316 784 1316 773 1307 c 0,82,83
 753 1291 753 1291 745 1256 c 2,84,-1
 638 793 l 1,85,-1
 1234 1256 l 2,86,87
 1349 1345 1349 1345 1384 1374 c 0,88,89
 1417 1401 1417 1401 1441 1413 c 128,-1,90
 1465 1425 1465 1425 1482 1425 c 0,0,1
EndSplineSet
Validated: 1
EndChar

StartChar: L
Encoding: 76 76 47
Width: 1251
GlyphClass: 1
Flags: W
LayerCount: 2
Fore
SplineSet
1220 319 m 0,0,1
 1239 319 1239 319 1247.5 308 c 128,-1,2
 1256 297 1256 297 1252 280 c 128,-1,3
 1248 263 1248 263 1242 252 c 2,4,-1
 1110 -5 l 2,5,6
 1108 -10 1108 -10 1101.5 -15 c 128,-1,7
 1095 -20 1095 -20 1087 -20 c 2,8,-1
 171 -20 l 2,9,10
 152 -20 152 -20 143.5 -9 c 128,-1,11
 135 2 135 2 140 21 c 0,12,13
 149 60 149 60 217 82 c 0,14,15
 230 86 230 86 241 95 c 0,16,17
 261 111 261 111 269 146 c 2,18,-1
 525 1257 l 2,19,20
 533 1291 533 1291 521 1308 c 0,21,22
 515 1316 515 1316 503 1320 c 0,23,24
 453 1340 453 1340 453 1373 c 0,25,26
 453 1378 453 1378 454 1383 c 0,27,28
 459 1403 459 1403 472.5 1414 c 128,-1,29
 486 1425 486 1425 505 1425 c 2,30,-1
 844 1425 l 2,31,32
 862 1425 862 1425 870.5 1414 c 128,-1,33
 879 1403 879 1403 874 1383 c 0,34,35
 865 1343 865 1343 797 1320 c 0,36,37
 784 1316 784 1316 773 1308 c 0,38,39
 753 1292 753 1292 745 1257 c 2,40,-1
 482 114 l 1,41,-1
 889 114 l 2,42,43
 973 114 973 114 1047 179 c 0,44,45
 1127 250 1127 250 1170 290 c 0,46,47
 1189 308 1189 308 1200.5 313.5 c 128,-1,48
 1212 319 1212 319 1220 319 c 0,0,1
EndSplineSet
Validated: 1
EndChar

StartChar: M
Encoding: 77 77 48
Width: 1908
GlyphClass: 1
Flags: W
LayerCount: 2
Fore
SplineSet
2007 1257 m 2,0,-1
 1751 146 l 2,1,2
 1743 111 1743 111 1755 95 c 0,3,4
 1761 87 1761 87 1773 82 c 0,5,6
 1824 63 1824 63 1824 31 c 0,7,8
 1824 26 1824 26 1823 21 c 0,9,10
 1819 2 1819 2 1805 -9 c 128,-1,11
 1791 -20 1791 -20 1772 -20 c 2,12,-1
 1433 -20 l 2,13,14
 1414 -20 1414 -20 1405.5 -9 c 128,-1,15
 1397 2 1397 2 1402 21 c 0,16,17
 1411 60 1411 60 1479 82 c 0,18,19
 1492 86 1492 86 1503 95 c 0,20,21
 1523 111 1523 111 1531 146 c 2,22,-1
 1757 1126 l 1,23,-1
 949 -38 l 2,24,25
 947 -41 947 -41 944 -44 c 0,26,27
 937 -50 937 -50 928 -50 c 2,28,-1
 889 -50 l 2,29,30
 881 -50 881 -50 877 -44 c 0,31,32
 875 -42 875 -42 874 -39 c 2,33,-1
 600 1081 l 1,34,-1
 384 146 l 2,35,36
 376 111 376 111 388 95 c 0,37,38
 394 87 394 87 406 82 c 0,39,40
 456 63 456 63 456 31 c 0,41,42
 456 26 456 26 455 21 c 0,43,44
 451 2 451 2 437 -9 c 128,-1,45
 423 -20 423 -20 404 -20 c 2,46,-1
 150 -20 l 2,47,48
 131 -20 131 -20 122.5 -9 c 128,-1,49
 114 2 114 2 119 21 c 0,50,51
 128 60 128 60 196 82 c 0,52,53
 209 86 209 86 220 95 c 0,54,55
 240 111 240 111 248 146 c 2,56,-1
 504 1257 l 2,57,58
 512 1291 512 1291 500 1308 c 0,59,60
 494 1316 494 1316 482 1320 c 0,61,62
 432 1340 432 1340 432 1373 c 0,63,64
 432 1378 432 1378 433 1383 c 0,65,66
 438 1403 438 1403 451.5 1414 c 128,-1,67
 465 1425 465 1425 484 1425 c 2,68,-1
 750 1425 l 2,69,70
 758 1425 758 1425 763 1419 c 0,71,72
 765 1417 765 1417 765 1414 c 2,73,-1
 1044 328 l 1,74,-1
 1806 1414 l 2,75,76
 1808 1417 1808 1417 1812 1419 c 0,77,78
 1819 1425 1819 1425 1827 1425 c 2,79,-1
 2106 1425 l 2,80,81
 2125 1425 2125 1425 2133.5 1414 c 128,-1,82
 2142 1403 2142 1403 2137 1383 c 0,83,84
 2128 1343 2128 1343 2059 1320 c 0,85,86
 2045 1315 2045 1315 2035 1308 c 0,87,88
 2015 1291 2015 1291 2007 1257 c 2,0,-1
EndSplineSet
Validated: 1
EndChar

StartChar: N
Encoding: 78 78 49
Width: 1644
GlyphClass: 1
Flags: W
LayerCount: 2
Fore
SplineSet
406 82 m 0,0,1
 456 63 456 63 456 31 c 0,2,3
 456 26 456 26 455 21 c 0,4,5
 451 2 451 2 437 -9 c 128,-1,6
 423 -20 423 -20 404 -20 c 2,7,-1
 150 -20 l 2,8,9
 131 -20 131 -20 122.5 -9 c 128,-1,10
 114 2 114 2 119 21 c 0,11,12
 128 60 128 60 196 82 c 0,13,14
 209 86 209 86 220 95 c 0,15,16
 240 111 240 111 248 146 c 2,17,-1
 504 1257 l 2,18,19
 512 1291 512 1291 500 1308 c 0,20,21
 494 1316 494 1316 482 1320 c 0,22,23
 432 1340 432 1340 432 1373 c 0,24,25
 432 1378 432 1378 433 1383 c 0,26,27
 438 1403 438 1403 451.5 1414 c 128,-1,28
 465 1425 465 1425 484 1425 c 2,29,-1
 741 1425 l 2,30,31
 751 1425 751 1425 755 1417 c 2,32,-1
 1409 260 l 1,33,-1
 1639 1257 l 2,34,35
 1647 1292 1647 1292 1635 1308 c 0,36,37
 1629 1316 1629 1316 1618 1320 c 0,38,39
 1568 1340 1568 1340 1568 1373 c 0,40,41
 1568 1378 1568 1378 1569 1383 c 0,42,43
 1574 1403 1574 1403 1587.5 1414 c 128,-1,44
 1601 1425 1601 1425 1619 1425 c 2,45,-1
 1874 1425 l 2,46,47
 1893 1425 1893 1425 1901.5 1414 c 128,-1,48
 1910 1403 1910 1403 1905 1383 c 0,49,50
 1896 1343 1896 1343 1828 1320 c 0,51,52
 1815 1316 1815 1316 1804 1308 c 0,53,54
 1784 1292 1784 1292 1776 1257 c 0,55,56
 1475 -43 1475 -43 1475 -43 c 2,57,58
 1473 -51 1473 -51 1465.5 -57 c 128,-1,59
 1458 -63 1458 -63 1451 -63 c 0,60,61
 1448 -63 1448 -63 1446 -62 c 2,62,-1
 1279 -19 l 2,63,64
 1272 -17 1272 -17 1269 -13 c 2,65,-1
 611 1132 l 1,66,-1
 384 146 l 2,67,68
 376 111 376 111 388 95 c 0,69,70
 395 86 395 86 406 82 c 0,0,1
EndSplineSet
Validated: 1
EndChar

StartChar: O
Encoding: 79 79 50
Width: 1610
GlyphClass: 1
Flags: W
LayerCount: 2
Fore
SplineSet
1156 1466 m 2,0,1
 1487 1466 1487 1466 1668 1263 c 0,2,3
 1787 1129 1787 1129 1787 937 c 0,4,5
 1787 854 1787 854 1765 760 c 0,6,7
 1759 732 1759 732 1751 704 c 0,8,9
 1649 352 1649 352 1380 157 c 128,-1,10
 1111 -38 1111 -38 794 -55 c 0,11,12
 770 -56 770 -56 747 -56 c 0,13,14
 461 -56 461 -56 288 141 c 0,15,16
 160 284 160 284 160 490 c 0,17,18
 160 574 160 574 182 669 c 0,19,20
 186 688 186 688 192 706 c 0,21,22
 285 1055 285 1055 546.5 1258.5 c 128,-1,23
 808 1462 808 1462 1146 1466 c 1,24,-1
 1156 1466 l 2,0,1
439 702 m 0,25,26
 417 606 417 606 417 520 c 0,27,28
 417 371 417 371 484 252 c 0,29,30
 589 68 589 68 823 66 c 2,31,-1
 828 66 l 2,32,33
 1057 66 1057 66 1250 262 c 0,34,35
 1443 459 1443 459 1499 696 c 0,36,37
 1500 699 1500 699 1500 700.5 c 128,-1,38
 1500 702 1500 702 1500 702 c 1,39,40
 1522 801 1522 801 1522 892 c 0,41,42
 1522 1026 1522 1026 1475 1144 c 0,43,44
 1398 1338 1398 1338 1117 1338 c 0,45,46
 821 1337 821 1337 662 1154 c 0,47,48
 500 966 500 966 439 702 c 0,25,26
EndSplineSet
Validated: 1
EndChar

StartChar: P
Encoding: 80 80 51
Width: 1237
GlyphClass: 1
Flags: W
LayerCount: 2
Fore
SplineSet
468 146 m 2,0,1
 460 111 460 111 472 95 c 0,2,3
 478 87 478 87 490 82 c 0,4,5
 540 63 540 63 540 31 c 0,6,7
 540 26 540 26 539 21 c 0,8,9
 535 2 535 2 521 -9 c 128,-1,10
 507 -20 507 -20 489 -20 c 2,11,-1
 150 -20 l 2,12,13
 131 -20 131 -20 122.5 -9 c 128,-1,14
 114 2 114 2 119 21 c 0,15,16
 128 60 128 60 196 82 c 0,17,18
 209 86 209 86 220 95 c 0,19,20
 240 111 240 111 248 146 c 2,21,-1
 504 1257 l 2,22,23
 512 1291 512 1291 500 1308 c 0,24,25
 494 1316 494 1316 482 1320 c 0,26,27
 432 1340 432 1340 432 1373 c 0,28,29
 432 1378 432 1378 433 1383 c 0,30,31
 438 1403 438 1403 451.5 1414 c 128,-1,32
 465 1425 465 1425 484 1425 c 2,33,-1
 1074 1425 l 2,34,35
 1180 1425 1180 1425 1286 1387 c 0,36,37
 1396 1348 1396 1348 1435 1236 c 0,38,39
 1451 1189 1451 1189 1451 1134 c 0,40,41
 1451 1082 1451 1082 1437 1022 c 0,42,43
 1408 903 1408 903 1319 808 c 0,44,45
 1242 726 1242 726 1129 686.5 c 128,-1,46
 1016 647 1016 647 930 647 c 2,47,-1
 583 647 l 1,48,-1
 468 146 l 2,0,1
609 757 m 1,49,-1
 821 757 l 2,50,51
 887 757 887 757 959 776 c 128,-1,52
 1031 795 1031 795 1088 842 c 0,53,54
 1179 914 1179 914 1206 1032 c 0,55,56
 1214 1067 1214 1067 1214 1098 c 0,57,58
 1214 1169 1214 1169 1173 1222 c 0,59,60
 1108 1301 1108 1301 966 1301 c 2,61,-1
 734 1301 l 1,62,-1
 609 757 l 1,49,-1
EndSplineSet
Validated: 1
EndChar

StartChar: Q
Encoding: 81 81 52
Width: 1610
GlyphClass: 1
Flags: W
LayerCount: 2
Fore
SplineSet
439 702 m 0,0,1
 417 606 417 606 417 520 c 0,2,3
 417 371 417 371 484 252 c 0,4,5
 589 68 589 68 823 66 c 2,6,-1
 828 66 l 2,7,8
 1057 66 1057 66 1250 262 c 0,9,10
 1443 459 1443 459 1499 696 c 0,11,12
 1499 698 1499 698 1500 700 c 2,13,-1
 1500 702 l 1,14,15
 1522 801 1522 801 1522 892 c 0,16,17
 1522 1026 1522 1026 1475 1144 c 0,18,19
 1398 1338 1398 1338 1117 1338 c 0,20,21
 821 1337 821 1337 662 1154 c 0,22,23
 500 966 500 966 439 702 c 0,0,1
1156 1466 m 2,24,25
 1487 1466 1487 1466 1668 1263 c 0,26,27
 1787 1129 1787 1129 1787 937 c 0,28,29
 1787 854 1787 854 1765 760 c 0,30,31
 1759 732 1759 732 1751 704 c 0,32,33
 1650 352 1650 352 1380 157 c 0,34,35
 1164 0 1164 0 917 -41 c 1,36,37
 1021 -79 1021 -79 1197 -155 c 0,38,39
 1211 -161 1211 -161 1239 -161 c 0,40,41
 1284 -161 1284 -161 1367 -145 c 0,42,43
 1369 -145 1369 -145 1371 -145 c 0,44,45
 1379 -145 1379 -145 1383.5 -151 c 128,-1,46
 1388 -157 1388 -157 1386 -165 c 2,47,-1
 1374 -215 l 2,48,49
 1371 -227 1371 -227 1360 -232 c 0,50,51
 1254 -286 1254 -286 1200 -334 c 0,52,53
 1192 -341 1192 -341 1184 -340 c 0,54,55
 1183 -340 1183 -340 1181 -340 c 0,56,57
 1059 -324 1059 -324 877 -241 c 0,58,59
 778 -196 778 -196 721.5 -178.5 c 128,-1,60
 665 -161 665 -161 638 -161 c 0,61,62
 626 -161 626 -161 589.5 -176 c 128,-1,63
 553 -191 553 -191 482 -232 c 0,64,65
 475 -236 475 -236 469 -236 c 128,-1,66
 463 -236 463 -236 458.5 -229.5 c 128,-1,67
 454 -223 454 -223 455 -215 c 2,68,-1
 470 -152 l 2,69,70
 473 -141 473 -141 483 -135 c 0,71,72
 579 -81 579 -81 644 -49 c 1,73,74
 429 -19 429 -19 288 141 c 0,75,76
 160 284 160 284 160 490 c 0,77,78
 160 574 160 574 182 669 c 0,79,80
 186 688 186 688 192 706 c 0,81,82
 285 1055 285 1055 546.5 1258.5 c 128,-1,83
 808 1462 808 1462 1146 1466 c 1,84,-1
 1156 1466 l 2,24,25
EndSplineSet
Validated: 1
EndChar

StartChar: R
Encoding: 82 82 53
Width: 1368
GlyphClass: 1
Flags: W
LayerCount: 2
Fore
SplineSet
609 757 m 1,0,-1
 821 757 l 2,1,2
 887 757 887 757 959 776 c 128,-1,3
 1031 795 1031 795 1088 842 c 0,4,5
 1179 914 1179 914 1206 1032 c 0,6,7
 1214 1067 1214 1067 1214 1098 c 0,8,9
 1214 1169 1214 1169 1173 1222 c 0,10,11
 1108 1301 1108 1301 966 1301 c 2,12,-1
 734 1301 l 1,13,-1
 609 757 l 1,0,-1
1390 24 m 2,14,-1
 1389 21 l 2,15,16
 1389 20 1389 20 1388 18 c 0,17,18
 1382 1 1382 1 1368.5 -9.5 c 128,-1,19
 1355 -20 1355 -20 1338 -20 c 2,20,-1
 1071 -20 l 2,21,22
 1063 -20 1063 -20 1058.5 -16 c 128,-1,23
 1054 -12 1054 -12 1050 -6 c 0,24,25
 1024 28 1024 28 913 252 c 2,26,-1
 804 473 l 2,27,28
 752 580 752 580 713 647 c 1,29,-1
 583 647 l 1,30,-1
 468 146 l 2,31,32
 460 111 460 111 472 95 c 0,33,34
 478 87 478 87 490 82 c 0,35,36
 540 63 540 63 540 31 c 0,37,38
 540 26 540 26 539 21 c 0,39,40
 535 2 535 2 521 -9 c 128,-1,41
 507 -20 507 -20 489 -20 c 2,42,-1
 150 -20 l 2,43,44
 131 -20 131 -20 122.5 -9 c 128,-1,45
 114 2 114 2 119 21 c 0,46,47
 128 60 128 60 196 82 c 0,48,49
 209 86 209 86 220 95 c 0,50,51
 240 111 240 111 248 146 c 2,52,-1
 504 1257 l 2,53,54
 512 1291 512 1291 500 1308 c 0,55,56
 494 1316 494 1316 482 1320 c 0,57,58
 432 1340 432 1340 432 1373 c 0,59,60
 432 1378 432 1378 433 1383 c 0,61,62
 438 1403 438 1403 451.5 1414 c 128,-1,63
 465 1425 465 1425 484 1425 c 2,64,-1
 1074 1425 l 2,65,66
 1180 1425 1180 1425 1286 1387 c 0,67,68
 1396 1348 1396 1348 1435 1236 c 0,69,70
 1451 1189 1451 1189 1451 1134 c 0,71,72
 1451 1082 1451 1082 1437 1022 c 0,73,74
 1408 903 1408 903 1318 807 c 0,75,76
 1247 731 1247 731 1145 692 c 0,77,78
 1066 661 1066 661 996 651 c 1,79,-1
 1297 86 l 1,80,81
 1316 68 1316 68 1353 65 c 0,82,83
 1376 62 1376 62 1385 51 c 128,-1,84
 1394 40 1394 40 1390 24 c 2,14,-1
EndSplineSet
Validated: 1
EndChar

StartChar: S
Encoding: 83 83 54
Width: 1075
GlyphClass: 1
Flags: W
LayerCount: 2
Fore
SplineSet
106 257 m 2,0,1
 105 265 105 265 108 277.5 c 128,-1,2
 111 290 111 290 126 306 c 0,3,4
 144 327 144 327 167 327 c 0,5,6
 179 327 179 327 188 316 c 0,7,8
 197 304 197 304 201 286 c 0,9,10
 231 153 231 153 304 114 c 0,11,12
 379 73 379 73 498 73 c 0,13,14
 523 73 523 73 576 76.5 c 128,-1,15
 629 80 629 80 709 115 c 0,16,17
 787 150 787 150 845 219 c 128,-1,18
 903 288 903 288 927 388 c 1,19,-1
 929 399 l 2,20,21
 934 425 934 425 934 447 c 0,22,23
 934 515 934 515 887 556 c 0,24,25
 858 582 858 582 785.5 603.5 c 128,-1,26
 713 625 713 625 604.5 637 c 128,-1,27
 496 649 496 649 410 696 c 0,28,29
 320 744 320 744 294 830 c 0,30,31
 280 876 280 876 280 927 c 0,32,33
 280 971 280 971 291 1018 c 0,34,35
 336 1215 336 1215 504 1342 c 128,-1,36
 672 1469 672 1469 884 1469 c 2,37,-1
 914 1469 l 1,38,39
 914 1469 914 1469 915 1469 c 0,40,41
 1141 1459 1141 1459 1278 1355 c 0,42,43
 1286 1349 1286 1349 1283 1338 c 0,44,45
 1283 1337 1283 1337 1210 1126 c 0,46,47
 1204 1110 1204 1110 1192 1100 c 128,-1,48
 1180 1090 1180 1090 1163 1090 c 2,49,-1
 1159 1090 l 2,50,51
 1134 1090 1134 1090 1125 1130 c 0,52,53
 1104 1216 1104 1216 1040 1275.5 c 128,-1,54
 976 1335 976 1335 889 1339 c 1,55,-1
 873 1339 l 2,56,57
 786 1339 786 1339 725 1313 c 0,58,59
 662 1286 662 1286 631.5 1259.5 c 128,-1,60
 601 1233 601 1233 576 1198.5 c 128,-1,61
 551 1164 551 1164 535 1128.5 c 128,-1,62
 519 1093 519 1093 512 1062 c 128,-1,63
 505 1031 505 1031 509 1001 c 1,64,65
 509 1001 509 1001 509 1000 c 0,66,67
 514 939 514 939 548 909.5 c 128,-1,68
 582 880 582 880 613 872 c 128,-1,69
 644 864 644 864 679 857 c 0,70,71
 733 847 733 847 866 826 c 0,72,73
 929 816 929 816 1004 792 c 0,74,75
 1085 765 1085 765 1118 714 c 0,76,77
 1152 664 1152 664 1164 603 c 0,78,79
 1169 579 1169 579 1168 551 c 0,80,81
 1168 509 1168 509 1157 459 c 0,82,83
 1104 230 1104 230 889 87 c 0,84,85
 779 14 779 14 670.5 -19 c 128,-1,86
 562 -52 562 -52 498.5 -55.5 c 128,-1,87
 435 -59 435 -59 413 -59 c 0,88,89
 271 -59 271 -59 151 -19 c 0,90,91
 142 -16 142 -16 140 -7 c 2,92,-1
 106 257 l 2,0,1
EndSplineSet
Validated: 1
EndChar

StartChar: T
Encoding: 84 84 55
Width: 1255
GlyphClass: 1
Flags: W
LayerCount: 2
Fore
SplineSet
1030 1256 m 2,0,-1
 774 147 l 2,1,2
 766 111 766 111 779 94 c 0,3,4
 785 86 785 86 796 82 c 0,5,6
 846 63 846 63 846 31 c 0,7,8
 846 26 846 26 845 21 c 0,9,10
 841 2 841 2 827 -9 c 128,-1,11
 813 -20 813 -20 794 -20 c 2,12,-1
 455 -20 l 2,13,14
 437 -20 437 -20 428.5 -9 c 128,-1,15
 420 2 420 2 425 21 c 0,16,17
 434 60 434 60 502 82 c 0,18,19
 515 86 515 86 526 95 c 0,20,21
 546 111 546 111 554 146 c 2,22,-1
 810 1256 l 2,23,24
 814 1273 814 1273 813 1286 c 1,25,-1
 583 1286 l 2,26,27
 531 1286 531 1286 492 1254 c 0,28,29
 440 1211 440 1211 382 1150 c 0,30,31
 359 1126 359 1126 349.5 1117 c 128,-1,32
 340 1108 340 1108 332.5 1104.5 c 128,-1,33
 325 1101 325 1101 318 1101 c 0,34,35
 299 1101 299 1101 290.5 1112 c 128,-1,36
 282 1123 282 1123 287 1142 c 2,37,-1
 330 1328 l 2,38,39
 345 1393 345 1393 377 1410 c 0,40,41
 403 1425 403 1425 486 1425 c 2,42,-1
 1430 1425 l 2,43,44
 1477 1425 1477 1425 1502.5 1422 c 128,-1,45
 1528 1419 1528 1419 1536 1412 c 0,46,47
 1548 1403 1548 1403 1548 1378 c 0,48,49
 1549 1359 1549 1359 1542 1328 c 2,50,-1
 1499 1142 l 2,51,52
 1495 1123 1495 1123 1481 1112 c 128,-1,53
 1467 1101 1467 1101 1448 1101 c 0,54,55
 1436 1101 1436 1101 1426.5 1113.5 c 128,-1,56
 1417 1126 1417 1126 1405 1149 c 0,57,58
 1368 1223 1368 1223 1343 1256 c 0,59,60
 1320 1286 1320 1286 1269 1286 c 2,61,-1
 1041 1286 l 1,62,63
 1034 1273 1034 1273 1030 1256 c 2,0,-1
EndSplineSet
Validated: 1
EndChar

StartChar: U
Encoding: 85 85 56
Width: 1554
GlyphClass: 1
Flags: W
LayerCount: 2
Fore
SplineSet
350 588 m 2,0,-1
 504 1258 l 2,1,2
 512 1292 512 1292 500 1309 c 0,3,4
 494 1317 494 1317 482 1321 c 0,5,6
 432 1341 432 1341 432 1373 c 0,7,8
 432 1378 432 1378 433 1383 c 0,9,10
 438 1403 438 1403 451.5 1414 c 128,-1,11
 465 1425 465 1425 484 1425 c 2,12,-1
 823 1425 l 2,13,14
 841 1425 841 1425 849.5 1414 c 128,-1,15
 858 1403 858 1403 853.5 1383 c 128,-1,16
 849 1363 849 1363 829.5 1347 c 128,-1,17
 810 1331 810 1331 776 1321 c 0,18,19
 763 1317 763 1317 753 1309 c 0,20,21
 735 1294 735 1294 727 1260 c 2,22,-1
 602 721 l 2,23,24
 566 570 566 570 550 454 c 0,25,26
 543 404 543 404 543 361 c 0,27,28
 543 304 543 304 556 260 c 0,29,30
 577 185 577 185 647.5 145.5 c 128,-1,31
 718 106 718 106 863 106 c 0,32,33
 1039 106 1039 106 1158 202 c 0,34,35
 1208 243 1208 243 1249 302 c 0,36,37
 1347 444 1347 444 1410 721 c 2,38,-1
 1534 1257 l 2,39,40
 1542 1292 1542 1292 1529 1309 c 0,41,42
 1523 1317 1523 1317 1512 1321 c 0,43,44
 1462 1341 1462 1341 1462 1373 c 0,45,46
 1462 1378 1462 1378 1463 1383 c 0,47,48
 1468 1403 1468 1403 1481.5 1414 c 128,-1,49
 1495 1425 1495 1425 1514 1425 c 2,50,-1
 1769 1425 l 2,51,52
 1787 1425 1787 1425 1795.5 1414 c 128,-1,53
 1804 1403 1804 1403 1799 1383 c 0,54,55
 1790 1344 1790 1344 1722 1321 c 0,56,57
 1709 1317 1709 1317 1700 1309 c 0,58,59
 1679 1292 1679 1292 1671 1257 c 2,60,-1
 1517 588 l 2,61,62
 1481 437 1481 437 1424.5 310 c 128,-1,63
 1368 183 1368 183 1273 95 c 0,64,65
 1104 -59 1104 -59 825 -59 c 0,66,67
 651 -59 651 -59 537 -26 c 0,68,69
 419 8 419 8 363 96 c 0,70,71
 313 175 313 175 313 311 c 0,72,73
 313 428 313 428 350 588 c 2,0,-1
EndSplineSet
Validated: 1
EndChar

StartChar: V
Encoding: 86 86 57
Width: 1479
GlyphClass: 1
Flags: W
LayerCount: 2
Fore
SplineSet
400 1425 m 2,0,-1
 739 1425 l 2,1,2
 755 1425 755 1425 766 1414 c 0,3,4
 768 1413 768 1413 771 1409 c 0,5,6
 779 1399 779 1399 779.5 1391 c 128,-1,7
 780 1383 780 1383 779 1378 c 0,8,9
 775 1359 775 1359 753 1343 c 0,10,11
 741 1334 741 1334 732.5 1328 c 128,-1,12
 724 1322 724 1322 722 1320 c 0,13,14
 707 1308 707 1308 703 1292 c 0,15,16
 701 1282 701 1282 703 1271 c 0,17,18
 703 1270 703 1270 870 227 c 1,19,-1
 1510 1116 l 2,20,21
 1526 1138 1526 1138 1529 1152 c 128,-1,22
 1532 1166 1532 1166 1528 1175 c 0,23,24
 1517 1204 1517 1204 1489 1251 c 2,25,-1
 1453 1308 l 2,26,27
 1449 1315 1449 1315 1450.5 1321.5 c 128,-1,28
 1452 1328 1452 1328 1460 1335 c 0,29,30
 1461 1336 1461 1336 1607 1431 c 0,31,32
 1623 1442 1623 1442 1640 1442 c 128,-1,33
 1657 1442 1657 1442 1671 1427 c 0,34,35
 1672 1426 1672 1426 1735 1342 c 0,36,37
 1751 1319 1751 1319 1751 1290 c 0,38,39
 1751 1277 1751 1277 1748 1262 c 0,40,41
 1742 1237 1742 1237 1727 1209 c 0,42,43
 1685 1136 1685 1136 1616 1039 c 2,44,-1
 892 24 l 2,45,46
 875 -3 875 -3 864 -10 c 0,47,48
 849 -20 849 -20 833 -20 c 2,49,-1
 682 -20 l 2,50,51
 656 -20 656 -20 650 5 c 0,52,53
 646 21 646 21 643 53 c 2,54,-1
 508 1103 l 2,55,56
 492 1208 492 1208 485 1250 c 0,57,58
 476 1282 476 1282 446 1308 c 0,59,60
 427 1322 427 1322 407 1331.5 c 128,-1,61
 387 1341 387 1341 373 1352 c 0,62,63
 361 1360 361 1360 359 1374 c 0,64,65
 353 1391 353 1391 367 1408 c 0,66,67
 380 1425 380 1425 400 1425 c 2,0,-1
EndSplineSet
Validated: 1
EndChar

StartChar: W
Encoding: 87 87 58
Width: 2069
GlyphClass: 1
Flags: W
LayerCount: 2
Fore
SplineSet
400 1425 m 2,0,-1
 739 1425 l 2,1,2
 760 1425 760 1425 773 1408 c 0,3,4
 779 1400 779 1400 780 1392.5 c 128,-1,5
 781 1385 781 1385 779 1378 c 0,6,7
 775 1359 775 1359 753 1343 c 0,8,9
 741 1334 741 1334 732.5 1328 c 128,-1,10
 724 1322 724 1322 722 1320 c 0,11,12
 707 1308 707 1308 703 1292 c 0,13,14
 701 1282 701 1282 703 1271 c 0,15,16
 703 1270 703 1270 870 227 c 1,17,-1
 1159 628 l 1,18,-1
 1098 1103 l 2,19,20
 1082 1208 1082 1208 1075 1250 c 0,21,22
 1066 1282 1066 1282 1036 1308 c 0,23,24
 1017 1322 1017 1322 997 1332 c 0,25,26
 968 1346 968 1346 958 1358 c 0,27,28
 956 1360 956 1360 950 1376 c 0,29,30
 947 1384 947 1384 948 1391 c 0,31,32
 951 1405 951 1405 963.5 1415 c 128,-1,33
 976 1425 976 1425 990 1425 c 2,34,-1
 1329 1425 l 2,35,36
 1350 1425 1350 1425 1363 1408 c 0,37,38
 1369 1400 1369 1400 1370 1392.5 c 128,-1,39
 1371 1385 1371 1385 1369 1378 c 0,40,41
 1365 1359 1365 1359 1343 1343 c 0,42,43
 1331 1334 1331 1334 1322.5 1328 c 128,-1,44
 1314 1322 1314 1322 1312 1320 c 0,45,46
 1297 1308 1297 1308 1293 1292 c 0,47,48
 1291 1282 1291 1282 1293 1271 c 0,49,50
 1293 1270 1293 1270 1354 899 c 1,51,-1
 1510 1116 l 2,52,53
 1526 1138 1526 1138 1529 1152 c 128,-1,54
 1532 1166 1532 1166 1528 1175 c 0,55,56
 1517 1204 1517 1204 1489 1251 c 2,57,-1
 1453 1308 l 2,58,59
 1449 1315 1449 1315 1450.5 1321.5 c 128,-1,60
 1452 1328 1452 1328 1460 1335 c 0,61,62
 1461 1336 1461 1336 1607 1431 c 0,63,64
 1623 1442 1623 1442 1640 1442 c 128,-1,65
 1657 1442 1657 1442 1671 1427 c 0,66,67
 1672 1426 1672 1426 1735 1342 c 0,68,69
 1751 1319 1751 1319 1751 1290 c 0,70,71
 1751 1277 1751 1277 1748 1262 c 0,72,73
 1742 1237 1742 1237 1727 1209 c 0,74,75
 1685 1136 1685 1136 1616 1039 c 2,76,-1
 1383 712 l 1,77,-1
 1460 227 l 1,78,-1
 2100 1116 l 2,79,80
 2116 1138 2116 1138 2119 1152 c 128,-1,81
 2122 1166 2122 1166 2118 1175 c 0,82,83
 2107 1204 2107 1204 2079 1251 c 2,84,-1
 2043 1308 l 2,85,86
 2039 1315 2039 1315 2040.5 1321.5 c 128,-1,87
 2042 1328 2042 1328 2050 1335 c 0,88,89
 2051 1336 2051 1336 2197 1431 c 0,90,91
 2213 1442 2213 1442 2230 1442 c 128,-1,92
 2247 1442 2247 1442 2261 1427 c 0,93,94
 2262 1426 2262 1426 2325 1342 c 0,95,96
 2341 1319 2341 1319 2341 1290 c 0,97,98
 2341 1277 2341 1277 2338 1262 c 0,99,100
 2332 1237 2332 1237 2317 1209 c 0,101,102
 2275 1136 2275 1136 2206 1039 c 2,103,-1
 1482 24 l 2,104,105
 1465 -3 1465 -3 1454 -10 c 0,106,107
 1439 -20 1439 -20 1423 -20 c 2,108,-1
 1272 -20 l 2,109,110
 1246 -20 1246 -20 1240 5 c 0,111,112
 1236 21 1236 21 1233 53 c 2,113,-1
 1184 434 l 1,114,-1
 892 24 l 2,115,116
 875 -3 875 -3 864 -10 c 0,117,118
 849 -20 849 -20 833 -20 c 2,119,-1
 682 -20 l 2,120,121
 656 -20 656 -20 650 5 c 0,122,123
 646 21 646 21 643 53 c 2,124,-1
 508 1103 l 2,125,126
 492 1208 492 1208 485 1250 c 0,127,128
 476 1282 476 1282 446 1308 c 0,129,130
 427 1322 427 1322 407 1332 c 0,131,132
 378 1346 378 1346 368 1358 c 0,133,134
 366 1360 366 1360 360 1376 c 0,135,136
 357 1384 357 1384 358 1391 c 0,137,138
 361 1405 361 1405 373.5 1415 c 128,-1,139
 386 1425 386 1425 400 1425 c 2,0,-1
EndSplineSet
Validated: 1
EndChar

StartChar: X
Encoding: 88 88 59
Width: 1404
GlyphClass: 1
Flags: W
LayerCount: 2
Fore
SplineSet
302 -20 m 2,0,-1
 44 -20 l 2,1,2
 27 -20 27 -20 20 -11 c 0,3,4
 15 -4 15 -4 17 6 c 2,5,-1
 19 11 l 1,6,7
 26 41 26 41 74 60 c 0,8,9
 93 67 93 67 130 80 c 0,10,11
 209 111 209 111 253 157 c 2,12,-1
 738 677 l 1,13,-1
 502 1247 l 2,14,15
 479 1299 479 1299 401 1331 c 0,16,17
 339 1353 339 1353 339 1386 c 0,18,19
 339 1390 339 1390 340 1394 c 2,20,-1
 341 1398 l 2,21,22
 344 1409 344 1409 353.5 1417 c 128,-1,23
 363 1425 363 1425 377 1425 c 2,24,-1
 749 1425 l 2,25,26
 776 1425 776 1425 788 1404 c 0,27,28
 799 1385 799 1385 796 1372 c 128,-1,29
 793 1359 793 1359 778 1345 c 0,30,31
 769 1336 769 1336 755 1325 c 0,32,33
 749 1320 749 1320 747 1312 c 2,34,-1
 746 1308 l 2,35,36
 742 1292 742 1292 750 1275 c 2,37,38
 750 1275 750 1275 922 866 c 1,39,-1
 1253 1216 l 2,40,41
 1343 1311 1343 1311 1406 1368 c 0,42,43
 1476 1431 1476 1431 1518 1431 c 0,44,45
 1525 1431 1525 1431 1530 1429 c 0,46,47
 1549 1424 1549 1424 1550 1424 c 0,48,49
 1643 1395 1643 1395 1644 1394 c 0,50,51
 1670 1382 1670 1382 1665 1359 c 0,52,53
 1662 1347 1662 1347 1656 1336 c 2,54,-1
 1575 1166 l 2,55,56
 1573 1161 1573 1161 1567 1156 c 128,-1,57
 1561 1151 1561 1151 1554 1151 c 0,58,59
 1552 1151 1552 1151 1548 1152 c 2,60,-1
 1486 1167 l 2,61,62
 1439 1179 1439 1179 1406 1180 c 2,63,-1
 1404 1180 l 2,64,65
 1383 1180 1383 1180 1348 1142 c 2,66,-1
 974 742 l 1,67,-1
 1219 157 l 2,68,69
 1239 110 1239 110 1321 72 c 0,70,71
 1364 52 1364 52 1376 36 c 0,72,73
 1385 24 1385 24 1382 10.5 c 128,-1,74
 1379 -3 1379 -3 1368.5 -11.5 c 128,-1,75
 1358 -20 1358 -20 1344 -20 c 2,76,-1
 972 -20 l 2,77,78
 958 -20 958 -20 946.5 -13 c 128,-1,79
 935 -6 935 -6 930 1 c 0,80,81
 921 13 921 13 924 27 c 0,82,83
 928 45 928 45 955 71 c 0,84,85
 970 86 970 86 974 93 c 2,86,-1
 976 98 l 2,87,88
 979 112 979 112 973 131 c 2,89,-1
 791 552 l 1,90,-1
 408 136 l 2,91,92
 376 101 376 101 370 80 c 1,93,-1
 370 44 l 2,94,95
 371 42 371 42 370 39 c 0,96,97
 366 20 366 20 347 2 c 0,98,99
 326 -20 326 -20 302 -20 c 2,0,-1
EndSplineSet
Validated: 1
EndChar

StartChar: Y
Encoding: 89 89 60
Width: 1288
GlyphClass: 1
Flags: W
LayerCount: 2
Fore
SplineSet
933 497 m 2,0,-1
 852 146 l 2,1,2
 844 111 844 111 856 95 c 0,3,4
 862 87 862 87 874 82 c 0,5,6
 924 63 924 63 924 31 c 0,7,8
 924 26 924 26 923 21 c 0,9,10
 919 2 919 2 905 -9 c 128,-1,11
 891 -20 891 -20 872 -20 c 2,12,-1
 533 -20 l 2,13,14
 514 -20 514 -20 505.5 -9 c 128,-1,15
 497 2 497 2 502 21 c 0,16,17
 511 60 511 60 579 82 c 0,18,19
 592 86 592 86 603 95 c 0,20,21
 623 111 623 111 631 146 c 2,22,-1
 729 573 l 2,23,24
 734 596 734 596 734 617 c 0,25,26
 734 643 734 643 726 667 c 2,27,-1
 511 1247 l 2,28,29
 497 1277 497 1277 455 1308 c 0,30,31
 431 1322 431 1322 410 1331 c 0,32,33
 380 1343 380 1343 368 1353 c 0,34,35
 344 1374 344 1374 349 1394 c 2,36,-1
 350 1398 l 2,37,38
 353 1409 353 1409 362.5 1417 c 128,-1,39
 372 1425 372 1425 386 1425 c 2,40,-1
 725 1425 l 2,41,42
 739 1425 739 1425 751.5 1415.5 c 128,-1,43
 764 1406 764 1406 767 1402 c 0,44,45
 771 1397 771 1397 771 1395 c 0,46,47
 775 1385 775 1385 772 1372 c 128,-1,48
 769 1359 769 1359 754 1345 c 0,49,50
 744 1335 744 1335 731 1325 c 0,51,52
 725 1320 725 1320 723 1312 c 2,53,-1
 722 1308 l 2,54,55
 718 1292 718 1292 726 1274 c 2,56,57
 726 1274 726 1274 930 766 c 1,58,-1
 1257 1135 l 2,59,60
 1294 1176 1294 1176 1305 1203 c 1,61,62
 1305 1203 1305 1203 1305 1203.5 c 128,-1,63
 1305 1204 1305 1204 1305 1205 c 128,-1,64
 1305 1206 1305 1206 1305 1206 c 2,65,66
 1305 1216 1305 1216 1305 1226 c 0,67,68
 1305 1259 1305 1259 1300 1279 c 2,69,-1
 1282 1347 l 2,70,71
 1281 1352 1281 1352 1282.5 1358 c 128,-1,72
 1284 1364 1284 1364 1291 1370 c 0,73,74
 1295 1373 1295 1373 1298 1374 c 2,75,-1
 1456 1436 l 2,76,77
 1468 1441 1468 1441 1478 1441 c 0,78,79
 1502 1441 1502 1441 1512 1416 c 0,80,81
 1512 1415 1512 1415 1549 1314 c 0,82,83
 1557 1290 1557 1290 1552 1266 c 0,84,85
 1542 1224 1542 1224 1493 1183 c 0,86,87
 1428 1128 1428 1128 1351 1043 c 2,88,-1
 995 655 l 2,89,90
 975 632 975 632 959 586 c 128,-1,91
 943 540 943 540 933 497 c 2,0,-1
EndSplineSet
Validated: 1
EndChar

StartChar: Z
Encoding: 90 90 61
Width: 1423
GlyphClass: 1
Flags: W
LayerCount: 2
Fore
SplineSet
445 1106 m 0,0,1
 426 1106 426 1106 417.5 1117 c 128,-1,2
 409 1128 409 1128 414 1147 c 2,3,-1
 457 1332 l 2,4,5
 472 1397 472 1397 505 1415 c 0,6,7
 532 1429 532 1429 613 1429 c 2,8,-1
 1537 1429 l 2,9,10
 1585 1429 1585 1429 1603.5 1426 c 128,-1,11
 1622 1423 1622 1423 1630 1420 c 128,-1,12
 1638 1417 1638 1417 1643 1411 c 0,13,14
 1656 1392 1656 1392 1650 1368 c 128,-1,15
 1644 1344 1644 1344 1620 1320 c 2,16,-1
 386 118 l 1,17,-1
 1125 119 l 2,18,19
 1177 119 1177 119 1216 151 c 0,20,21
 1260 187 1260 187 1310 240 c 0,22,23
 1356 288 1356 288 1374 298 c 0,24,25
 1382 303 1382 303 1390 303 c 0,26,27
 1409 303 1409 303 1417.5 292 c 128,-1,28
 1426 281 1426 281 1421 262 c 2,29,-1
 1379 77 l 2,30,31
 1372 45 1372 45 1363 26 c 0,32,33
 1351 1 1351 1 1334 -8 c 0,34,35
 1321 -15 1321 -15 1295.5 -17.5 c 128,-1,36
 1270 -20 1270 -20 1223 -20 c 2,37,-1
 152 -20 l 2,38,39
 59 -20 59 -20 42 -13 c 0,40,41
 10 0 10 0 17 29 c 0,42,43
 22 50 22 50 50 74 c 2,44,-1
 1277 1292 l 1,45,-1
 710 1291 l 2,46,47
 658 1291 658 1291 620 1259 c 0,48,49
 575 1222 575 1222 525 1169 c 0,50,51
 480 1121 480 1121 461 1111 c 0,52,53
 453 1106 453 1106 445 1106 c 0,0,1
EndSplineSet
Validated: 1
EndChar

StartChar: bracketleft
Encoding: 91 91 62
Width: 682
GlyphClass: 1
Flags: W
LayerCount: 2
Fore
SplineSet
409 -432 m 0,0,1
 399 -440 399 -440 386 -440 c 2,2,-1
 139 -440 l 2,3,4
 120 -440 120 -440 111.5 -429 c 128,-1,5
 103 -418 103 -418 108 -400 c 2,6,-1
 532 1436 l 2,7,8
 538 1462 538 1462 554 1475 c 0,9,10
 568 1486 568 1486 584 1486 c 2,11,-1
 831 1486 l 2,12,13
 843 1486 843 1486 849 1478.5 c 128,-1,14
 855 1471 855 1471 855 1461.5 c 128,-1,15
 855 1452 855 1452 852 1438 c 0,16,17
 846 1411 846 1411 830 1399 c 0,18,19
 818 1389 818 1389 804 1389 c 2,20,-1
 679 1389 l 1,21,-1
 278 -347 l 1,22,-1
 403 -347 l 2,23,24
 418 -347 418 -347 426 -357 c 0,25,26
 435 -369 435 -369 429 -395 c 128,-1,27
 423 -421 423 -421 409 -432 c 0,0,1
EndSplineSet
Validated: 1
EndChar

StartChar: backslash
Encoding: 92 92 63
Width: 1100
GlyphClass: 1
Flags: W
LayerCount: 2
Fore
SplineSet
403 1494 m 2,0,-1
 543 1494 l 2,1,2
 555 1494 555 1494 559 1484 c 2,3,-1
 1046 -60 l 2,4,5
 1047 -66 1047 -66 1045.5 -72 c 128,-1,6
 1044 -78 1044 -78 1036.5 -84 c 128,-1,7
 1029 -90 1029 -90 1021 -90 c 2,8,-1
 879 -90 l 2,9,10
 871 -90 871 -90 867 -84 c 0,11,12
 864 -83 864 -83 864 -80 c 2,13,-1
 378 1464 l 2,14,15
 377 1470 377 1470 378.5 1476 c 128,-1,16
 380 1482 380 1482 387.5 1488 c 128,-1,17
 395 1494 395 1494 403 1494 c 2,0,-1
EndSplineSet
Validated: 1
EndChar

StartChar: bracketright
Encoding: 93 93 64
Width: 682
GlyphClass: 1
Flags: W
LayerCount: 2
Fore
SplineSet
552 1478 m 0,0,1
 562 1486 562 1486 575 1486 c 2,2,-1
 822 1486 l 2,3,4
 841 1486 841 1486 849.5 1475 c 128,-1,5
 858 1464 858 1464 854 1446 c 2,6,-1
 430 -390 l 2,7,8
 424 -416 424 -416 408 -429 c 0,9,10
 394 -440 394 -440 377 -440 c 2,11,-1
 130 -440 l 2,12,13
 118 -440 118 -440 112.5 -432.5 c 128,-1,14
 107 -425 107 -425 106.5 -415.5 c 128,-1,15
 106 -406 106 -406 110 -392 c 0,16,17
 116 -365 116 -365 132 -353 c 0,18,19
 144 -343 144 -343 158 -343 c 2,20,-1
 283 -343 l 1,21,-1
 684 1393 l 1,22,-1
 559 1393 l 2,23,24
 544 1393 544 1393 536 1403 c 0,25,26
 527 1415 527 1415 532.5 1441 c 128,-1,27
 538 1467 538 1467 552 1478 c 0,0,1
EndSplineSet
Validated: 1
EndChar

StartChar: asciicircum
Encoding: 94 94 65
Width: 1100
GlyphClass: 1
Flags: W
LayerCount: 2
Fore
SplineSet
831 1450 m 2,0,-1
 939 1450 l 2,1,2
 950 1450 950 1450 953 1440 c 2,3,-1
 1146 922 l 2,4,5
 1148 916 1148 916 1147 910 c 128,-1,6
 1146 904 1146 904 1138 898 c 128,-1,7
 1130 892 1130 892 1122 892 c 2,8,-1
 1066 892 l 2,9,10
 1056 892 1056 892 1052 900 c 2,11,-1
 845 1279 l 1,12,13
 460 898 460 898 459 898 c 0,14,15
 452 892 452 892 444 892 c 2,16,-1
 390 892 l 2,17,18
 382 892 382 892 377 898 c 128,-1,19
 372 904 372 904 373.5 910.5 c 128,-1,20
 375 917 375 917 380 922 c 2,21,-1
 811 1440 l 2,22,23
 820 1450 820 1450 831 1450 c 2,0,-1
EndSplineSet
Validated: 1
EndChar

StartChar: underscore
Encoding: 95 95 66
Width: 1100
GlyphClass: 1
Flags: W
LayerCount: 2
Fore
SplineSet
-46 -198 m 2,0,-1
 1054 -198 l 2,1,2
 1062 -198 1062 -198 1067 -204 c 128,-1,3
 1072 -210 1072 -210 1070 -218 c 2,4,-1
 1042 -336 l 2,5,6
 1040 -344 1040 -344 1033 -350 c 128,-1,7
 1026 -356 1026 -356 1018 -356 c 2,8,-1
 -82 -356 l 2,9,10
 -90 -356 -90 -356 -94.5 -350 c 128,-1,11
 -99 -344 -99 -344 -98 -336 c 2,12,-1
 -70 -218 l 2,13,14
 -68 -210 -68 -210 -61 -204 c 128,-1,15
 -54 -198 -54 -198 -46 -198 c 2,0,-1
EndSplineSet
Validated: 1
EndChar

StartChar: grave
Encoding: 96 96 67
Width: 1000
GlyphClass: 1
Flags: W
LayerCount: 2
Fore
SplineSet
1021 1142 m 0,0,1
 1029 1129 1029 1129 1025 1113 c 128,-1,2
 1021 1097 1021 1097 1009 1087 c 128,-1,3
 997 1077 997 1077 979 1077 c 0,4,5
 971 1077 971 1077 965 1079 c 2,6,-1
 577 1238 l 2,7,8
 558 1246 558 1246 548 1260 c 0,9,10
 536 1276 536 1276 536 1300 c 0,11,12
 536 1313 536 1313 539 1328 c 0,13,14
 549 1371 549 1371 579 1395.5 c 128,-1,15
 609 1420 609 1420 654 1420 c 0,16,17
 682 1420 682 1420 701 1403 c 2,18,-1
 1018 1146 l 2,19,20
 1019 1144 1019 1144 1021 1142 c 0,0,1
EndSplineSet
Validated: 1
EndChar

StartChar: a
Encoding: 97 97 68
Width: 1155
GlyphClass: 1
Flags: W
LayerCount: 2
Fore
SplineSet
362 373 m 0,0,1
 362 365 362 365 362 358 c 0,2,3
 362 272 362 272 394 208 c 0,4,5
 451 95 451 95 578 95 c 0,6,7
 628 95 628 95 695 118 c 2,8,-1
 813 157 l 1,9,-1
 954 766 l 1,10,11
 928 790 928 790 876 819 c 0,12,13
 832 843 832 843 803 849 c 0,14,15
 792 852 792 852 779 852 c 0,16,17
 753 852 753 852 718 842 c 0,18,19
 632 817 632 817 609 806 c 0,20,21
 550 786 550 786 513 753 c 0,22,23
 464 711 464 711 411 599 c 0,24,25
 390 553 390 553 377 494 c 0,26,27
 363 434 363 434 362 373 c 0,0,1
1086 913 m 1,28,29
 1096 914 1096 914 1112 927 c 0,30,31
 1138 950 1138 950 1139 951 c 0,32,33
 1153 962 1153 962 1166.5 962 c 128,-1,34
 1180 962 1180 962 1194 954 c 0,35,36
 1201 950 1201 950 1205 945 c 0,37,38
 1213 934 1213 934 1210 919 c 2,39,-1
 1198 868 l 1,40,-1
 1032 146 l 2,41,42
 1024 112 1024 112 1036 95 c 0,43,44
 1042 87 1042 87 1054 83 c 0,45,46
 1104 63 1104 63 1104 31 c 0,47,48
 1104 26 1104 26 1103 21 c 0,49,50
 1099 2 1099 2 1085 -9 c 128,-1,51
 1071 -20 1071 -20 1052 -20 c 2,52,-1
 809 -20 l 2,53,54
 791 -20 791 -20 784 -10.5 c 128,-1,55
 777 -1 777 -1 780 13 c 2,56,-1
 790 55 l 1,57,-1
 521 -33 l 2,58,59
 484 -45 484 -45 459 -45 c 2,60,-1
 418 -45 l 2,61,62
 267 -45 267 -45 185 79 c 0,63,64
 125 171 125 171 125 294 c 0,65,66
 125 360 125 360 142 434 c 0,67,68
 156 496 156 496 173 541 c 0,69,70
 208 633 208 633 274 710 c 0,71,72
 323 768 323 768 392 812 c 0,73,74
 428 835 428 835 461 849 c 0,75,76
 709 934 709 934 819 968 c 0,77,78
 842 975 842 975 872 975 c 128,-1,79
 902 975 902 975 944 964 c 0,80,81
 974 957 974 957 1086 913 c 1,28,29
EndSplineSet
Validated: 1
EndChar

StartChar: b
Encoding: 98 98 69
Width: 1139
GlyphClass: 1
Flags: W
LayerCount: 2
Fore
SplineSet
436 1257 m 2,0,1
 444 1291 444 1291 432 1308 c 0,2,3
 426 1316 426 1316 414 1320 c 0,4,5
 364 1340 364 1340 364 1373 c 0,6,7
 364 1378 364 1378 365 1383 c 0,8,9
 369 1402 369 1402 383 1413 c 128,-1,10
 397 1424 397 1424 416 1424 c 0,11,12
 470 1424 470 1424 528 1440 c 0,13,14
 592 1458 592 1458 623 1486 c 0,15,16
 637 1499 637 1499 653 1499 c 0,17,18
 663 1499 663 1499 674.5 1494 c 128,-1,19
 686 1489 686 1489 691 1481 c 0,20,21
 699 1470 699 1470 696 1456 c 2,22,-1
 561 872 l 1,23,-1
 838 963 l 2,24,25
 875 975 875 975 901 975 c 2,26,-1
 942 975 l 2,27,28
 1093 975 1093 975 1174 851 c 0,29,30
 1234 758 1234 758 1234 634 c 0,31,32
 1234 569 1234 569 1218 496 c 0,33,34
 1204 434 1204 434 1187 389 c 0,35,36
 1152 297 1152 297 1086 220 c 0,37,38
 1037 162 1037 162 967 118 c 0,39,40
 931 95 931 95 899 81 c 0,41,42
 651 -4 651 -4 540 -38 c 0,43,44
 517 -45 517 -45 487.5 -45 c 128,-1,45
 458 -45 458 -45 416 -34 c 0,46,47
 385 -27 385 -27 262 22 c 0,48,49
 258 21 258 21 255 18 c 0,50,51
 237 -1 237 -1 229 -9 c 128,-1,52
 221 -17 221 -17 219 -19 c 0,53,54
 205 -30 205 -30 190 -30 c 0,55,56
 180 -30 180 -30 169.5 -25 c 128,-1,57
 159 -20 159 -20 154 -13 c 0,58,59
 146 -2 146 -2 149 13 c 2,60,-1
 436 1257 l 2,0,1
998 557 m 0,61,62
 998 565 998 565 998 572 c 0,63,64
 998 658 998 658 966 722 c 0,65,66
 909 835 909 835 782 835 c 0,67,68
 732 835 732 835 664 812 c 2,69,-1
 538 770 l 1,70,-1
 399 170 l 1,71,72
 426 143 426 143 484 111 c 0,73,74
 528 87 528 87 557 81 c 0,75,76
 568 78 568 78 581 78 c 0,77,78
 607 78 607 78 641 88 c 0,79,80
 727 113 727 113 751 124 c 0,81,82
 810 144 810 144 847 177 c 0,83,84
 896 219 896 219 948 331 c 0,85,86
 969 377 969 377 983 436 c 0,87,88
 997 496 997 496 998 557 c 0,61,62
EndSplineSet
Validated: 1
EndChar

StartChar: c
Encoding: 99 99 70
Width: 925
GlyphClass: 1
Flags: W
LayerCount: 2
Fore
SplineSet
779 976 m 1,0,-1
 801 976 l 2,1,2
 973 976 973 976 1104 877 c 1,3,-1
 1045 697 l 2,4,5
 1033 666 1033 666 1000 666 c 2,6,-1
 996 666 l 2,7,8
 969 669 969 669 963 700 c 0,9,10
 945 781 945 781 893 816 c 0,11,12
 844 850 844 850 760 850 c 2,13,-1
 737 850 l 1,14,15
 638 845 638 845 573 794 c 0,16,17
 513 746 513 746 473 677 c 0,18,19
 432 606 432 606 412 519 c 0,20,21
 405 490 405 490 401 459 c 0,22,23
 393 411 393 411 393 369 c 0,24,25
 393 285 393 285 424 224 c 0,26,27
 485 107 485 107 585 92 c 0,28,29
 600 89 600 89 619 89 c 0,30,31
 701 89 701 89 817 146 c 0,32,33
 889 180 889 180 916 180 c 0,34,35
 930 180 930 180 940 172 c 0,36,37
 947 163 947 163 944 150 c 0,38,39
 941 135 941 135 919 105 c 0,40,41
 895 71 895 71 867 50 c 0,42,43
 795 -4 795 -4 701.5 -24.5 c 128,-1,44
 608 -45 608 -45 530 -45 c 0,45,46
 334 -44 334 -44 226 64 c 0,47,48
 140 150 140 150 139 293 c 0,49,50
 139 330 139 330 145 371 c 0,51,52
 151 415 151 415 161 458 c 0,53,54
 174 513 174 513 192 565 c 0,55,56
 227 657 227 657 306 748 c 0,57,58
 388 845 388 845 512 907.5 c 128,-1,59
 636 970 636 970 779 976 c 1,0,-1
EndSplineSet
Validated: 1
EndChar

StartChar: d
Encoding: 100 100 71
Width: 1155
GlyphClass: 1
Flags: W
LayerCount: 2
Fore
SplineSet
1076 1258 m 2,0,1
 1084 1291 1084 1291 1072 1308 c 0,2,3
 1066 1316 1066 1316 1054 1320 c 0,4,5
 1004 1340 1004 1340 1004 1373 c 0,6,7
 1004 1378 1004 1378 1005 1383 c 0,8,9
 1009 1402 1009 1402 1023 1413 c 128,-1,10
 1037 1424 1037 1424 1056 1424 c 0,11,12
 1110 1424 1110 1424 1178 1443 c 0,13,14
 1232 1458 1232 1458 1263 1486 c 0,15,16
 1277 1499 1277 1499 1291 1499 c 0,17,18
 1294 1499 1294 1499 1296 1499 c 0,19,20
 1322 1495 1322 1495 1332 1482 c 0,21,22
 1340 1472 1340 1472 1337 1458 c 0,23,24
 1337 1457 1337 1457 1336 1455 c 2,25,-1
 1034 146 l 2,26,27
 1026 111 1026 111 1038 95 c 0,28,29
 1044 87 1044 87 1056 82 c 0,30,31
 1106 63 1106 63 1106 31 c 0,32,33
 1106 26 1106 26 1105 21 c 0,34,35
 1101 2 1101 2 1087 -9 c 128,-1,36
 1073 -20 1073 -20 1054 -20 c 2,37,-1
 818 -20 l 2,38,39
 800 -20 800 -20 793 -10.5 c 128,-1,40
 786 -1 786 -1 789 13 c 2,41,-1
 800 59 l 1,42,-1
 521 -33 l 2,43,44
 484 -45 484 -45 459 -45 c 2,45,-1
 418 -45 l 2,46,47
 267 -45 267 -45 185 79 c 0,48,49
 125 171 125 171 125 294 c 0,50,51
 125 360 125 360 142 434 c 0,52,53
 156 496 156 496 173 541 c 0,54,55
 208 633 208 633 274 710 c 0,56,57
 323 768 323 768 392 812 c 0,58,59
 428 835 428 835 461 849 c 0,60,61
 709 934 709 934 819 968 c 0,62,63
 842 975 842 975 872 975 c 128,-1,64
 902 975 902 975 944 964 c 0,65,66
 961 960 961 960 1004 944 c 1,67,-1
 1076 1258 l 2,0,1
362 373 m 0,68,69
 362 365 362 365 362 358 c 0,70,71
 362 272 362 272 394 208 c 0,72,73
 451 95 451 95 578 95 c 0,74,75
 628 95 628 95 695 118 c 2,76,-1
 822 160 l 1,77,-1
 960 760 l 1,78,79
 933 787 933 787 876 819 c 0,80,81
 832 843 832 843 803 849 c 0,82,83
 792 852 792 852 779 852 c 0,84,85
 753 852 753 852 718 842 c 0,86,87
 632 817 632 817 609 806 c 0,88,89
 550 786 550 786 513 753 c 0,90,91
 464 711 464 711 411 599 c 0,92,93
 390 553 390 553 377 494 c 0,94,95
 363 434 363 434 362 373 c 0,68,69
EndSplineSet
Validated: 1
EndChar

StartChar: e
Encoding: 101 101 72
Width: 1004
GlyphClass: 1
Flags: W
LayerCount: 2
Fore
SplineSet
1089 551 m 0,0,1
 1081 518 1081 518 1073 492 c 0,2,3
 1069 481 1069 481 1059 473 c 0,4,5
 1041 458 1041 458 1004 458 c 2,6,-1
 388 458 l 1,7,8
 379 409 379 409 379 365 c 0,9,10
 379 254 379 254 436 180 c 0,11,12
 485 116 485 116 569 99 c 1,13,14
 569 99 569 99 569 98 c 0,15,16
 600 91 600 91 634 91 c 0,17,18
 724 91 724 91 808 132 c 0,19,20
 881 167 881 167 906 174 c 0,21,22
 915 177 915 177 922 177 c 0,23,24
 942 177 942 177 948.5 168.5 c 128,-1,25
 955 160 955 160 951 142 c 0,26,27
 948 128 948 128 927 100.5 c 128,-1,28
 906 73 906 73 896 64 c 0,29,30
 880 50 880 50 876 48 c 0,31,32
 738 -51 738 -51 544 -51 c 0,33,34
 272 -49 272 -49 176 125 c 0,35,36
 129 210 129 210 129 315 c 0,37,38
 129 375 129 375 144 441 c 0,39,40
 157 496 157 496 179 554 c 0,41,42
 252 746 252 746 404 862 c 128,-1,43
 556 978 556 978 759 980 c 2,44,-1
 763 980 l 2,45,46
 969 980 969 980 1051 861 c 0,47,48
 1104 784 1104 784 1104 676 c 0,49,50
 1104 618 1104 618 1089 551 c 0,0,1
736 852 m 2,51,-1
 725 852 l 1,52,53
 594 848 594 848 518 759 c 0,54,55
 445 674 445 674 414 571 c 1,56,-1
 900 571 l 1,57,58
 908 615 908 615 908 655 c 0,59,60
 908 712 908 712 892 763 c 0,61,62
 865 852 865 852 736 852 c 2,51,-1
EndSplineSet
Validated: 1
EndChar

StartChar: f
Encoding: 102 102 73
Width: 683
GlyphClass: 1
Flags: W
LayerCount: 2
Fore
SplineSet
876 928 m 0,0,1
 862 867 862 867 831 841 c 0,2,3
 810 824 810 824 783 824 c 2,4,-1
 592 824 l 1,5,-1
 436 146 l 2,6,7
 428 111 428 111 440 95 c 0,8,9
 446 87 446 87 458 82 c 0,10,11
 508 63 508 63 508 33 c 0,12,13
 508 28 508 28 507 23 c 0,14,15
 502 3 502 3 488 -8.5 c 128,-1,16
 474 -20 474 -20 456 -20 c 2,17,-1
 124 -20 l 2,18,19
 106 -20 106 -20 97.5 -8.5 c 128,-1,20
 89 3 89 3 93 22 c 128,-1,21
 97 41 97 41 115.5 56 c 128,-1,22
 134 71 134 71 170 82 c 0,23,24
 183 86 183 86 194 95 c 0,25,26
 214 111 214 111 222 146 c 2,27,-1
 378 824 l 1,28,-1
 278 824 l 2,29,30
 260 824 260 824 251.5 835 c 128,-1,31
 243 846 243 846 247 864 c 1,32,-1
 248 866 l 1,33,34
 254 893 254 893 288 909 c 0,35,36
 377 949 377 949 410 962 c 1,37,-1
 425 1027 l 2,38,39
 455 1157 455 1157 491 1226 c 128,-1,40
 527 1295 527 1295 557 1323 c 0,41,42
 588 1353 588 1353 620 1364 c 2,43,-1
 890 1459 l 2,44,45
 902 1463 902 1463 930 1465 c 0,46,47
 931 1465 931 1465 932 1465 c 2,48,-1
 936 1465 l 2,49,50
 964 1465 964 1465 988 1446 c 0,51,52
 1011 1428 1011 1428 1016.5 1410.5 c 128,-1,53
 1022 1393 1022 1393 1018 1376 c 0,54,55
 1006 1323 1006 1323 997 1307 c 0,56,57
 986 1287 986 1287 967 1282 c 0,58,59
 964 1281 964 1281 962 1281 c 2,60,-1
 959 1281 l 2,61,62
 950 1281 950 1281 938 1287.5 c 128,-1,63
 926 1294 926 1294 908 1307 c 0,64,65
 884 1327 884 1327 851 1327 c 128,-1,66
 818 1327 818 1327 793 1318 c 0,67,68
 765 1307 765 1307 744 1289 c 0,69,70
 703 1256 703 1256 683 1197 c 0,71,72
 670 1160 670 1160 660 1116.5 c 128,-1,73
 650 1073 650 1073 639 1027 c 2,74,-1
 625 968 l 1,75,-1
 850 968 l 2,76,77
 865 968 865 968 873 958 c 128,-1,78
 881 948 881 948 876 928 c 0,0,1
EndSplineSet
Validated: 1
EndChar

StartChar: g
Encoding: 103 103 74
Width: 1103
GlyphClass: 1
Flags: W
LayerCount: 2
Fore
SplineSet
957 -179 m 2,0,1
 936 -271 936 -271 911 -322 c 0,2,3
 884 -378 884 -378 851 -401 c 0,4,5
 792 -443 792 -443 694 -478 c 2,6,-1
 470 -555 l 1,7,-1
 395 -581 l 2,8,9
 362 -592 362 -592 333 -593 c 0,10,11
 320 -594 320 -594 309 -593.5 c 128,-1,12
 298 -593 298 -593 290 -593 c 0,13,14
 142 -588 142 -588 60 -469 c 0,15,16
 19 -408 19 -408 4 -322 c 0,17,18
 3 -318 3 -318 5 -314 c 0,19,20
 7 -307 7 -307 14 -301 c 0,21,22
 18 -298 18 -298 22 -296 c 0,23,24
 117 -262 117 -262 215 -229 c 0,25,26
 219 -228 219 -228 223 -228 c 0,27,28
 230 -228 230 -228 235 -234 c 0,29,30
 237 -237 237 -237 238 -241 c 0,31,32
 247 -315 247 -315 289 -369.5 c 128,-1,33
 331 -424 331 -424 394 -442 c 0,34,35
 427 -451 427 -451 462 -451 c 0,36,37
 475 -451 475 -451 495 -449 c 128,-1,38
 515 -447 515 -447 533.5 -440 c 128,-1,39
 552 -433 552 -433 572 -426.5 c 128,-1,40
 592 -420 592 -420 614 -413 c 0,41,42
 658 -393 658 -393 685 -330 c 0,43,44
 717 -259 717 -259 722 -237 c 2,45,-1
 790 55 l 1,46,-1
 521 -33 l 2,47,48
 484 -45 484 -45 459 -45 c 2,49,-1
 418 -45 l 2,50,51
 267 -45 267 -45 185 79 c 0,52,53
 125 171 125 171 125 294 c 0,54,55
 125 360 125 360 142 434 c 0,56,57
 156 496 156 496 173 541 c 0,58,59
 208 633 208 633 274 710 c 0,60,61
 323 768 323 768 392 812 c 0,62,63
 428 835 428 835 461 849 c 0,64,65
 709 934 709 934 819 968 c 0,66,67
 842 975 842 975 872 975 c 128,-1,68
 902 975 902 975 944 964 c 0,69,70
 974 957 974 957 1089 911 c 0,71,72
 1090 912 1090 912 1091 912 c 0,73,74
 1097 912 1097 912 1100.5 915 c 128,-1,75
 1104 918 1104 918 1107 922 c 0,76,77
 1127 949 1127 949 1144 954 c 0,78,79
 1156 961 1156 961 1168 961.5 c 128,-1,80
 1180 962 1180 962 1194 954 c 0,81,82
 1201 950 1201 950 1205 945 c 0,83,84
 1213 934 1213 934 1210 919 c 2,85,-1
 1198 868 l 1,86,-1
 1029 134 l 1,87,-1
 957 -179 l 2,0,1
362 373 m 0,88,89
 362 365 362 365 362 358 c 0,90,91
 362 272 362 272 394 208 c 0,92,93
 451 95 451 95 578 95 c 0,94,95
 628 95 628 95 695 118 c 2,96,-1
 813 157 l 1,97,-1
 954 766 l 1,98,99
 928 790 928 790 876 819 c 0,100,101
 832 843 832 843 803 849 c 0,102,103
 792 852 792 852 779 852 c 0,104,105
 753 852 753 852 718 842 c 0,106,107
 632 817 632 817 609 806 c 0,108,109
 550 786 550 786 513 753 c 0,110,111
 464 711 464 711 411 599 c 0,112,113
 390 553 390 553 377 494 c 0,114,115
 363 434 363 434 362 373 c 0,88,89
EndSplineSet
Validated: 1
EndChar

StartChar: h
Encoding: 104 104 75
Width: 1211
GlyphClass: 1
Flags: W
LayerCount: 2
Fore
SplineSet
413 146 m 2,0,1
 405 111 405 111 417 95 c 0,2,3
 423 87 423 87 435 82 c 0,4,5
 485 63 485 63 485 31 c 0,6,7
 485 26 485 26 484 21 c 0,8,9
 480 2 480 2 466 -9 c 128,-1,10
 452 -20 452 -20 434 -20 c 2,11,-1
 101 -20 l 2,12,13
 82 -20 82 -20 73.5 -9 c 128,-1,14
 65 2 65 2 70 21 c 0,15,16
 79 60 79 60 147 82 c 0,17,18
 160 86 160 86 171 95 c 0,19,20
 191 111 191 111 199 146 c 2,21,-1
 455 1258 l 2,22,23
 463 1291 463 1291 451 1308 c 0,24,25
 445 1316 445 1316 433 1320 c 0,26,27
 383 1340 383 1340 383 1373 c 0,28,29
 383 1378 383 1378 384 1383 c 0,30,31
 388 1402 388 1402 402 1413 c 128,-1,32
 416 1424 416 1424 435 1424 c 0,33,34
 489 1424 489 1424 557 1443 c 0,35,36
 611 1458 611 1458 642 1486 c 0,37,38
 656 1499 656 1499 670 1499 c 0,39,40
 673 1499 673 1499 675 1499 c 0,41,42
 700 1495 700 1495 709.5 1483 c 128,-1,43
 719 1471 719 1471 715 1456 c 2,44,-1
 582 878 l 1,45,46
 616 890 616 890 648 902 c 0,47,48
 711 925 711 925 800.5 953.5 c 128,-1,49
 890 982 890 982 983 982 c 128,-1,50
 1076 982 1076 982 1143 921 c 0,51,52
 1202 867 1202 867 1202 738 c 0,53,54
 1202 643 1202 643 1170 506 c 2,55,-1
 1087 146 l 2,56,57
 1084 133 1084 133 1084 122 c 0,58,59
 1084 92 1084 92 1109 82 c 0,60,61
 1159 63 1159 63 1159 33 c 0,62,63
 1159 28 1159 28 1158 23 c 0,64,65
 1148 -20 1148 -20 1108 -20 c 2,66,-1
 871 -20 l 2,67,68
 834 -20 834 -20 842 13 c 2,69,-1
 956 506 l 2,70,71
 976 595 976 595 976 661 c 0,72,73
 976 750 976 750 939 798 c 0,74,75
 898 851 898 851 822 851 c 0,76,77
 750 851 750 851 558 777 c 1,78,-1
 413 146 l 2,0,1
EndSplineSet
Validated: 1
EndChar

StartChar: i
Encoding: 105 105 76
Width: 593
GlyphClass: 1
Flags: W
LayerCount: 2
Fore
SplineSet
547 1149 m 0,0,1
 546 1149 546 1149 544 1149 c 0,2,3
 488 1149 488 1149 457 1190 c 0,4,5
 434 1220 434 1220 434 1257 c 0,6,7
 434 1273 434 1273 438 1291 c 0,8,9
 452 1350 452 1350 503 1391.5 c 128,-1,10
 554 1433 554 1433 613 1433 c 128,-1,11
 672 1433 672 1433 704 1391 c 0,12,13
 726 1362 726 1362 726 1324 c 0,14,15
 726 1308 726 1308 722 1290 c 0,16,17
 708 1232 708 1232 657 1190.5 c 128,-1,18
 606 1149 606 1149 547 1149 c 0,0,1
436 146 m 2,19,20
 428 111 428 111 440 95 c 0,21,22
 446 87 446 87 458 82 c 0,23,24
 508 63 508 63 508 31 c 0,25,26
 508 26 508 26 507 21 c 0,27,28
 503 2 503 2 489 -9 c 128,-1,29
 475 -20 475 -20 457 -20 c 2,30,-1
 124 -20 l 2,31,32
 105 -20 105 -20 96.5 -9 c 128,-1,33
 88 2 88 2 93 21 c 0,34,35
 102 60 102 60 170 82 c 0,36,37
 183 86 183 86 194 95 c 0,38,39
 214 111 214 111 222 146 c 2,40,-1
 369 783 l 2,41,42
 377 816 377 816 364 833 c 0,43,44
 358 841 358 841 346 845 c 0,45,46
 297 865 297 865 297 897 c 0,47,48
 297 903 297 903 298 908 c 0,49,50
 302 927 302 927 315.5 938 c 128,-1,51
 329 949 329 949 348 949 c 0,52,53
 402 949 402 949 470 968 c 0,54,55
 524 983 524 983 555 1011 c 0,56,57
 569 1024 569 1024 583 1024 c 0,58,59
 586 1024 586 1024 588 1024 c 0,60,61
 613 1020 613 1020 622.5 1008 c 128,-1,62
 632 996 632 996 628 981 c 2,63,-1
 436 146 l 2,19,20
EndSplineSet
Validated: 1
EndChar

StartChar: j
Encoding: 106 106 77
Width: 487
GlyphClass: 1
Flags: W
LayerCount: 2
Fore
SplineSet
-110 -587 m 0,0,1
 -118 -587 -118 -587 -122 -581 c 128,-1,2
 -126 -575 -126 -575 -124 -567 c 2,3,-1
 -112 -517 l 2,4,5
 -109 -506 -109 -506 -98 -500 c 0,6,7
 4 -446 4 -446 54 -351 c 0,8,9
 74 -313 74 -313 91 -242 c 0,10,11
 117 -129 117 -129 148 6 c 2,12,-1
 328 783 l 2,13,14
 336 816 336 816 323 833 c 0,15,16
 317 841 317 841 305 845 c 0,17,18
 256 865 256 865 256 897 c 0,19,20
 256 903 256 903 257 908 c 0,21,22
 261 927 261 927 274.5 938 c 128,-1,23
 288 949 288 949 307 949 c 0,24,25
 361 949 361 949 429 968 c 0,26,27
 483 983 483 983 514 1011 c 0,28,29
 528 1024 528 1024 542 1024 c 0,30,31
 545 1024 545 1024 547 1024 c 0,32,33
 572 1020 572 1020 581.5 1008 c 128,-1,34
 591 996 591 996 587 981 c 2,35,-1
 364 12 l 2,36,37
 317 -187 317 -187 271 -287 c 0,38,39
 223 -391 223 -391 133 -464 c 0,40,41
 16 -559 16 -559 -103 -586 c 0,42,43
 -107 -587 -107 -587 -110 -587 c 0,0,1
517 1149 m 0,44,45
 516 1149 516 1149 514 1149 c 0,46,47
 458 1149 458 1149 427 1190 c 0,48,49
 404 1220 404 1220 404 1257 c 0,50,51
 404 1273 404 1273 408 1291 c 0,52,53
 422 1350 422 1350 473 1391.5 c 128,-1,54
 524 1433 524 1433 583 1433 c 128,-1,55
 642 1433 642 1433 674 1391 c 0,56,57
 696 1362 696 1362 696 1324 c 0,58,59
 696 1308 696 1308 692 1290 c 0,60,61
 678 1232 678 1232 627 1190.5 c 128,-1,62
 576 1149 576 1149 517 1149 c 0,44,45
EndSplineSet
Validated: 1
EndChar

StartChar: k
Encoding: 107 107 78
Width: 1163
GlyphClass: 1
Flags: W
LayerCount: 2
Fore
SplineSet
1125 68 m 2,0,-1
 1132 68 l 1,1,-1
 1133 68 l 2,2,3
 1162 67 1162 67 1172 53 c 0,4,5
 1181 41 1181 41 1177 23 c 0,6,7
 1174 11 1174 11 1163 1 c 0,8,9
 1157 -4 1157 -4 1148 -7 c 2,10,-1
 1086 -34 l 2,11,12
 1018 -63 1018 -63 975 -63 c 0,13,14
 865 -63 865 -63 800 34 c 2,15,-1
 509 462 l 1,16,-1
 436 146 l 2,17,18
 428 111 428 111 440 95 c 0,19,20
 446 87 446 87 458 82 c 0,21,22
 508 63 508 63 508 31 c 0,23,24
 508 26 508 26 507 21 c 0,25,26
 503 2 503 2 489 -9 c 128,-1,27
 475 -20 475 -20 457 -20 c 2,28,-1
 124 -20 l 2,29,30
 105 -20 105 -20 96.5 -9 c 128,-1,31
 88 2 88 2 93 21 c 0,32,33
 102 60 102 60 170 82 c 0,34,35
 183 86 183 86 194 95 c 0,36,37
 214 111 214 111 222 146 c 2,38,-1
 478 1258 l 2,39,40
 486 1291 486 1291 474 1308 c 0,41,42
 468 1316 468 1316 456 1320 c 0,43,44
 406 1340 406 1340 406 1373 c 0,45,46
 406 1378 406 1378 407 1383 c 0,47,48
 411 1402 411 1402 425 1413 c 128,-1,49
 439 1424 439 1424 458 1424 c 0,50,51
 512 1424 512 1424 580 1443 c 0,52,53
 634 1458 634 1458 665 1486 c 0,54,55
 679 1499 679 1499 693 1499 c 0,56,57
 696 1499 696 1499 698 1499 c 0,58,59
 723 1495 723 1495 732.5 1483 c 128,-1,60
 742 1471 742 1471 738 1456 c 2,61,-1
 544 616 l 1,62,63
 679 707 679 707 1046 947 c 0,64,65
 1080 970 1080 970 1111 970 c 0,66,67
 1131 970 1131 970 1149 960 c 0,68,69
 1174 944 1174 944 1199.5 928 c 128,-1,70
 1225 912 1225 912 1227 910.5 c 128,-1,71
 1229 909 1229 909 1232 905 c 0,72,73
 1240 894 1240 894 1237 880 c 0,74,75
 1235 870 1235 870 1229 862 c 2,76,-1
 1157 754 l 2,77,78
 1154 751 1154 751 1152 748 c 0,79,80
 1145 742 1145 742 1138.5 742 c 128,-1,81
 1132 742 1132 742 1127 745 c 2,82,-1
 1084 773 l 2,83,84
 1062 787 1062 787 1039 787 c 128,-1,85
 1016 787 1016 787 987 768 c 0,86,87
 885 700 885 700 701 578 c 1,88,-1
 959 189 l 2,89,90
 1016 102 1016 102 1051 84 c 0,91,92
 1084 68 1084 68 1125 68 c 2,0,-1
EndSplineSet
Validated: 1
EndChar

StartChar: l
Encoding: 108 108 79
Width: 597
GlyphClass: 1
Flags: W
LayerCount: 2
Fore
SplineSet
436 146 m 2,0,1
 428 111 428 111 440 95 c 0,2,3
 446 87 446 87 458 82 c 0,4,5
 508 63 508 63 508 31 c 0,6,7
 508 26 508 26 507 21 c 0,8,9
 503 2 503 2 489 -9 c 128,-1,10
 475 -20 475 -20 457 -20 c 2,11,-1
 124 -20 l 2,12,13
 105 -20 105 -20 96.5 -9 c 128,-1,14
 88 2 88 2 93 21 c 0,15,16
 102 60 102 60 170 82 c 0,17,18
 183 86 183 86 194 95 c 0,19,20
 214 111 214 111 222 146 c 2,21,-1
 478 1258 l 2,22,23
 486 1291 486 1291 474 1308 c 0,24,25
 468 1316 468 1316 456 1320 c 0,26,27
 406 1340 406 1340 406 1373 c 0,28,29
 406 1378 406 1378 407 1383 c 0,30,31
 411 1402 411 1402 425 1413 c 128,-1,32
 439 1424 439 1424 458 1424 c 0,33,34
 512 1424 512 1424 580 1443 c 0,35,36
 634 1458 634 1458 665 1486 c 0,37,38
 679 1499 679 1499 693 1499 c 0,39,40
 696 1499 696 1499 698 1499 c 0,41,42
 723 1495 723 1495 732.5 1483 c 128,-1,43
 742 1471 742 1471 738 1456 c 2,44,-1
 436 146 l 2,0,1
EndSplineSet
Validated: 1
EndChar

StartChar: m
Encoding: 109 109 80
Width: 1773
GlyphClass: 1
Flags: W
LayerCount: 2
Fore
SplineSet
427 146 m 2,0,1
 419 111 419 111 431 95 c 0,2,3
 437 87 437 87 449 82 c 0,4,5
 499 63 499 63 499 31 c 0,6,7
 499 26 499 26 498 21 c 0,8,9
 494 2 494 2 480 -9 c 128,-1,10
 466 -20 466 -20 448 -20 c 2,11,-1
 115 -20 l 2,12,13
 96 -20 96 -20 87.5 -9 c 128,-1,14
 79 2 79 2 84 21 c 0,15,16
 93 60 93 60 161 82 c 0,17,18
 174 86 174 86 185 95 c 0,19,20
 205 111 205 111 213 146 c 2,21,-1
 360 783 l 2,22,23
 368 816 368 816 355 833 c 0,24,25
 349 841 349 841 337 845 c 0,26,27
 288 865 288 865 288 897 c 0,28,29
 288 903 288 903 289 908 c 0,30,31
 293 927 293 927 306.5 938 c 128,-1,32
 320 949 320 949 339 949 c 0,33,34
 393 949 393 949 461 968 c 0,35,36
 515 983 515 983 546 1011 c 0,37,38
 560 1024 560 1024 574 1024 c 0,39,40
 577 1024 577 1024 579 1024 c 0,41,42
 604 1020 604 1020 613.5 1008 c 128,-1,43
 623 996 623 996 619 981 c 2,44,-1
 597 885 l 1,45,46
 620 893 620 893 644 902 c 0,47,48
 707 925 707 925 777 947 c 1,49,50
 933 982 933 982 954.5 982 c 128,-1,51
 976 982 976 982 977 982 c 0,52,53
 1072 982 1072 982 1139 921 c 0,54,55
 1156 906 1156 906 1167 886 c 1,56,57
 1191 894 1191 894 1212 902 c 0,58,59
 1275 925 1275 925 1364.5 953.5 c 128,-1,60
 1454 982 1454 982 1547 982 c 128,-1,61
 1640 982 1640 982 1707 921 c 0,62,63
 1766 867 1766 867 1766 738 c 0,64,65
 1766 643 1766 643 1734 506 c 2,66,-1
 1651 146 l 2,67,68
 1648 133 1648 133 1648 122 c 0,69,70
 1648 92 1648 92 1673 82 c 0,71,72
 1723 63 1723 63 1723 33 c 0,73,74
 1723 28 1723 28 1722 23 c 0,75,76
 1712 -20 1712 -20 1672 -20 c 2,77,-1
 1435 -20 l 2,78,79
 1398 -20 1398 -20 1406 13 c 2,80,-1
 1520 506 l 2,81,82
 1540 595 1540 595 1540 661 c 0,83,84
 1540 750 1540 750 1503 798 c 0,85,86
 1462 851 1462 851 1386 851 c 0,87,88
 1328 851 1328 851 1192 803 c 1,89,90
 1197 772 1197 772 1197 734 c 0,91,92
 1197 640 1197 640 1166 506 c 2,93,-1
 1083 146 l 2,94,95
 1080 133 1080 133 1080 122 c 0,96,97
 1080 92 1080 92 1105 82 c 0,98,99
 1155 63 1155 63 1155 31 c 0,100,101
 1156 26 1156 26 1154 20 c 0,102,103
 1144 -20 1144 -20 1104 -20 c 2,104,-1
 771 -20 l 2,105,106
 730 -20 730 -20 739.5 20 c 128,-1,107
 749 60 749 60 817 82 c 0,108,109
 857 95 857 95 869 146 c 2,110,-1
 952 506 l 2,111,112
 973 596 973 596 973 663 c 0,113,114
 973 753 973 753 935 800 c 0,115,116
 895 851 895 851 818 851 c 0,117,118
 749 851 749 851 574 785 c 1,119,-1
 427 146 l 2,0,1
EndSplineSet
Validated: 1
EndChar

StartChar: n
Encoding: 110 110 81
Width: 1211
GlyphClass: 1
Flags: W
LayerCount: 2
Fore
SplineSet
414 146 m 2,0,1
 406 111 406 111 418 95 c 0,2,3
 424 87 424 87 436 82 c 0,4,5
 486 63 486 63 486 31 c 0,6,7
 486 26 486 26 485 21 c 0,8,9
 481 2 481 2 467 -9 c 128,-1,10
 453 -20 453 -20 435 -20 c 2,11,-1
 102 -20 l 2,12,13
 83 -20 83 -20 74.5 -9 c 128,-1,14
 66 2 66 2 71 21 c 0,15,16
 80 60 80 60 148 82 c 0,17,18
 161 86 161 86 172 95 c 0,19,20
 192 111 192 111 200 146 c 2,21,-1
 347 783 l 2,22,23
 355 816 355 816 342 833 c 0,24,25
 336 841 336 841 324 845 c 0,26,27
 275 865 275 865 275 897 c 0,28,29
 275 903 275 903 276 908 c 0,30,31
 280 927 280 927 293.5 938 c 128,-1,32
 307 949 307 949 326 949 c 0,33,34
 380 949 380 949 448 968 c 0,35,36
 502 983 502 983 533 1011 c 0,37,38
 547 1024 547 1024 561 1024 c 0,39,40
 564 1024 564 1024 566 1024 c 0,41,42
 591 1020 591 1020 600.5 1008 c 128,-1,43
 610 996 610 996 606 981 c 2,44,-1
 583 878 l 1,45,46
 616 890 616 890 648 902 c 0,47,48
 711 925 711 925 801 953.5 c 128,-1,49
 891 982 891 982 984 982 c 128,-1,50
 1077 982 1077 982 1144 921 c 0,51,52
 1203 867 1203 867 1203 738 c 0,53,54
 1203 643 1203 643 1171 506 c 2,55,-1
 1088 146 l 2,56,57
 1085 133 1085 133 1085 122 c 0,58,59
 1085 92 1085 92 1110 82 c 0,60,61
 1160 63 1160 63 1160 33 c 0,62,63
 1160 28 1160 28 1159 23 c 0,64,65
 1149 -20 1149 -20 1109 -20 c 2,66,-1
 872 -20 l 2,67,68
 835 -20 835 -20 843 13 c 2,69,-1
 957 506 l 2,70,71
 977 595 977 595 977 661 c 0,72,73
 977 750 977 750 940 798 c 0,74,75
 900 851 900 851 824 851 c 0,76,77
 752 851 752 851 559 777 c 1,78,-1
 414 146 l 2,0,1
EndSplineSet
Validated: 1
EndChar

StartChar: o
Encoding: 111 111 82
Width: 1107
GlyphClass: 1
Flags: W
LayerCount: 2
Fore
SplineSet
745 869 m 2,0,1
 638 869 638 869 531 759 c 0,2,3
 424 648 424 648 385 480 c 0,4,5
 369 411 369 411 369 350 c 0,6,7
 369 262 369 262 402 189 c 0,8,9
 456 69 456 69 569 63 c 1,10,-1
 583 63 l 2,11,12
 689 63 689 63 795 172.5 c 128,-1,13
 901 282 901 282 940 450 c 0,14,15
 956 518 956 518 956 580 c 0,16,17
 956 669 956 669 922 742 c 0,18,19
 868 862 868 862 756 869 c 1,20,-1
 745 869 l 2,0,1
527 -45 m 2,21,22
 327 -45 327 -45 214 105 c 0,23,24
 135 210 135 210 135 344 c 0,25,26
 135 401 135 401 149 462 c 1,27,-1
 149 465 l 1,28,29
 203 693 203 693 409 848 c 0,30,31
 436 869 436 869 479 882 c 0,32,33
 491 886 491 886 705 956 c 0,34,35
 768 976 768 976 799 976 c 2,36,-1
 802 976 l 1,37,38
 802 976 802 976 803 976 c 0,39,40
 1004 968 1004 968 1110 820 c 0,41,42
 1185 716 1185 716 1185 582 c 0,43,44
 1185 526 1185 526 1172 465 c 2,45,-1
 1171 459 l 1,46,47
 1123 251 1123 251 941 106 c 128,-1,48
 759 -39 759 -39 544 -45 c 1,49,50
 544 -45 544 -45 543 -45 c 2,51,-1
 527 -45 l 2,21,22
EndSplineSet
Validated: 1
EndChar

StartChar: p
Encoding: 112 112 83
Width: 1197
GlyphClass: 1
Flags: W
LayerCount: 2
Fore
SplineSet
300 -441 m 2,0,1
 292 -476 292 -476 304 -492 c 0,2,3
 310 -500 310 -500 322 -505 c 0,4,5
 372 -524 372 -524 372 -556 c 0,6,7
 372 -561 372 -561 371 -566 c 0,8,9
 367 -585 367 -585 353.5 -596 c 128,-1,10
 340 -607 340 -607 322 -607 c 2,11,-1
 -11 -607 l 2,12,13
 -30 -607 -30 -607 -38.5 -596 c 128,-1,14
 -47 -585 -47 -585 -43 -566 c 0,15,16
 -34 -527 -34 -527 34 -505 c 0,17,18
 47 -501 47 -501 58 -492 c 0,19,20
 78 -476 78 -476 86 -441 c 2,21,-1
 369 783 l 2,22,23
 377 816 377 816 364 833 c 0,24,25
 358 841 358 841 346 845 c 0,26,27
 297 865 297 865 297 897 c 0,28,29
 297 903 297 903 298 908 c 0,30,31
 302 927 302 927 315.5 938 c 128,-1,32
 329 949 329 949 348 949 c 0,33,34
 402 949 402 949 470 968 c 0,35,36
 524 983 524 983 555 1011 c 0,37,38
 569 1024 569 1024 583 1024 c 0,39,40
 586 1024 586 1024 588 1024 c 0,41,42
 613 1020 613 1020 622.5 1008 c 128,-1,43
 632 996 632 996 628 981 c 2,44,-1
 603 872 l 1,45,-1
 880 963 l 2,46,47
 917 975 917 975 943 975 c 2,48,-1
 984 975 l 2,49,50
 1135 975 1135 975 1216 851 c 0,51,52
 1276 758 1276 758 1276 634 c 0,53,54
 1276 569 1276 569 1260 496 c 0,55,56
 1246 434 1246 434 1229 389 c 0,57,58
 1194 297 1194 297 1128 220 c 0,59,60
 1079 162 1079 162 1009 118 c 0,61,62
 973 95 973 95 941 81 c 0,63,64
 693 -4 693 -4 582 -38 c 0,65,66
 559 -45 559 -45 529.5 -45 c 128,-1,67
 500 -45 500 -45 458 -34 c 0,68,69
 441 -30 441 -30 399 -14 c 1,70,-1
 300 -441 l 2,0,1
1040 557 m 0,71,72
 1040 565 1040 565 1040 572 c 0,73,74
 1040 658 1040 658 1008 722 c 0,75,76
 951 835 951 835 824 835 c 0,77,78
 774 835 774 835 706 812 c 2,79,-1
 580 770 l 1,80,-1
 441 170 l 1,81,82
 468 143 468 143 526 111 c 0,83,84
 570 87 570 87 599 81 c 0,85,86
 610 78 610 78 623 78 c 0,87,88
 649 78 649 78 683 88 c 0,89,90
 769 113 769 113 793 124 c 0,91,92
 852 144 852 144 889 177 c 0,93,94
 938 219 938 219 990 331 c 0,95,96
 1011 377 1011 377 1025 436 c 0,97,98
 1039 496 1039 496 1040 557 c 0,71,72
EndSplineSet
Validated: 1
EndChar

StartChar: q
Encoding: 113 113 84
Width: 1173
GlyphClass: 1
Flags: W
LayerCount: 2
Fore
SplineSet
911 -440 m 2,0,1
 903 -475 903 -475 916 -492 c 0,2,3
 922 -500 922 -500 934 -504 c 0,4,5
 983 -524 983 -524 983 -556 c 0,6,7
 983 -562 983 -562 982 -567 c 0,8,9
 978 -585 978 -585 964.5 -596 c 128,-1,10
 951 -607 951 -607 932 -607 c 2,11,-1
 593 -607 l 2,12,13
 574 -607 574 -607 565.5 -596 c 128,-1,14
 557 -585 557 -585 561.5 -566 c 128,-1,15
 566 -547 566 -547 585 -531.5 c 128,-1,16
 604 -516 604 -516 639 -504 c 0,17,18
 652 -500 652 -500 661 -492 c 0,19,20
 682 -475 682 -475 690 -440 c 2,21,-1
 805 55 l 1,22,-1
 536 -33 l 2,23,24
 499 -45 499 -45 474 -45 c 2,25,-1
 433 -45 l 2,26,27
 282 -45 282 -45 200 79 c 0,28,29
 140 171 140 171 140 294 c 0,30,31
 140 360 140 360 157 434 c 0,32,33
 171 496 171 496 188 541 c 0,34,35
 223 633 223 633 289 710 c 0,36,37
 338 768 338 768 407 812 c 0,38,39
 443 835 443 835 476 849 c 0,40,41
 724 934 724 934 834 968 c 0,42,43
 857 975 857 975 887 975 c 128,-1,44
 917 975 917 975 959 964 c 0,45,46
 988 957 988 957 1099 914 c 0,47,48
 1105 912 1105 912 1109 912 c 0,49,50
 1115 912 1115 912 1116.5 914 c 128,-1,51
 1118 916 1118 916 1120 920 c 0,52,53
 1142 956 1142 956 1169 956 c 2,54,-1
 1201 956 l 2,55,56
 1215 956 1215 956 1222 946.5 c 128,-1,57
 1229 937 1229 937 1225 919 c 2,58,-1
 1213 868 l 1,59,-1
 1044 134 l 1,60,-1
 911 -440 l 2,0,1
377 373 m 0,61,62
 377 365 377 365 377 358 c 0,63,64
 377 272 377 272 409 208 c 0,65,66
 466 95 466 95 593 95 c 0,67,68
 643 95 643 95 710 118 c 2,69,-1
 828 157 l 1,70,-1
 969 766 l 1,71,72
 943 790 943 790 891 819 c 0,73,74
 847 843 847 843 818 849 c 0,75,76
 807 852 807 852 794 852 c 0,77,78
 768 852 768 852 733 842 c 0,79,80
 647 817 647 817 624 806 c 0,81,82
 565 786 565 786 528 753 c 0,83,84
 479 711 479 711 426 599 c 0,85,86
 405 553 405 553 392 494 c 0,87,88
 378 434 378 434 377 373 c 0,61,62
EndSplineSet
Validated: 1
EndChar

StartChar: r
Encoding: 114 114 85
Width: 815
GlyphClass: 1
Flags: W
LayerCount: 2
Fore
SplineSet
436 146 m 2,0,1
 428 111 428 111 440 95 c 0,2,3
 446 87 446 87 458 82 c 0,4,5
 508 63 508 63 508 31 c 0,6,7
 508 26 508 26 507 21 c 0,8,9
 503 2 503 2 489 -9 c 128,-1,10
 475 -20 475 -20 457 -20 c 2,11,-1
 124 -20 l 2,12,13
 105 -20 105 -20 96.5 -9 c 128,-1,14
 88 2 88 2 93 21 c 0,15,16
 102 60 102 60 170 82 c 0,17,18
 183 86 183 86 194 95 c 0,19,20
 214 111 214 111 222 146 c 2,21,-1
 369 783 l 2,22,23
 377 816 377 816 364 833 c 0,24,25
 358 841 358 841 346 845 c 0,26,27
 297 865 297 865 297 897 c 0,28,29
 297 903 297 903 298 908 c 0,30,31
 302 927 302 927 315.5 938 c 128,-1,32
 329 949 329 949 348 949 c 0,33,34
 402 949 402 949 470 968 c 0,35,36
 524 983 524 983 555 1011 c 0,37,38
 569 1024 569 1024 583 1024 c 0,39,40
 586 1024 586 1024 588 1024 c 0,41,42
 613 1020 613 1020 622.5 1008 c 128,-1,43
 632 996 632 996 628 981 c 2,44,-1
 607 888 l 1,45,-1
 732 932 l 2,46,47
 831 966 831 966 863 975 c 0,48,49
 880 980 880 980 901 980 c 0,50,51
 941 980 941 980 997 959 c 0,52,53
 1001 958 1001 958 1003 954 c 0,54,55
 1008 948 1008 948 1006 940 c 0,56,57
 1006 939 1006 939 926 687 c 0,58,59
 923 680 923 680 916 674.5 c 128,-1,60
 909 669 909 669 901 669 c 2,61,-1
 855 669 l 2,62,63
 847 669 847 669 843.5 674 c 128,-1,64
 840 679 840 679 840 684 c 0,65,66
 837 750 837 750 812 782.5 c 128,-1,67
 787 815 787 815 739 815 c 0,68,69
 658 815 658 815 610 747 c 0,70,71
 567 686 567 686 546 622 c 1,72,-1
 436 146 l 2,0,1
EndSplineSet
Validated: 1
EndChar

StartChar: s
Encoding: 115 115 86
Width: 884
GlyphClass: 1
Flags: W
LayerCount: 2
Fore
SplineSet
883 659 m 2,0,-1
 880 659 l 2,1,2
 867 659 867 659 859.5 669 c 128,-1,3
 852 679 852 679 848 695 c 0,4,5
 830 765 830 765 776.5 812 c 128,-1,6
 723 859 723 859 651 862 c 2,7,-1
 647 862 l 2,8,9
 590 862 590 862 527 833 c 0,10,11
 469 806 469 806 444 749 c 1,12,13
 444 749 444 749 443 749 c 0,14,15
 433 729 433 729 431 713 c 0,16,17
 423 680 423 680 440 657 c 0,18,19
 449 645 449 645 465 636 c 0,20,21
 519 606 519 606 624.5 581 c 128,-1,22
 730 556 730 556 827 506 c 0,23,24
 909 463 909 463 909 350 c 0,25,26
 909 319 909 319 903 284 c 0,27,28
 903 283 903 283 902 283 c 2,29,-1
 900 273 l 2,30,31
 881 192 881 192 798 110 c 0,32,33
 716 28 716 28 609.5 -6 c 128,-1,34
 503 -40 503 -40 410 -43 c 2,35,36
 410 -43 410 -43 409 -43 c 2,37,-1
 382 -43 l 2,38,39
 256 -43 256 -43 149 -10 c 0,40,41
 140 -7 140 -7 138 2 c 2,42,-1
 108 222 l 2,43,44
 108 225 108 225 108.5 227.5 c 128,-1,45
 109 230 109 230 117 251 c 0,46,47
 121 265 121 265 133 274.5 c 128,-1,48
 145 284 145 284 163 284 c 2,49,-1
 165 284 l 2,50,51
 186 284 186 284 195 249 c 1,52,53
 195 249 195 249 195 248 c 0,54,55
 216 154 216 154 269.5 116 c 128,-1,56
 323 78 323 78 418 75 c 2,57,-1
 430 75 l 2,58,59
 497 75 497 75 590 108 c 0,60,61
 622 119 622 119 645 138 c 0,62,63
 682 168 682 168 695 218 c 2,64,-1
 697 224 l 2,65,66
 702 244 702 244 702 260 c 0,67,68
 702 290 702 290 686 310 c 0,69,70
 670 331 670 331 635 342 c 2,71,-1
 454 397 l 2,72,73
 367 423 367 423 292 483 c 0,74,75
 233 530 233 530 233 611 c 0,76,77
 233 639 233 639 240 672 c 2,78,-1
 241 677 l 1,79,80
 281 844 281 844 421 913 c 0,81,82
 555 979 555 979 692 979 c 0,83,84
 705 979 705 979 717 978 c 0,85,86
 867 970 867 970 984 886 c 0,87,88
 993 880 993 880 989 869 c 0,89,90
 989 868 989 868 927 691 c 0,91,92
 922 677 922 677 910.5 668 c 128,-1,93
 899 659 899 659 883 659 c 2,0,-1
EndSplineSet
Validated: 1
EndChar

StartChar: t
Encoding: 116 116 87
Width: 648
GlyphClass: 1
Flags: W
LayerCount: 2
Fore
SplineSet
258 820 m 2,0,1
 240 820 240 820 233 831 c 0,2,3
 224 843 224 843 228 860 c 1,4,-1
 228 862 l 1,5,6
 232 880 232 880 248 893 c 0,7,8
 257 900 257 900 273.5 907 c 128,-1,9
 290 914 290 914 334 935 c 0,10,11
 379 957 379 957 390 960 c 1,12,-1
 426 1116 l 2,13,14
 440 1175 440 1175 472 1200 c 0,15,16
 500 1222 500 1222 559 1247 c 0,17,18
 620 1273 620 1273 639.5 1273 c 128,-1,19
 659 1273 659 1273 668 1261 c 128,-1,20
 677 1249 677 1249 672 1227 c 2,21,-1
 612 968 l 1,22,-1
 833 973 l 2,23,24
 848 973 848 973 855.5 963 c 128,-1,25
 863 953 863 953 858 932 c 128,-1,26
 853 911 853 911 844 889 c 0,27,28
 831 859 831 859 810.5 842.5 c 128,-1,29
 790 826 790 826 765 826 c 0,30,31
 696 826 696 826 580 827 c 1,32,-1
 440 220 l 2,33,34
 434 196 434 196 434 176 c 0,35,36
 434 127 434 127 467 100 c 0,37,38
 516 58 516 58 556 53 c 0,39,40
 563 52 563 52 566.5 46.5 c 128,-1,41
 570 41 570 41 569 33 c 2,42,-1
 561 0 l 2,43,44
 559 -8 559 -8 551.5 -14 c 128,-1,45
 544 -20 544 -20 536 -20 c 0,46,47
 384 -20 384 -20 287 9 c 0,48,49
 256 18 256 18 237 43 c 0,50,51
 211 77 211 77 211 139 c 0,52,53
 211 186 211 186 226 250 c 2,54,-1
 358 824 l 1,55,56
 258 820 258 820 258 820 c 2,0,1
EndSplineSet
Validated: 1
EndChar

StartChar: u
Encoding: 117 117 88
Width: 1217
GlyphClass: 1
Flags: W
LayerCount: 2
Fore
SplineSet
501 131 m 0,0,1
 541 80 541 80 615.5 80 c 128,-1,2
 690 80 690 80 881 153 c 1,3,-1
 1027 783 l 2,4,5
 1035 816 1035 816 1022 833 c 0,6,7
 1016 841 1016 841 1004 845 c 0,8,9
 955 865 955 865 955 897 c 0,10,11
 955 903 955 903 956 908 c 0,12,13
 960 927 960 927 973.5 938 c 128,-1,14
 987 949 987 949 1006 949 c 0,15,16
 1060 950 1060 950 1123 967 c 0,17,18
 1181 983 1181 983 1214 1012 c 0,19,20
 1229 1025 1229 1025 1247 1025 c 0,21,22
 1258 1025 1258 1025 1266 1019 c 0,23,24
 1292 1004 1292 1004 1286 981 c 2,25,-1
 1094 146 l 2,26,27
 1086 111 1086 111 1098 95 c 0,28,29
 1104 87 1104 87 1116 82 c 0,30,31
 1166 63 1166 63 1166 33 c 0,32,33
 1166 28 1166 28 1165 23 c 0,34,35
 1160 3 1160 3 1146 -8.5 c 128,-1,36
 1132 -20 1132 -20 1114 -20 c 2,37,-1
 878 -20 l 2,38,39
 860 -20 860 -20 853 -10.5 c 128,-1,40
 846 -1 846 -1 849 13 c 2,41,-1
 858 51 l 1,42,43
 592 -50 592 -50 453 -50 c 0,44,45
 363 -50 363 -50 297 10 c 0,46,47
 233 68 233 68 233 204 c 0,48,49
 233 297 233 297 263 425 c 2,50,-1
 346 783 l 2,51,52
 354 816 354 816 341 833 c 0,53,54
 335 841 335 841 323 845 c 0,55,56
 274 865 274 865 274 897 c 0,57,58
 274 903 274 903 275 908 c 0,59,60
 279 927 279 927 292.5 938 c 128,-1,61
 306 949 306 949 325 949 c 0,62,63
 379 950 379 950 442 967 c 0,64,65
 500 983 500 983 533 1012 c 0,66,67
 547 1024 547 1024 563 1024 c 0,68,69
 574 1024 574 1024 585 1018 c 0,70,71
 611 1003 611 1003 605 981 c 2,72,-1
 572 834 l 2,73,74
 490 482 490 482 489 482 c 2,75,-1
 474 415 l 2,76,77
 457 340 457 340 457 281 c 0,78,79
 457 186 457 186 501 131 c 0,0,1
EndSplineSet
Validated: 1
EndChar

StartChar: v
Encoding: 118 118 89
Width: 1036
GlyphClass: 1
Flags: W
LayerCount: 2
Fore
SplineSet
228 886 m 0,0,1
 219 898 219 898 222.5 914.5 c 128,-1,2
 226 931 226 931 237 940 c 128,-1,3
 248 949 248 949 262 949 c 2,4,-1
 590 949 l 2,5,6
 614 949 614 949 623.5 937 c 128,-1,7
 633 925 633 925 628 906 c 0,8,9
 626 897 626 897 619 888 c 0,10,11
 609 877 609 877 589 862 c 0,12,13
 565 844 565 844 561 827 c 0,14,15
 559 820 559 820 561 813 c 2,16,17
 561 813 561 813 665 233 c 1,18,-1
 996 725 l 2,19,20
 1007 741 1007 741 1011 757 c 0,21,22
 1017 785 1017 785 1001 813 c 2,23,-1
 977 853 l 2,24,25
 974 860 974 860 974 867 c 0,26,27
 976 875 976 875 987 882 c 2,28,-1
 1093 953 l 2,29,30
 1106 962 1106 962 1118 961 c 0,31,32
 1134 961 1134 961 1144 948 c 0,33,34
 1159 929 1159 929 1187 891 c 0,35,36
 1199 876 1199 876 1199 854 c 0,37,38
 1199 842 1199 842 1195 828 c 0,39,40
 1187 792 1187 792 1106 680 c 1,41,-1
 640 -8 l 2,42,43
 632 -20 632 -20 624 -28 c 0,44,45
 610 -39 610 -39 594 -39 c 2,46,-1
 520 -39 l 2,47,48
 500 -39 500 -39 489 -26 c 0,49,50
 484 -19 484 -19 482 -8 c 2,51,-1
 369 592 l 1,52,-1
 332 792 l 2,53,54
 323 843 323 843 278 858 c 0,55,56
 240 870 240 870 228 886 c 0,0,1
EndSplineSet
Validated: 1
EndChar

StartChar: w
Encoding: 119 119 90
Width: 1647
GlyphClass: 1
Flags: W
LayerCount: 2
Fore
SplineSet
1607 725 m 0,0,1
 1618 742 1618 742 1623 764 c 128,-1,2
 1628 786 1628 786 1612 813 c 0,3,4
 1604 826 1604 826 1588 852 c 0,5,6
 1584 859 1584 859 1585 866 c 0,7,8
 1587 874 1587 874 1596 881 c 2,9,-1
 1702 952 l 2,10,11
 1714 961 1714 961 1726 961 c 0,12,13
 1743 961 1743 961 1754 949 c 0,14,15
 1755 948 1755 948 1799 891 c 0,16,17
 1815 866 1815 866 1808 838 c 0,18,19
 1802 814 1802 814 1783 779.5 c 128,-1,20
 1764 745 1764 745 1717 680 c 0,21,22
 1251 -8 1251 -8 1251 -9 c 0,23,24
 1241 -22 1241 -22 1230 -30.5 c 128,-1,25
 1219 -39 1219 -39 1205 -39 c 2,26,-1
 1121 -39 l 2,27,28
 1106 -39 1106 -39 1100 -31 c 128,-1,29
 1094 -23 1094 -23 1091 -7 c 0,30,31
 1089 5 1089 5 1088 14 c 2,32,-1
 994 515 l 1,33,34
 640 -8 640 -8 640 -9 c 0,35,36
 630 -22 630 -22 619 -30.5 c 128,-1,37
 608 -39 608 -39 594 -39 c 2,38,-1
 510 -39 l 2,39,40
 491 -39 491 -39 486 -28 c 0,41,42
 479 -14 479 -14 478 15 c 1,43,-1
 332 792 l 2,44,45
 325 824 325 824 306 839 c 0,46,47
 285 856 285 856 266.5 864.5 c 128,-1,48
 248 873 248 873 240.5 879 c 128,-1,49
 233 885 233 885 229.5 890 c 128,-1,50
 226 895 226 895 224 904 c 128,-1,51
 222 913 222 913 223 919 c 0,52,53
 225 929 225 929 230 935 c 0,54,55
 244 951 244 951 263 951 c 2,56,-1
 591 951 l 2,57,58
 603 951 603 951 615 943 c 0,59,60
 618 941 618 941 622 935 c 0,61,62
 632 922 632 922 628 904 c 0,63,64
 626 896 626 896 619 889 c 0,65,66
 610 879 610 879 589.5 864 c 128,-1,67
 569 849 569 849 565.5 843 c 128,-1,68
 562 837 562 837 560.5 829.5 c 128,-1,69
 559 822 559 822 561 813 c 2,70,71
 561 813 561 813 667 218 c 1,72,-1
 964 676 l 1,73,-1
 943 792 l 2,74,75
 936 824 936 824 917 839 c 0,76,77
 896 856 896 856 877 864 c 0,78,79
 849 878 849 878 840 891 c 0,80,81
 831 903 831 903 834 920 c 0,82,83
 836 930 836 930 841 935 c 0,84,85
 855 951 855 951 874 951 c 2,86,-1
 1202 951 l 2,87,88
 1214 951 1214 951 1226 943 c 0,89,90
 1229 941 1229 941 1233 935 c 0,91,92
 1243 922 1243 922 1239 904 c 0,93,94
 1237 896 1237 896 1230 889 c 0,95,96
 1221 879 1221 879 1200.5 864 c 128,-1,97
 1180 849 1180 849 1176.5 843 c 128,-1,98
 1173 837 1173 837 1171.5 829.5 c 128,-1,99
 1170 822 1170 822 1172 813 c 2,100,101
 1172 813 1172 813 1278 218 c 1,102,103
 1443 472 1443 472 1607 725 c 0,0,1
EndSplineSet
Validated: 1
EndChar

StartChar: x
Encoding: 120 120 91
Width: 1098
GlyphClass: 1
Flags: W
LayerCount: 2
Fore
SplineSet
237 -20 m 2,0,-1
 29 -20 l 2,1,2
 14 -20 14 -20 8.5 -12.5 c 128,-1,3
 3 -5 3 -5 5 6 c 0,4,5
 8 19 8 19 23 31 c 0,6,7
 45 49 45 49 93 60 c 0,8,9
 132 69 132 69 172 110 c 2,10,-1
 527 448 l 1,11,-1
 357 821 l 2,12,13
 349 841 349 841 319 858 c 0,14,15
 303 867 303 867 286 874 c 128,-1,16
 269 881 269 881 259 889 c 0,17,18
 244 899 244 899 240 904 c 128,-1,19
 236 909 236 909 234.5 913.5 c 128,-1,20
 233 918 233 918 235 926 c 128,-1,21
 237 934 237 934 244 940 c 128,-1,22
 251 946 251 946 258.5 947.5 c 128,-1,23
 266 949 266 949 275 949 c 2,24,-1
 597 949 l 2,25,26
 622 949 622 949 633 927 c 0,27,28
 638 918 638 918 635 906 c 0,29,30
 631 888 631 888 610 878 c 0,31,32
 604 875 604 875 601 867 c 0,33,34
 599 859 599 859 605 848 c 2,35,-1
 708 620 l 1,36,-1
 906 809 l 2,37,38
 1024 921 1024 921 1055 944 c 0,39,40
 1073 957 1073 957 1096 957 c 0,41,42
 1125 957 1125 957 1162 935 c 0,43,44
 1180 924 1180 924 1199.5 912.5 c 128,-1,45
 1219 901 1219 901 1221 899.5 c 128,-1,46
 1223 898 1223 898 1226 894 c 0,47,48
 1234 884 1234 884 1231 869 c 0,49,50
 1229 859 1229 859 1221 849 c 2,51,-1
 1146 745 l 2,52,53
 1144 742 1144 742 1141 740 c 0,54,55
 1134 734 1134 734 1127.5 734 c 128,-1,56
 1121 734 1121 734 1116 736 c 0,57,58
 1084 756 1084 756 1057 771 c 0,59,60
 1053 773 1053 773 1050 773 c 0,61,62
 1036 773 1036 773 1008 746 c 2,63,-1
 760 509 l 1,64,65
 944 108 944 108 945 104 c 128,-1,66
 946 100 946 100 952 94 c 0,67,68
 963 80 963 80 985 69 c 0,69,70
 998 62 998 62 1013 56 c 0,71,72
 1061 34 1061 34 1066 16 c 0,73,74
 1068 11 1068 11 1066 3 c 128,-1,75
 1064 -5 1064 -5 1056.5 -11 c 128,-1,76
 1049 -17 1049 -17 1041.5 -18.5 c 128,-1,77
 1034 -20 1034 -20 1025 -20 c 2,78,-1
 703 -20 l 2,79,80
 678 -20 678 -20 667 1 c 0,81,82
 662 10 662 10 665 22 c 0,83,84
 669 39 669 39 690 51 c 0,85,86
 691 51 691 51 692 52 c 0,87,88
 697 55 697 55 699 61 c 2,89,-1
 699 62 l 2,90,91
 701 70 701 70 696 81 c 2,92,-1
 580 337 l 1,93,-1
 315 85 l 2,94,95
 295 65 295 65 293 55 c 2,96,-1
 292 52 l 1,97,-1
 291 44 l 2,98,99
 294 37 294 37 291.5 25 c 128,-1,100
 289 13 289 13 277 2 c 0,101,102
 257 -20 257 -20 237 -20 c 2,0,-1
EndSplineSet
Validated: 1
EndChar

StartChar: y
Encoding: 121 121 92
Width: 1036
GlyphClass: 1
Flags: W
LayerCount: 2
Fore
SplineSet
186 -586 m 2,0,-1
 103 -586 l 2,1,2
 101 -586 101 -586 100 -586 c 0,3,4
 85 -584 85 -584 77 -573.5 c 128,-1,5
 69 -563 69 -563 73 -544 c 2,6,-1
 100 -429 l 2,7,8
 102 -421 102 -421 109.5 -415 c 128,-1,9
 117 -409 117 -409 125 -409 c 2,10,-1
 170 -409 l 2,11,12
 208 -409 208 -409 234 -387 c 0,13,14
 246 -377 246 -377 258 -361 c 0,15,16
 347 -236 347 -236 488 -37 c 1,17,-1
 332 792 l 2,18,19
 326 822 326 822 304 840 c 0,20,21
 281 858 281 858 259 868 c 128,-1,22
 237 878 237 878 229 888 c 0,23,24
 224 894 224 894 222.5 904 c 128,-1,25
 221 914 221 914 223.5 924.5 c 128,-1,26
 226 935 226 935 233.5 941 c 128,-1,27
 241 947 241 947 248 949 c 128,-1,28
 255 951 255 951 263 951 c 2,29,-1
 591 951 l 2,30,31
 614 951 614 951 623 939 c 0,32,33
 628 932 628 932 629 916 c 0,34,35
 630 910 630 910 629 905 c 0,36,37
 623 881 623 881 590 865 c 0,38,39
 576 859 576 859 570 850 c 0,40,41
 562 837 562 837 560.5 830.5 c 128,-1,42
 559 824 559 824 562 813 c 2,43,-1
 662 232 l 1,44,-1
 996 725 l 2,45,46
 1007 741 1007 741 1013 766 c 0,47,48
 1018 786 1018 786 1001 813 c 0,49,50
 993 826 993 826 977 852 c 0,51,52
 973 859 973 859 974 866 c 0,53,54
 976 874 976 874 986 881 c 2,55,-1
 1092 952 l 2,56,57
 1105 962 1105 962 1117 962 c 0,58,59
 1133 962 1133 962 1144 948 c 0,60,61
 1159 929 1159 929 1187 891 c 0,62,63
 1205 868 1205 868 1197 838 c 0,64,65
 1186 792 1186 792 1106 680 c 2,66,-1
 357 -422 l 2,67,68
 314 -486 314 -486 276 -533 c 0,69,70
 235 -586 235 -586 186 -586 c 2,0,-1
EndSplineSet
Validated: 1
EndChar

StartChar: z
Encoding: 122 122 93
Width: 1019
GlyphClass: 1
Flags: W
LayerCount: 2
Fore
SplineSet
1081 965 m 2,0,1
 1120 965 1120 965 1141.5 959 c 128,-1,2
 1163 953 1163 953 1172.5 941.5 c 128,-1,3
 1182 930 1182 930 1178 913 c 0,4,5
 1173 892 1173 892 1148 868 c 2,6,-1
 358 99 l 1,7,-1
 751 99 l 2,8,9
 794 101 794 101 830 129 c 0,10,11
 871 161 871 161 927 219 c 0,12,13
 947 240 947 240 956 247 c 128,-1,14
 965 254 965 254 971 257.5 c 128,-1,15
 977 261 977 261 984 261 c 0,16,17
 1001 261 1001 261 1009 250.5 c 128,-1,18
 1017 240 1017 240 1013 223 c 2,19,-1
 977 65 l 2,20,21
 971 38 971 38 963 21 c 0,22,23
 953 -1 953 -1 937 -9 c 0,24,25
 926 -15 926 -15 903.5 -17.5 c 128,-1,26
 881 -20 881 -20 840 -20 c 2,27,-1
 155 -20 l 2,28,29
 80 -19 80 -19 55 -11 c 0,30,31
 46 -8 46 -8 39.5 -0.5 c 128,-1,32
 33 7 33 7 35.5 19 c 128,-1,33
 38 31 38 31 45.5 41 c 128,-1,34
 53 51 53 51 66 64 c 2,35,-1
 852 841 l 1,36,-1
 541 841 l 2,37,38
 497 841 497 841 465 814 c 0,39,40
 427 782 427 782 372 724 c 0,41,42
 343 694 343 694 330 688 c 0,43,44
 322 683 322 683 315 683 c 0,45,46
 297 683 297 683 289 693.5 c 128,-1,47
 281 704 281 704 284 720 c 2,48,-1
 321 879 l 2,49,50
 334 937 334 937 363 954 c 0,51,52
 383 965 383 965 434 965 c 0,53,54
 439 965 439 965 445.5 965 c 128,-1,55
 452 965 452 965 460 965 c 2,56,-1
 1081 965 l 2,0,1
EndSplineSet
Validated: 1
EndChar

StartChar: braceleft
Encoding: 123 123 94
Width: 1024
GlyphClass: 1
Flags: W
LayerCount: 2
Fore
SplineSet
622 961 m 2,0,-1
 671 1173 l 2,1,2
 688 1247 688 1247 721 1326 c 0,3,4
 756 1408 756 1408 818 1457 c 0,5,6
 916 1536 916 1536 1129 1536 c 0,7,8
 1158 1536 1158 1536 1168 1520 c 0,9,10
 1169 1519 1169 1519 1169 1518 c 0,11,12
 1177 1498 1177 1498 1174 1483 c 128,-1,13
 1171 1468 1171 1468 1160 1459 c 0,14,15
 1144 1446 1144 1446 1116 1446 c 0,16,17
 992 1444 992 1444 940 1398 c 1,18,19
 940 1398 940 1398 940 1397 c 0,20,21
 907 1369 907 1369 885.5 1312.5 c 128,-1,22
 864 1256 864 1256 852 1204 c 2,23,-1
 819 1061 l 2,24,25
 801 983 801 983 769 891 c 0,26,27
 728 775 728 775 654 715 c 0,28,29
 597 669 597 669 512 642 c 1,30,31
 606 607 606 607 638 540 c 0,32,33
 657 500 657 500 657 441 c 0,34,35
 657 418 657 418 650.5 360 c 128,-1,36
 644 302 644 302 625 223 c 2,37,-1
 592 80 l 2,38,39
 574 5 574 5 574 -44 c 128,-1,40
 574 -93 574 -93 592 -115 c 0,41,42
 625 -158 625 -158 745 -160 c 0,43,44
 763 -160 763 -160 773 -172 c 0,45,46
 783 -185 783 -185 778 -207 c 0,47,48
 775 -222 775 -222 762 -235 c 0,49,50
 746 -251 746 -251 716 -251 c 0,51,52
 503 -251 503 -251 440 -169 c 0,53,54
 405 -124 405 -124 405 -55 c 0,55,56
 405 -49 405 -49 407 -6 c 128,-1,57
 409 37 409 37 426 112 c 2,58,-1
 475 323 l 2,59,60
 488 378 488 378 489.5 410 c 128,-1,61
 491 442 491 442 491 448 c 0,62,63
 491 497 491 497 472 527 c 0,64,65
 448 559 448 559 397 574 c 128,-1,66
 346 589 346 589 294 593 c 0,67,68
 269 595 269 595 261 612 c 0,69,70
 254 624 254 624 258 643 c 0,71,72
 263 666 263 666 278.5 678 c 128,-1,73
 294 690 294 690 316 693 c 0,74,75
 464 705 464 705 526 760 c 0,76,77
 562 792 562 792 585.5 849 c 128,-1,78
 609 906 609 906 622 961 c 2,0,-1
EndSplineSet
Validated: 1
EndChar

StartChar: bar
Encoding: 124 124 95
Width: 1024
GlyphClass: 1
Flags: W
LayerCount: 2
Fore
SplineSet
799 1510 m 2,0,-1
 940 1510 l 2,1,2
 948 1510 948 1510 952.5 1504 c 128,-1,3
 957 1498 957 1498 955 1490 c 2,4,-1
 559 -227 l 2,5,6
 557 -235 557 -235 549.5 -241 c 128,-1,7
 542 -247 542 -247 534 -247 c 2,8,-1
 393 -247 l 2,9,10
 385 -247 385 -247 380.5 -241 c 128,-1,11
 376 -235 376 -235 378 -227 c 2,12,-1
 774 1490 l 2,13,14
 776 1498 776 1498 783.5 1504 c 128,-1,15
 791 1510 791 1510 799 1510 c 2,0,-1
EndSplineSet
Validated: 1
EndChar

StartChar: braceright
Encoding: 125 125 96
Width: 1024
GlyphClass: 1
Flags: W
LayerCount: 2
Fore
SplineSet
617 324 m 2,0,-1
 568 112 l 2,1,2
 551 38 551 38 518 -41 c 0,3,4
 483 -123 483 -123 420 -172 c 0,5,6
 322 -251 322 -251 110 -251 c 0,7,8
 81 -251 81 -251 71 -235 c 0,9,10
 70 -234 70 -234 69 -233 c 0,11,12
 61 -213 61 -213 64.5 -198 c 128,-1,13
 68 -183 68 -183 79 -174 c 0,14,15
 95 -161 95 -161 123 -161 c 0,16,17
 247 -159 247 -159 299 -113 c 1,18,-1
 299 -112 l 1,19,20
 332 -84 332 -84 353 -28 c 128,-1,21
 374 28 374 28 387 81 c 2,22,-1
 420 224 l 2,23,24
 438 302 438 302 470 394 c 0,25,26
 511 510 511 510 585 570 c 0,27,28
 642 616 642 616 726 643 c 1,29,30
 632 678 632 678 601 745 c 0,31,32
 582 785 582 785 582 844 c 0,33,34
 582 867 582 867 588.5 925 c 128,-1,35
 595 983 595 983 613 1062 c 2,36,-1
 646 1205 l 2,37,38
 664 1280 664 1280 664 1329 c 128,-1,39
 664 1378 664 1378 646 1400 c 0,40,41
 613 1443 613 1443 494 1445 c 0,42,43
 476 1445 476 1445 465 1457 c 0,44,45
 455 1470 455 1470 460 1492 c 0,46,47
 463 1507 463 1507 477 1520 c 0,48,49
 493 1536 493 1536 523 1536 c 0,50,51
 736 1536 736 1536 799 1454 c 0,52,53
 833 1408 833 1408 833 1338 c 0,54,55
 833 1332 833 1332 831.5 1290 c 128,-1,56
 830 1248 830 1248 813 1173 c 2,57,-1
 764 962 l 2,58,59
 751 907 751 907 749.5 874.5 c 128,-1,60
 748 842 748 842 748 835 c 0,61,62
 748 787 748 787 767 758 c 0,63,64
 792 726 792 726 842.5 711 c 128,-1,65
 893 696 893 696 945 692 c 0,66,67
 970 690 970 690 977 673 c 0,68,69
 984 661 984 661 980 642 c 0,70,71
 975 619 975 619 960 607 c 128,-1,72
 945 595 945 595 923 592 c 0,73,74
 775 580 775 580 712 525 c 0,75,76
 676 493 676 493 653 436 c 128,-1,77
 630 379 630 379 617 324 c 2,0,-1
EndSplineSet
Validated: 1
EndChar

StartChar: asciitilde
Encoding: 126 126 97
Width: 1024
GlyphClass: 1
Flags: W
LayerCount: 2
Fore
SplineSet
835 490 m 0,0,1
 716 490 716 490 597 577 c 0,2,3
 537 620 537 620 475 620 c 0,4,5
 429 620 429 620 381 594 c 0,6,7
 367 586 367 586 348 576 c 0,8,9
 323 563 323 563 292.5 538 c 128,-1,10
 262 513 262 513 234 480 c 0,11,12
 231 476 231 476 226 473 c 0,13,14
 211 461 211 461 196.5 461 c 128,-1,15
 182 461 182 461 170 470 c 0,16,17
 150 483 150 483 155 506 c 0,18,19
 159 523 159 523 174 540 c 0,20,21
 238 612 238 612 304 688 c 0,22,23
 378 773 378 773 490 773 c 0,24,25
 622 773 622 773 736 683 c 0,26,27
 790 639 790 639 852 639 c 0,28,29
 905 639 905 639 966 671 c 0,30,31
 1023 700 1023 700 1077 771 c 0,32,33
 1081 776 1081 776 1087 781 c 0,34,35
 1102 793 1102 793 1121 793 c 0,36,37
 1126 793 1126 793 1132 791 c 0,38,39
 1146 788 1146 788 1153.5 779 c 128,-1,40
 1161 770 1161 770 1160 756 c 0,41,42
 1161 741 1161 741 1147 721 c 0,43,44
 1147 720 1147 720 1147 719 c 0,45,46
 1057 603 1057 603 988 550 c 0,47,48
 908 490 908 490 835 490 c 0,0,1
EndSplineSet
Validated: 1
EndChar

StartChar: exclamdown
Encoding: 161 161 99
Width: 550
GlyphClass: 1
Flags: W
LayerCount: 2
Fore
SplineSet
430 749 m 128,-1,1
 360 749 360 749 335 782 c 0,2,3
 321 800 321 800 321 826 c 0,4,5
 321 840 321 840 325 856 c 2,6,-1
 344 938 l 2,7,8
 355 984 355 984 387 1011 c 0,9,10
 428 1044 428 1044 498 1044 c 128,-1,11
 568 1044 568 1044 593 1011 c 0,12,13
 607 993 607 993 607 966 c 0,14,15
 607 953 607 953 604 938 c 2,16,-1
 585 856 l 2,17,18
 574 809 574 809 541 782 c 0,19,0
 500 749 500 749 430 749 c 128,-1,1
306 -333 m 2,20,-1
 304 -342 l 2,21,22
 295 -380 295 -380 268 -401 c 0,23,24
 237 -426 237 -426 189 -426 c 2,25,-1
 123 -426 l 2,26,27
 73 -426 73 -426 54 -402 c 0,28,29
 38 -381 38 -381 46 -346 c 1,30,-1
 47 -344 l 1,31,-1
 49 -333 l 2,32,33
 49 -332 49 -332 339 614 c 0,34,35
 344 634 344 634 358.5 646 c 128,-1,36
 373 658 373 658 394 658 c 0,37,38
 395 658 395 658 396 658 c 2,39,-1
 417 658 l 2,40,41
 438 658 438 658 447 646 c 128,-1,42
 456 634 456 634 452 614 c 0,43,44
 306 -332 306 -332 306 -333 c 2,20,-1
EndSplineSet
Validated: 1
EndChar

StartChar: sterling
Encoding: 163 163 101
Width: 1024
GlyphClass: 1
Flags: W
LayerCount: 2
Fore
SplineSet
596 615 m 0,0,1
 588 579 588 579 578 544 c 0,2,3
 556 467 556 467 515 384 c 0,4,5
 483 319 483 319 453 250 c 1,6,7
 494 234 494 234 540 217 c 128,-1,8
 586 200 586 200 639 186 c 128,-1,9
 692 172 692 172 738 172 c 0,10,11
 782 172 782 172 819 181 c 0,12,13
 892 200 892 200 945 260 c 0,14,15
 960 278 960 278 966 294 c 128,-1,16
 972 310 972 310 985 320 c 0,17,18
 1002 334 1002 334 1027 334 c 0,19,20
 1045 334 1045 334 1053.5 323 c 128,-1,21
 1062 312 1062 312 1057 291 c 0,22,23
 1048 254 1048 254 1029 223 c 128,-1,24
 1010 192 1010 192 993 163 c 0,25,26
 931 62 931 62 830 1 c 1,27,-1
 829 0 l 1,28,29
 740 -51 740 -51 655 -51 c 0,30,31
 643 -51 643 -51 632 -50 c 0,32,33
 534 -41 534 -41 470 12 c 0,34,35
 454 24 454 24 414.5 54 c 128,-1,36
 375 84 375 84 357 100 c 1,37,38
 286 24 286 24 211 -26 c 0,39,40
 169 -52 169 -52 128 -52 c 0,41,42
 105 -52 105 -52 83 -44 c 0,43,44
 21 -21 21 -21 9 37 c 0,45,46
 4 61 4 61 10 89 c 128,-1,47
 16 117 16 117 33 149 c 0,48,49
 67 214 67 214 112 244 c 0,50,51
 175 286 175 286 223 286 c 2,52,-1
 229 286 l 2,53,54
 230 286 230 286 309 280 c 1,55,56
 322 319 322 319 330 357 c 2,57,-1
 337 387 l 2,58,59
 348 449 348 449 361 510 c 0,60,61
 372 577 372 577 384 667 c 1,62,-1
 222 667 l 2,63,64
 192 667 192 667 180 682 c 0,65,66
 171 694 171 694 176 713 c 2,67,-1
 188 766 l 2,68,69
 192 785 192 785 207 797 c 0,70,71
 225 812 225 812 255 812 c 2,72,-1
 404 812 l 1,73,74
 413 874 413 874 425 924 c 0,75,76
 439 986 439 986 457 1035 c 0,77,78
 502 1163 502 1163 565 1247 c 0,79,80
 613 1310 613 1310 668 1355 c 0,81,82
 801 1463 801 1463 976 1463 c 0,83,84
 1051 1463 1051 1463 1112 1426 c 0,85,86
 1175 1388 1175 1388 1195 1317 c 1,87,-1
 1195 1316 l 1,88,89
 1200 1296 1200 1296 1200 1274 c 0,90,91
 1200 1257 1200 1257 1197 1239 c 0,92,93
 1197 1238 1197 1238 1197 1237 c 2,94,-1
 1195 1230 l 2,95,96
 1185 1187 1185 1187 1145.5 1155 c 128,-1,97
 1106 1123 1106 1123 1070 1123 c 0,98,99
 1038 1123 1038 1123 1012 1149 c 0,100,101
 989 1169 989 1169 989 1210 c 0,102,103
 989 1218 989 1218 990 1226 c 2,104,-1
 997 1299 l 2,105,106
 998 1326 998 1326 987 1341 c 0,107,108
 973 1359 973 1359 940 1363 c 0,109,110
 923 1365 923 1365 908 1365 c 0,111,112
 860 1365 860 1365 825 1340 c 0,113,114
 755 1290 755 1290 724 1222 c 0,115,116
 694 1158 694 1158 678 1089 c 0,117,118
 677 1085 677 1085 676 1080 c 0,119,120
 660 1005 660 1005 649 932 c 2,121,-1
 631 812 l 1,122,-1
 919 812 l 2,123,124
 949 812 949 812 961 797 c 0,125,126
 970 785 970 785 966 766 c 2,127,-1
 954 713 l 2,128,129
 950 694 950 694 934 682 c 0,130,131
 916 667 916 667 886 667 c 2,132,-1
 607 667 l 1,133,134
 602 642 602 642 596 615 c 0,0,1
146 161 m 0,135,136
 125 144 125 144 117 108 c 128,-1,137
 109 72 109 72 120 59 c 0,138,139
 128 49 128 49 146 49 c 0,140,141
 177 49 177 49 198 66 c 0,142,143
 207 73 207 73 215 83 c 0,144,145
 243 121 243 121 263 158 c 1,146,147
 241 181 241 181 216 181 c 0,148,149
 171 181 171 181 146 161 c 0,135,136
EndSplineSet
Validated: 1
EndChar

StartChar: currency
Encoding: 164 164 102
Width: 1024
GlyphClass: 1
Flags: W
LayerCount: 2
Fore
SplineSet
677 712 m 0,0,1
 582 712 582 712 498 643 c 128,-1,2
 414 574 414 574 391 475 c 0,3,4
 384 445 384 445 384 418 c 0,5,6
 384 356 384 356 428.5 297.5 c 128,-1,7
 473 239 473 239 568 239 c 0,8,9
 661 239 661 239 746 307.5 c 128,-1,10
 831 376 831 376 854 475 c 0,11,12
 861 505 861 505 861 532 c 0,13,14
 861 595 861 595 815.5 653.5 c 128,-1,15
 770 712 770 712 677 712 c 0,0,1
707 842 m 256,16,17
 833 842 833 842 900 780 c 1,18,-1
 1059 909 l 2,19,20
 1074 921 1074 921 1091 921 c 0,21,22
 1110 921 1110 921 1117 908 c 2,23,-1
 1153 862 l 2,24,25
 1159 851 1159 851 1157 840 c 0,26,27
 1154 828 1154 828 1139 816 c 2,28,-1
 976 684 l 1,29,30
 1005 631 1005 631 1005 563 c 0,31,32
 1005 522 1005 522 994 476 c 0,33,34
 965 352 965 352 880 268 c 1,35,-1
 984 135 l 2,36,37
 991 123 991 123 989 112 c 0,38,39
 986 101 986 101 975 90 c 2,40,-1
 916 44 l 2,41,42
 901 31 901 31 884 31 c 0,43,44
 866 31 866 31 857 45 c 2,45,-1
 760 172 l 1,46,47
 666 111 666 111 539 111 c 256,48,49
 412 111 412 111 346 172 c 1,50,-1
 188 43 l 2,51,52
 173 31 173 31 156 31 c 256,53,54
 139 31 139 31 131 42 c 2,55,-1
 95 88 l 2,56,57
 86 100 86 100 89 112 c 256,58,59
 92 124 92 124 108 137 c 2,60,-1
 270 269 l 1,61,62
 242 321 242 321 242 388 c 0,63,64
 242 429 242 429 253 476 c 0,65,66
 281 597 281 597 366 683 c 1,67,-1
 264 817 l 2,68,69
 254 827 254 827 257 840 c 0,70,71
 260 852 260 852 274 864 c 2,72,-1
 331 910 l 2,73,74
 345 921 345 921 362 921 c 256,75,76
 379 921 379 921 388 909 c 2,77,-1
 486 780 l 1,78,79
 581 842 581 842 707 842 c 256,16,17
EndSplineSet
Validated: 1
EndChar

StartChar: brokenbar
Encoding: 166 166 104
Width: 1024
GlyphClass: 1
Flags: W
LayerCount: 2
Fore
SplineSet
448 470 m 2,0,-1
 589 470 l 2,1,2
 597 470 597 470 602 467 c 0,3,4
 608 465 608 465 607 462 c 2,5,-1
 448 -225 l 2,6,7
 447 -228 447 -228 440.5 -230 c 128,-1,8
 434 -232 434 -232 426 -233 c 2,9,-1
 285 -233 l 2,10,11
 277 -233 277 -233 272 -230 c 0,12,13
 266 -228 266 -228 267 -225 c 2,14,-1
 426 462 l 2,15,16
 427 465 427 465 433 467 c 0,17,18
 440 470 440 470 448 470 c 2,0,-1
686 1502 m 2,19,-1
 827 1502 l 2,20,21
 835 1502 835 1502 840 1499 c 0,22,23
 846 1497 846 1497 845 1494 c 2,24,-1
 686 807 l 2,25,26
 685 804 685 804 679 802 c 128,-1,27
 673 800 673 800 664 799 c 2,28,-1
 523 799 l 2,29,30
 515 799 515 799 510 802 c 0,31,32
 504 804 504 804 505 807 c 2,33,-1
 664 1494 l 2,34,35
 665 1497 665 1497 671 1499 c 0,36,37
 678 1502 678 1502 686 1502 c 2,19,-1
EndSplineSet
Validated: 1
EndChar

StartChar: section
Encoding: 167 167 105
Width: 1024
GlyphClass: 1
Flags: W
LayerCount: 2
Fore
SplineSet
345 800 m 1,0,1
 288 864 288 864 288 959 c 0,2,3
 288 1002 288 1002 299 1051 c 0,4,5
 341 1233 341 1233 494 1350 c 0,6,7
 653 1470 653 1470 847 1470 c 0,8,9
 862 1470 862 1470 876 1469 c 0,10,11
 1085 1460 1085 1460 1213 1364 c 0,12,13
 1221 1358 1221 1358 1218 1347 c 0,14,15
 1218 1346 1218 1346 1150 1151 c 0,16,17
 1144 1134 1144 1134 1132 1124 c 0,18,19
 1121 1115 1121 1115 1106 1115 c 0,20,21
 1101 1115 1101 1115 1097 1116 c 0,22,23
 1075 1120 1075 1120 1068 1154 c 0,24,25
 1049 1232 1049 1232 990 1287 c 128,-1,26
 931 1342 931 1342 852 1346 c 1,27,-1
 837 1346 l 2,28,29
 756 1346 756 1346 688 1317 c 0,30,31
 645 1299 645 1299 613 1272 c 0,32,33
 585 1249 585 1249 561 1214 c 1,34,-1
 561 1213 l 1,35,36
 539 1181 539 1181 526 1151 c 0,37,38
 513 1120 513 1120 506 1091 c 128,-1,39
 499 1062 499 1062 502 1035 c 0,40,41
 506 979 506 979 542 949 c 0,42,43
 567 926 567 926 605 915 c 0,44,45
 627 909 627 909 658 904 c 0,46,47
 796 880 796 880 831 875 c 0,48,49
 889 866 889 866 942 849 c 0,50,51
 1034 816 1034 816 1070 765 c 0,52,53
 1096 728 1096 728 1107 676 c 1,54,-1
 1108 676 l 1,55,56
 1112 651 1112 651 1112 625 c 0,57,58
 1112 582 1112 582 1101 534 c 0,59,60
 1064 374 1064 374 936 254 c 1,61,62
 944 245 944 245 948 238 c 0,63,64
 975 198 975 198 985 149 c 1,65,-1
 986 149 l 1,66,67
 990 123 990 123 990 96 c 0,68,69
 990 54 990 54 980 7 c 0,70,71
 933 -197 933 -197 732 -336 c 1,72,-1
 732 -337 l 1,73,74
 631 -405 631 -405 518 -441 c 1,75,-1
 517 -441 l 1,76,77
 433 -467 433 -467 332 -473 c 0,78,79
 312 -474 312 -474 293 -474 c 0,80,81
 160 -474 160 -474 46 -436 c 0,82,83
 37 -433 37 -433 36 -424 c 2,84,-1
 6 -179 l 2,85,86
 5 -171 5 -171 6 -163 c 0,87,88
 10 -147 10 -147 23 -133 c 0,89,90
 40 -113 40 -113 61 -113 c 2,91,-1
 64 -113 l 2,92,93
 76 -113 76 -113 84 -123 c 0,94,95
 93 -135 93 -135 96 -151 c 0,96,97
 125 -273 125 -273 200 -312 c 0,98,99
 262 -347 262 -347 370 -347 c 0,100,101
 393 -347 393 -347 417 -345 c 0,102,103
 489 -339 489 -339 563 -307 c 0,104,105
 634 -276 634 -276 688 -214 c 0,106,107
 743 -149 743 -149 764 -58 c 1,108,-1
 766 -47 l 2,109,110
 770 -24 770 -24 770 -4 c 0,111,112
 770 58 770 58 728 95 c 0,113,114
 701 119 701 119 657 133 c 0,115,116
 567 160 567 160 467 170 c 0,117,118
 368 181 368 181 283 228 c 0,119,120
 205 270 205 270 186 331.5 c 128,-1,121
 167 393 167 393 167 439 c 0,122,123
 167 480 167 480 177 524 c 0,124,125
 215 688 215 688 345 800 c 1,0,1
403 621 m 0,126,127
 391 593 391 593 384.5 564 c 128,-1,128
 378 535 378 535 380 508 c 0,129,130
 385 451 385 451 420 424 c 0,131,132
 421 423 421 423 421 422 c 0,133,134
 443 399 443 399 484 389 c 0,135,136
 540 374 540 374 709 348 c 0,137,138
 766 339 766 339 819 323 c 1,139,140
 866 384 866 384 885 468 c 2,141,-1
 888 479 l 2,142,143
 893 503 893 503 893 523 c 0,144,145
 893 585 893 585 850 622 c 0,146,147
 820 647 820 647 779 660 c 0,148,149
 702 682 702 682 622 691 c 0,150,151
 541 701 541 701 471 726 c 1,152,153
 455 710 455 710 440 688 c 1,154,-1
 440 687 l 1,155,156
 418 656 418 656 403 621 c 0,126,127
EndSplineSet
Validated: 1
EndChar

StartChar: dieresis
Encoding: 168 168 106
Width: 1000
GlyphClass: 1
Flags: W
LayerCount: 2
Fore
SplineSet
975 1149 m 0,0,1
 974 1149 974 1149 972 1149 c 0,2,3
 916 1149 916 1149 885 1190 c 0,4,5
 862 1220 862 1220 862 1257 c 0,6,7
 862 1273 862 1273 866 1291 c 0,8,9
 880 1350 880 1350 931 1391.5 c 128,-1,10
 982 1433 982 1433 1041 1433 c 128,-1,11
 1100 1433 1100 1433 1132 1391 c 0,12,13
 1154 1362 1154 1362 1154 1324 c 0,14,15
 1154 1308 1154 1308 1150 1290 c 0,16,17
 1136 1232 1136 1232 1085 1190.5 c 128,-1,18
 1034 1149 1034 1149 975 1149 c 0,0,1
554 1149 m 0,19,20
 553 1149 553 1149 551 1149 c 0,21,22
 494 1149 494 1149 462 1190 c 0,23,24
 440 1219 440 1219 440 1256 c 0,25,26
 440 1271 440 1271 444 1288 c 0,27,28
 458 1350 458 1350 509.5 1391.5 c 128,-1,29
 561 1433 561 1433 620 1433 c 0,30,31
 678 1433 678 1433 710 1391 c 0,32,33
 732 1362 732 1362 733 1324 c 0,34,35
 732 1308 732 1308 728 1290 c 0,36,37
 714 1232 714 1232 663.5 1190.5 c 128,-1,38
 613 1149 613 1149 554 1149 c 0,19,20
EndSplineSet
Validated: 1
EndChar

StartChar: guillemotleft
Encoding: 171 171 109
Width: 1024
GlyphClass: 1
Flags: W
LayerCount: 2
Fore
SplineSet
227 601 m 0,0,1
 218 611 218 611 221 624.5 c 128,-1,2
 224 638 224 638 235 651 c 0,3,4
 236 652 236 652 238 653 c 0,5,6
 316 726 316 726 446 826 c 0,7,8
 576 925 576 925 668 1002 c 0,9,10
 680 1012 680 1012 691 1012 c 128,-1,11
 702 1012 702 1012 708 1006 c 0,12,13
 739 980 739 980 740 978 c 0,14,15
 748 968 748 968 745.5 957.5 c 128,-1,16
 743 947 743 947 734 940 c 2,17,-1
 418 629 l 1,18,-1
 592 314 l 2,19,20
 595 307 595 307 593 297 c 128,-1,21
 591 287 591 287 581 279 c 0,22,23
 579 277 579 277 574 274 c 2,24,-1
 533 249 l 2,25,26
 525 243 525 243 514 243 c 128,-1,27
 503 243 503 243 495 253 c 0,28,29
 362 425 362 425 360 425 c 0,30,31
 291 512 291 512 227 601 c 0,0,1
637 601 m 0,32,33
 628 611 628 611 631 624.5 c 128,-1,34
 634 638 634 638 645 651 c 0,35,36
 646 652 646 652 648 653 c 0,37,38
 726 726 726 726 856 826 c 0,39,40
 986 925 986 925 1078 1002 c 0,41,42
 1090 1012 1090 1012 1101 1012 c 128,-1,43
 1112 1012 1112 1012 1118 1006 c 0,44,45
 1149 980 1149 980 1150 978 c 0,46,47
 1158 968 1158 968 1155.5 957.5 c 128,-1,48
 1153 947 1153 947 1144 940 c 2,49,-1
 828 629 l 1,50,-1
 1002 314 l 2,51,52
 1005 307 1005 307 1003 297 c 128,-1,53
 1001 287 1001 287 991 279 c 0,54,55
 989 277 989 277 984 274 c 2,56,-1
 943 249 l 2,57,58
 935 243 935 243 924 243 c 128,-1,59
 913 243 913 243 905 253 c 0,60,61
 748 453 748 453 716 495 c 128,-1,62
 684 537 684 537 637 601 c 0,32,33
EndSplineSet
Validated: 1
EndChar

StartChar: logicalnot
Encoding: 172 172 110
Width: 1100
GlyphClass: 1
Flags: W
LayerCount: 2
Fore
SplineSet
1108 321 m 2,0,-1
 991 321 l 2,1,2
 983 321 983 321 978.5 327 c 128,-1,3
 974 333 974 333 976 341 c 2,4,-1
 1071 755 l 1,5,-1
 240 755 l 2,6,7
 232 755 232 755 227.5 761 c 128,-1,8
 223 767 223 767 225 775 c 2,9,-1
 251 887 l 2,10,11
 253 895 253 895 260 901 c 128,-1,12
 267 907 267 907 275 907 c 2,13,-1
 1243 907 l 2,14,15
 1251 907 1251 907 1256 901 c 128,-1,16
 1261 895 1261 895 1259 887 c 2,17,-1
 1133 341 l 2,18,19
 1131 333 1131 333 1123.5 327 c 128,-1,20
 1116 321 1116 321 1108 321 c 2,0,-1
EndSplineSet
Validated: 1
EndChar

StartChar: uni00AD
Encoding: 173 173 111
Width: 680
GlyphClass: 1
Flags: W
LayerCount: 2
Fore
SplineSet
276 576 m 2,0,-1
 669 576 l 2,1,2
 687 576 687 576 691 556 c 0,3,4
 694 540 694 540 689 515 c 2,5,-1
 673 444 l 2,6,7
 667 419 667 419 656 402 c 0,8,9
 642 382 642 382 624 382 c 2,10,-1
 231 382 l 2,11,12
 213 382 213 382 209 402 c 0,13,14
 206 418 206 418 212 444 c 2,15,-1
 228 515 l 2,16,17
 234 540 234 540 244 556 c 0,18,19
 258 576 258 576 276 576 c 2,0,-1
EndSplineSet
Validated: 1
EndChar

StartChar: macron
Encoding: 175 175 113
Width: 1000
GlyphClass: 1
Flags: W
LayerCount: 2
Fore
SplineSet
537 1365 m 2,0,-1
 1096 1365 l 2,1,2
 1121 1365 1121 1365 1131 1350 c 0,3,4
 1138 1338 1138 1338 1134 1319 c 2,5,-1
 1121 1266 l 2,6,7
 1117 1247 1117 1247 1104 1235 c 0,8,9
 1088 1220 1088 1220 1063 1220 c 2,10,-1
 504 1220 l 2,11,12
 479 1220 479 1220 469 1235 c 0,13,14
 462 1247 462 1247 466 1266 c 2,15,-1
 479 1319 l 2,16,17
 483 1338 483 1338 496 1350 c 0,18,19
 512 1365 512 1365 537 1365 c 2,0,-1
EndSplineSet
Validated: 1
EndChar

StartChar: degree
Encoding: 176 176 114
Width: 819
GlyphClass: 1
Flags: W
LayerCount: 2
Fore
SplineSet
834 1224 m 0,0,1
 788 1285 788 1285 703 1285 c 0,2,3
 616 1285 616 1285 542 1224 c 0,4,5
 468 1164 468 1164 448 1078 c 0,6,7
 443 1057 443 1057 443 1036 c 0,8,9
 443 1033 443 1033 443 1029 c 0,10,11
 443 974 443 974 475 932 c 0,12,13
 521 872 521 872 607 872 c 128,-1,14
 693 872 693 872 767 932 c 0,15,16
 840 992 840 992 860 1078 c 0,17,18
 866 1103 866 1103 866 1126 c 0,19,20
 866 1181 866 1181 834 1224 c 0,0,1
476 1310 m 128,-1,22
 594 1406 594 1406 730 1407 c 0,23,24
 866 1406 866 1406 941 1310 c 0,25,26
 993 1242 993 1242 993 1156 c 0,27,28
 993 1153 993 1153 993 1149 c 0,29,30
 993 1115 993 1115 984 1078 c 0,31,32
 952 942 952 942 833.5 845.5 c 128,-1,33
 715 749 715 749 579 749 c 0,34,35
 442 750 442 750 368 846 c 0,36,37
 316 914 316 914 316 1000 c 0,38,39
 316 1037 316 1037 326 1078 c 0,40,21
 358 1214 358 1214 476 1310 c 128,-1,22
EndSplineSet
Validated: 1
EndChar

StartChar: plusminus
Encoding: 177 177 115
Width: 1100
GlyphClass: 1
Flags: W
LayerCount: 2
Fore
SplineSet
761 678 m 1,0,-1
 701 419 l 2,1,2
 694 388 694 388 675 373 c 0,3,4
 660 361 660 361 641 361 c 2,5,-1
 589 361 l 2,6,7
 570 361 570 361 561 373 c 0,8,9
 549 388 549 388 557 419 c 2,10,-1
 617 678 l 1,11,-1
 357 678 l 2,12,13
 327 678 327 678 315 693 c 0,14,15
 306 705 306 705 310 724 c 2,16,-1
 322 777 l 2,17,18
 326 796 326 796 342 808 c 0,19,20
 360 823 360 823 390 823 c 2,21,-1
 650 823 l 1,22,-1
 710 1083 l 2,23,24
 717 1112 717 1112 735 1127 c 0,25,26
 750 1139 750 1139 769 1139 c 2,27,-1
 821 1139 l 2,28,29
 840 1139 840 1139 849 1127 c 0,30,31
 861 1112 861 1112 854 1083 c 2,32,-1
 794 823 l 1,33,-1
 1054 823 l 2,34,35
 1084 823 1084 823 1096 808 c 0,36,37
 1105 796 1105 796 1100 777 c 2,38,-1
 1088 724 l 2,39,40
 1084 705 1084 705 1069 693 c 0,41,42
 1051 678 1051 678 1021 678 c 2,43,-1
 761 678 l 1,0,-1
259 256 m 2,44,-1
 923 256 l 2,45,46
 953 256 953 256 965 241 c 0,47,48
 974 229 974 229 969 210 c 2,49,-1
 957 157 l 2,50,51
 953 138 953 138 938 126 c 0,52,53
 920 111 920 111 890 111 c 2,54,-1
 226 111 l 2,55,56
 196 111 196 111 184 126 c 0,57,58
 175 138 175 138 179 157 c 2,59,-1
 191 210 l 2,60,61
 195 229 195 229 211 241 c 0,62,63
 229 256 229 256 259 256 c 2,44,-1
EndSplineSet
Validated: 1
EndChar

StartChar: acute
Encoding: 180 180 118
Width: 1000
GlyphClass: 1
Flags: W
LayerCount: 2
Fore
SplineSet
507 1142 m 0,0,1
 509 1144 509 1144 512 1146 c 2,2,3
 512 1146 512 1146 947 1403 c 0,4,5
 974 1420 974 1420 1002 1420 c 0,6,7
 1047 1420 1047 1420 1066 1396 c 0,8,9
 1078 1380 1078 1380 1078 1355 c 0,10,11
 1078 1342 1078 1342 1075 1328 c 0,12,13
 1065 1285 1065 1285 1034 1260 c 0,14,15
 1018 1246 1018 1246 995 1238 c 2,16,17
 995 1238 995 1238 533 1079 c 0,18,19
 527 1077 527 1077 519 1077 c 0,20,21
 501 1077 501 1077 493 1087 c 128,-1,22
 485 1097 485 1097 489 1113 c 128,-1,23
 493 1129 493 1129 507 1142 c 0,0,1
EndSplineSet
Validated: 1
EndChar

StartChar: mu
Encoding: 181 181 119
Width: 1325
GlyphClass: 1
Flags: W
LayerCount: 2
Fore
SplineSet
1044 752 m 2,0,1
 1052 785 1052 785 1039 801 c 0,2,3
 1033 809 1033 809 1020 814 c 0,4,5
 969 834 969 834 969 867 c 0,6,7
 969 872 969 872 970 877 c 0,8,9
 974 896 974 896 988 907 c 128,-1,10
 1002 918 1002 918 1021 918 c 0,11,12
 1074 920 1074 920 1135 934 c 1,13,14
 1135 934 1135 934 1136 935 c 0,15,16
 1207 950 1207 950 1289 977 c 0,17,18
 1293 978 1293 978 1297 978 c 0,19,20
 1304 978 1304 978 1308.5 972 c 128,-1,21
 1313 966 1313 966 1311 958 c 2,22,-1
 1123 142 l 2,23,24
 1115 108 1115 108 1126 93 c 0,25,26
 1132 85 1132 85 1146 81 c 0,27,28
 1178 70 1178 70 1190 55 c 128,-1,29
 1202 40 1202 40 1197.5 21 c 128,-1,30
 1193 2 1193 2 1179.5 -9 c 128,-1,31
 1166 -20 1166 -20 1147 -20 c 2,32,-1
 885 -20 l 2,33,34
 877 -20 877 -20 872.5 -14 c 128,-1,35
 868 -8 868 -8 870 0 c 2,36,-1
 883 58 l 1,37,-1
 686 -13 l 2,38,39
 650 -26 650 -26 556 -37 c 0,40,41
 547 -38 547 -38 542.5 -38 c 128,-1,42
 538 -38 538 -38 520 -37 c 0,43,44
 443 -29 443 -29 393 5 c 0,45,46
 341 40 341 40 315 77 c 1,47,48
 310 51 310 51 308 37.5 c 128,-1,49
 306 24 306 24 265 -253.5 c 128,-1,50
 224 -531 224 -531 224 -532 c 2,51,-1
 224 -534 l 1,52,53
 220 -552 220 -552 207 -562.5 c 128,-1,54
 194 -573 194 -573 175 -573 c 2,55,-1
 83 -573 l 2,56,57
 65 -573 65 -573 56.5 -562 c 128,-1,58
 48 -551 48 -551 52 -532 c 2,59,-1
 360 802 l 1,60,61
 345 819 345 819 327.5 827.5 c 128,-1,62
 310 836 310 836 302 846 c 0,63,64
 291 860 291 860 295.5 878 c 128,-1,65
 300 896 300 896 313.5 907 c 128,-1,66
 327 918 327 918 345 918 c 0,67,68
 403 921 403 921 461 935 c 0,69,70
 498 945 498 945 533.5 956 c 128,-1,71
 569 967 569 967 590.5 972.5 c 128,-1,72
 612 978 612 978 615 978 c 0,73,74
 623 978 623 978 627 972 c 128,-1,75
 631 966 631 966 629 958 c 2,76,-1
 506 424 l 2,77,78
 489 352 489 352 489 294 c 0,79,80
 489 200 489 200 533 143 c 0,81,82
 576 87 576 87 653 87 c 0,83,84
 700 87 700 87 762 108 c 0,85,86
 873 146 873 146 906 157 c 1,87,-1
 1044 752 l 2,0,1
EndSplineSet
Validated: 1
EndChar

StartChar: paragraph
Encoding: 182 182 120
Width: 1266
GlyphClass: 1
Flags: W
LayerCount: 2
Fore
SplineSet
609 761 m 0,0,1
 476 761 476 761 406 859 c 0,2,3
 357 927 357 927 357 1013 c 0,4,5
 357 1051 357 1051 367 1093 c 0,6,7
 400 1234 400 1234 522 1333 c 0,8,9
 634 1424 634 1424 761 1425 c 2,10,-1
 1510 1425 l 2,11,12
 1531 1425 1531 1425 1541 1413 c 0,13,14
 1550 1401 1550 1401 1545 1379 c 0,15,16
 1535 1334 1535 1334 1455 1307 c 0,17,18
 1438 1301 1438 1301 1424 1291 c 0,19,20
 1398 1270 1398 1270 1388 1226 c 2,21,-1
 1077 -122 l 2,22,23
 1073 -139 1073 -139 1073 -152 c 0,24,25
 1073 -174 1073 -174 1083 -187 c 0,26,27
 1091 -197 1091 -197 1106 -203 c 0,28,29
 1165 -227 1165 -227 1165 -264 c 0,30,31
 1165 -269 1165 -269 1164 -275 c 0,32,33
 1159 -296 1159 -296 1144 -308 c 128,-1,34
 1129 -320 1129 -320 1107 -320 c 2,35,-1
 359 -320 l 2,36,37
 337 -320 337 -320 328 -308 c 128,-1,38
 319 -296 319 -296 324 -274 c 0,39,40
 329 -253 329 -253 351 -235 c 128,-1,41
 373 -217 373 -217 414 -203 c 0,42,43
 431 -197 431 -197 445 -187 c 0,44,45
 471 -166 471 -166 481 -122 c 2,46,-1
 687 770 l 1,47,48
 647 761 647 761 609 761 c 0,0,1
1221 1317 m 1,49,-1
 1001 1317 l 1,50,-1
 648 -214 l 1,51,-1
 868 -214 l 1,52,-1
 1221 1317 l 1,49,-1
EndSplineSet
Validated: 1
EndChar

StartChar: periodcentered
Encoding: 183 183 121
Width: 512
GlyphClass: 1
Flags: W
LayerCount: 2
Fore
SplineSet
365 476 m 128,-1,1
 306 476 306 476 274 518 c 0,2,3
 252 548 252 548 252 585 c 0,4,5
 252 601 252 601 256 618 c 0,6,7
 270 677 270 677 320.5 718.5 c 128,-1,8
 371 760 371 760 430 760 c 128,-1,9
 489 760 489 760 521 718 c 0,10,11
 544 688 544 688 544 651 c 0,12,13
 544 636 544 636 540 618 c 0,14,15
 526 560 526 560 475 518 c 128,-1,0
 424 476 424 476 365 476 c 128,-1,1
EndSplineSet
Validated: 1
EndChar

StartChar: cedilla
Encoding: 184 184 122
Width: 1000
GlyphClass: 1
Flags: W
LayerCount: 2
Fore
SplineSet
436 -25 m 2,0,-1
 492 -25 l 2,1,2
 500 -25 500 -25 504.5 -31 c 128,-1,3
 509 -37 509 -37 508 -42.5 c 128,-1,4
 507 -48 507 -48 505 -52 c 0,5,6
 494 -68 494 -68 491 -83 c 0,7,8
 485 -109 485 -109 503 -130 c 1,9,10
 503 -130 503 -130 504 -130 c 0,11,12
 527 -157 527 -157 545.5 -177 c 128,-1,13
 564 -197 564 -197 568 -203 c 0,14,15
 595 -239 595 -239 595 -287 c 0,16,17
 595 -308 595 -308 590 -331 c 2,18,-1
 588 -338 l 1,19,20
 588 -338 588 -338 588 -339 c 0,21,22
 576 -381 576 -381 543 -407 c 0,23,24
 499 -443 499 -443 420 -449 c 0,25,26
 419 -449 419 -449 418 -449 c 2,27,-1
 408 -449 l 2,28,29
 340 -449 340 -449 265 -421 c 0,30,31
 261 -420 261 -420 258.5 -416 c 128,-1,32
 256 -412 256 -412 255 -406 c 2,33,-1
 256 -338 l 2,34,35
 256 -335 256 -335 257 -333 c 0,36,37
 259 -325 259 -325 267 -319 c 128,-1,38
 275 -313 275 -313 281.5 -313 c 128,-1,39
 288 -313 288 -313 293 -318 c 0,40,41
 326 -348 326 -348 364 -348 c 0,42,43
 393 -348 393 -348 426 -331 c 0,44,45
 450 -317 450 -317 455 -294 c 0,46,47
 461 -270 461 -270 434 -236 c 0,48,49
 401 -194 401 -194 383 -147 c 0,50,51
 375 -123 375 -123 380 -98 c 0,52,53
 387 -66 387 -66 418 -34 c 0,54,55
 426 -25 426 -25 436 -25 c 2,0,-1
EndSplineSet
Validated: 1
EndChar

StartChar: guillemotright
Encoding: 187 187 125
Width: 1024
GlyphClass: 1
Flags: W
LayerCount: 2
Fore
SplineSet
1075 654 m 0,0,1
 1084 644 1084 644 1080.5 630 c 128,-1,2
 1077 616 1077 616 1066 604 c 0,3,4
 1065 603 1065 603 1064 602 c 0,5,6
 986 529 986 529 856 429 c 0,7,8
 726 330 726 330 633 253 c 0,9,10
 620 243 620 243 610 243 c 128,-1,11
 600 243 600 243 593 249 c 0,12,13
 562 275 562 275 562 277 c 0,14,15
 555 288 555 288 557 298 c 128,-1,16
 559 308 559 308 568 315 c 2,17,-1
 884 626 l 1,18,-1
 709 941 l 2,19,20
 706 948 706 948 708 958 c 128,-1,21
 710 968 710 968 720 976 c 0,22,23
 722 978 722 978 727 981 c 2,24,-1
 768 1006 l 2,25,26
 776 1012 776 1012 787.5 1012 c 128,-1,27
 799 1012 799 1012 806 1002 c 0,28,29
 939 830 939 830 942 830 c 0,30,31
 1011 743 1011 743 1075 654 c 0,0,1
665 654 m 0,32,33
 674 644 674 644 670.5 630 c 128,-1,34
 667 616 667 616 656 604 c 0,35,36
 655 603 655 603 654 602 c 0,37,38
 576 529 576 529 446 429 c 0,39,40
 316 330 316 330 223 253 c 0,41,42
 210 243 210 243 200 243 c 128,-1,43
 190 243 190 243 183 249 c 0,44,45
 152 275 152 275 152 277 c 0,46,47
 145 288 145 288 147 298 c 128,-1,48
 149 308 149 308 158 315 c 2,49,-1
 474 626 l 1,50,-1
 299 941 l 2,51,52
 296 948 296 948 298 958 c 128,-1,53
 300 968 300 968 310 976 c 0,54,55
 312 978 312 978 317 981 c 2,56,-1
 358 1006 l 2,57,58
 366 1012 366 1012 377.5 1012 c 128,-1,59
 389 1012 389 1012 396 1002 c 0,60,61
 553 802 553 802 585.5 760 c 128,-1,62
 618 718 618 718 665 654 c 0,32,33
EndSplineSet
Validated: 1
EndChar

StartChar: questiondown
Encoding: 191 191 129
Width: 784
GlyphClass: 1
Flags: W
LayerCount: 2
Fore
SplineSet
527 561 m 0,0,1
 544 575 544 575 562 575 c 0,2,3
 595 575 595 575 599 532 c 0,4,5
 600 523 600 523 600 512 c 0,6,7
 600 484 600 484 591 445 c 2,8,-1
 520 138 l 2,9,10
 518 128 518 128 508 122 c 0,11,12
 367 36 367 36 307 -33 c 128,-1,13
 247 -102 247 -102 226 -196 c 0,14,15
 215 -242 215 -242 215 -278 c 0,16,17
 215 -321 215 -321 231 -348 c 0,18,19
 259 -395 259 -395 340 -395 c 0,20,21
 409 -395 409 -395 450 -353 c 0,22,23
 495 -306 495 -306 532 -180 c 0,24,25
 543 -147 543 -147 573 -131 c 0,26,27
 600 -114 600 -114 640 -114 c 128,-1,28
 680 -114 680 -114 698 -131 c 0,29,30
 700 -132 700 -132 701 -135 c 0,31,32
 716 -154 716 -154 707 -190 c 0,33,34
 674 -332 674 -332 561 -416 c 0,35,36
 449 -498 449 -498 291 -498 c 128,-1,37
 133 -498 133 -498 55 -418 c 0,38,39
 3 -362 3 -362 3 -277 c 0,40,41
 3 -240 3 -240 13 -197 c 0,42,43
 53 -22 53 -22 255 88 c 0,44,45
 276 99 276 99 303 114 c 0,46,47
 340 134 340 134 359.5 150 c 128,-1,48
 379 166 379 166 388 178 c 0,49,50
 388 179 388 179 389 179 c 0,51,52
 411 206 411 206 429 275 c 0,53,54
 451 361 451 361 473 446 c 0,55,56
 486 502 486 502 505 535 c 0,57,58
 505 536 505 536 506 537 c 0,59,60
 516 552 516 552 527 561 c 0,0,1
593 692 m 128,-1,62
 523 692 523 692 497 725 c 0,63,64
 483 743 483 743 483 769 c 0,65,66
 483 783 483 783 487 799 c 2,67,-1
 506 881 l 2,68,69
 517 927 517 927 550 954 c 0,70,71
 591 987 591 987 661 987 c 128,-1,72
 731 987 731 987 756 954 c 0,73,74
 770 936 770 936 770 910 c 0,75,76
 770 896 770 896 766 881 c 2,77,-1
 747 799 l 2,78,79
 736 752 736 752 703 725 c 0,80,61
 663 692 663 692 593 692 c 128,-1,62
EndSplineSet
Validated: 1
EndChar

StartChar: AE
Encoding: 198 198 136
Width: 1933
GlyphClass: 1
Flags: W
LayerCount: 2
Fore
SplineSet
619 590 m 1,0,-1
 1027 590 l 1,1,-1
 1188 1299 l 1,2,3
 1070 1151 1070 1151 901.5 942.5 c 128,-1,4
 733 734 733 734 619 590 c 1,0,-1
1261 657 m 1,5,-1
 1135 114 l 1,6,-1
 1543 114 l 2,7,8
 1626 114 1626 114 1700 179 c 0,9,10
 1780 250 1780 250 1823 290 c 0,11,12
 1842 308 1842 308 1853.5 313.5 c 128,-1,13
 1865 319 1865 319 1873 319 c 0,14,15
 1892 319 1892 319 1900.5 308 c 128,-1,16
 1909 297 1909 297 1905 280 c 128,-1,17
 1901 263 1901 263 1895 252 c 2,18,-1
 1763 -5 l 2,19,20
 1761 -10 1761 -10 1754.5 -15 c 128,-1,21
 1748 -20 1748 -20 1740 -20 c 2,22,-1
 821 -20 l 2,23,24
 804 -20 804 -20 796 -9.5 c 128,-1,25
 788 1 788 1 793 21 c 0,26,27
 802 60 802 60 870 82 c 0,28,29
 883 86 883 86 894 95 c 0,30,31
 914 111 914 111 922 146 c 2,32,-1
 996 469 l 1,33,-1
 523 469 l 1,34,35
 471 402 471 402 259 137 c 0,36,37
 248 123 248 123 238 105 c 0,38,39
 238 104 238 104 235.5 100 c 128,-1,40
 233 96 233 96 232 90.5 c 128,-1,41
 231 85 231 85 231 83.5 c 128,-1,42
 231 82 231 82 230.5 77 c 128,-1,43
 230 72 230 72 233 64 c 128,-1,44
 236 56 236 56 235 44 c 0,45,46
 236 33 236 33 230 22 c 0,47,48
 230 21 230 21 226 16 c 0,49,50
 225 14 225 14 224 12 c 0,51,52
 200 -20 200 -20 173 -20 c 2,53,-1
 -84 -20 l 2,54,55
 -107 -20 -107 -20 -112 -3 c 0,56,57
 -113 1 -113 1 -112 6 c 2,58,-1
 -110 11 l 2,59,60
 -108 20 -108 20 -101 30 c 0,61,62
 -90 45 -90 45 -47 65 c 0,63,64
 -46 65 -46 65 -37 69 c 0,65,66
 2 84 2 84 32 100 c 0,67,68
 73 123 73 123 102 156 c 2,69,-1
 1058 1323 l 1,70,71
 1034 1329 1034 1329 1014.5 1336 c 128,-1,72
 995 1343 995 1343 986 1355 c 128,-1,73
 977 1367 977 1367 981 1385 c 128,-1,74
 985 1403 985 1403 998.5 1414 c 128,-1,75
 1012 1425 1012 1425 1031 1425 c 2,76,-1
 2086 1425 l 2,77,78
 2094 1425 2094 1425 2098.5 1419 c 128,-1,79
 2103 1413 2103 1413 2101 1405 c 2,80,-1
 2042 1147 l 2,81,82
 2038 1128 2038 1128 2024 1117 c 128,-1,83
 2010 1106 2010 1106 1991 1106 c 0,84,85
 1978 1106 1978 1106 1969 1118.5 c 128,-1,86
 1960 1131 1960 1131 1950 1155 c 0,87,88
 1914 1228 1914 1228 1888 1261 c 0,89,90
 1865 1291 1865 1291 1815 1291 c 2,91,-1
 1407 1291 l 1,92,-1
 1291 788 l 1,93,-1
 1500 788 l 2,94,95
 1535 788 1535 788 1556 805 c 0,96,97
 1566 813 1566 813 1574 827 c 0,98,99
 1614 891 1614 891 1654 891 c 0,100,101
 1672 891 1672 891 1680.5 880 c 128,-1,102
 1689 869 1689 869 1684 850 c 2,103,-1
 1626 596 l 2,104,105
 1622 577 1622 577 1608 566 c 128,-1,106
 1594 555 1594 555 1575 555 c 0,107,108
 1537 555 1537 555 1524 618 c 0,109,110
 1521 630 1521 630 1514 638 c 0,111,112
 1499 657 1499 657 1464 657 c 2,113,-1
 1261 657 l 1,5,-1
EndSplineSet
Validated: 1
EndChar

StartChar: Eth
Encoding: 208 208 146
Width: 1585
GlyphClass: 1
Flags: W
LayerCount: 2
Fore
SplineSet
1708 792 m 0,0,1
 1702 758 1702 758 1695 727 c 0,2,3
 1656 558 1656 558 1561 422 c 0,4,5
 1448 260 1448 260 1288 155 c 0,6,7
 1016 -23 1016 -23 683 -27 c 1,8,-1
 603 -27 l 2,9,10
 545 -27 545 -27 494 -26 c 2,11,-1
 377 -26 l 2,12,13
 293 -26 293 -26 251 -23 c 2,14,-1
 228 -23 l 2,15,16
 189 -23 189 -23 123 -29 c 0,17,18
 84 -29 84 -29 84 0 c 0,19,20
 84 6 84 6 86 13 c 0,21,22
 95 51 95 51 149 69 c 128,-1,23
 203 87 203 87 215 139 c 2,24,-1
 333 651 l 1,25,-1
 195 651 l 2,26,27
 165 651 165 651 154 666 c 0,28,29
 148 674 148 674 148 686 c 0,30,31
 148 691 148 691 149 697 c 2,32,-1
 161 750 l 2,33,34
 165 769 165 769 180 781 c 0,35,36
 198 796 198 796 229 796 c 2,37,-1
 367 796 l 1,38,-1
 474 1262 l 2,39,40
 476 1273 476 1273 476 1282 c 0,41,42
 476 1316 476 1316 440 1330 c 0,43,44
 402 1345 402 1345 402 1375 c 0,45,46
 402 1381 402 1381 403 1387 c 0,47,48
 412 1428 412 1428 459 1428 c 0,49,50
 501 1427 501 1427 543 1427 c 128,-1,51
 585 1427 585 1427 629 1428 c 0,52,53
 716 1431 716 1431 799 1433 c 2,54,-1
 858 1433 l 2,55,56
 1012 1433 1012 1433 1166 1425 c 0,57,58
 1351 1414 1351 1414 1488 1349 c 0,59,60
 1618 1285 1618 1285 1682 1154 c 0,61,62
 1722 1074 1722 1074 1722 956 c 0,63,64
 1722 953 1722 953 1722 950 c 0,65,66
 1722 878 1722 878 1708 792 c 0,0,1
574 651 m 1,67,-1
 451 116 l 1,68,69
 549 97 549 97 659 97 c 0,70,71
 702 97 702 97 744 100 c 0,72,73
 894 111 894 111 1020 171 c 0,74,75
 1170 241 1170 241 1283 388 c 0,76,77
 1386 524 1386 524 1435 736 c 2,78,-1
 1443 769 l 2,79,80
 1460 855 1460 855 1460 925 c 0,81,82
 1460 984 1460 984 1448 1033 c 0,83,84
 1421 1139 1421 1139 1351 1201 c 0,85,86
 1249 1293 1249 1293 1077 1309 c 0,87,88
 1017 1314 1017 1314 954 1314 c 0,89,90
 833 1314 833 1314 723 1297 c 1,91,-1
 608 796 l 1,92,-1
 893 796 l 2,93,94
 923 796 923 796 934 781 c 0,95,96
 940 773 940 773 940 761 c 0,97,98
 940 756 940 756 939 750 c 2,99,-1
 927 697 l 2,100,101
 923 678 923 678 908 666 c 0,102,103
 890 651 890 651 859 651 c 2,104,-1
 574 651 l 1,67,-1
EndSplineSet
Validated: 1
EndChar

StartChar: multiply
Encoding: 215 215 153
Width: 1100
GlyphClass: 1
Flags: W
LayerCount: 2
Fore
SplineSet
654 529 m 1,0,-1
 429 346 l 2,1,2
 402 324 402 324 381 324 c 0,3,4
 364 324 364 324 354 338 c 2,5,-1
 325 374 l 2,6,7
 315 387 315 387 319 405 c 0,8,9
 324 426 324 426 350 448 c 2,10,-1
 576 631 l 1,11,-1
 435 815 l 2,12,13
 419 836 419 836 423 857 c 0,14,15
 427 874 427 874 444 888 c 2,16,-1
 490 925 l 2,17,18
 506 938 506 938 524 939 c 0,19,20
 545 939 545 939 561 917 c 2,21,-1
 702 733 l 1,22,-1
 929 917 l 2,23,24
 955 938 955 938 976 938 c 0,25,26
 993 938 993 938 1002 924 c 2,27,-1
 1031 888 l 2,28,29
 1041 875 1041 875 1037 857 c 0,30,31
 1032 836 1032 836 1007 815 c 2,32,-1
 781 632 l 1,33,-1
 922 448 l 2,34,35
 938 427 938 427 934 405 c 0,36,37
 930 388 930 388 913 375 c 2,38,-1
 867 337 l 2,39,40
 851 324 851 324 834 324 c 0,41,42
 813 324 813 324 796 345 c 2,43,-1
 654 529 l 1,0,-1
EndSplineSet
Validated: 1
EndChar

StartChar: Oslash
Encoding: 216 216 154
Width: 1610
GlyphClass: 1
Flags: W
LayerCount: 2
Fore
SplineSet
1939 1460 m 2,0,-1
 1983 1399 l 2,1,2
 1985 1395 1985 1395 1981 1387.5 c 128,-1,3
 1977 1380 1977 1380 1967 1373 c 2,4,-1
 1724 1186 l 1,5,6
 1787 1077 1787 1077 1787 937 c 0,7,8
 1787 854 1787 854 1765 760 c 0,9,10
 1759 732 1759 732 1751 704 c 0,11,12
 1649 352 1649 352 1380 157 c 128,-1,13
 1111 -38 1111 -38 794 -55 c 0,14,15
 770 -56 770 -56 747 -56 c 0,16,17
 486 -56 486 -56 318 108 c 1,18,-1
 121 -43 l 2,19,20
 112 -50 112 -50 104 -52.5 c 128,-1,21
 96 -55 96 -55 93 -51 c 2,22,-1
 51 11 l 2,23,24
 49 15 49 15 53 22 c 128,-1,25
 57 29 57 29 65 36 c 2,26,-1
 255 181 l 1,27,28
 160 312 160 312 160 489 c 0,29,30
 160 574 160 574 182 669 c 0,31,32
 186 688 186 688 192 706 c 0,33,34
 285 1055 285 1055 546.5 1258.5 c 128,-1,35
 808 1462 808 1462 1146 1466 c 1,36,-1
 1156 1466 l 2,37,38
 1486 1466 1486 1466 1666 1265 c 1,39,-1
 1911 1453 l 2,40,41
 1920 1460 1920 1460 1928.5 1462 c 128,-1,42
 1937 1464 1937 1464 1939 1460 c 2,0,-1
448 330 m 1,43,-1
 1482 1124 l 1,44,45
 1478 1134 1478 1134 1475 1144 c 0,46,47
 1398 1338 1398 1338 1117 1338 c 0,48,49
 821 1337 821 1337 662 1154 c 0,50,51
 500 966 500 966 439 702 c 0,52,53
 417 605 417 605 417 519 c 0,54,55
 417 417 417 417 448 330 c 1,43,-1
491 241 m 1,56,57
 596 68 596 68 823 66 c 2,58,-1
 828 66 l 2,59,60
 1057 66 1057 66 1250 262 c 0,61,62
 1443 459 1443 459 1499 696 c 0,63,64
 1499 698 1499 698 1500 700 c 2,65,-1
 1500 702 l 1,66,67
 1522 800 1522 800 1522 892 c 0,68,69
 1522 959 1522 959 1510 1023 c 1,70,-1
 491 241 l 1,56,57
EndSplineSet
Validated: 1
EndChar

StartChar: Thorn
Encoding: 222 222 160
Width: 1151
GlyphClass: 1
Flags: W
LayerCount: 2
Fore
SplineSet
598 985 m 1,0,-1
 473 441 l 1,1,-1
 664 441 l 2,2,3
 730 441 730 441 802 460 c 128,-1,4
 874 479 874 479 931 526 c 0,5,6
 1022 598 1022 598 1049 716 c 0,7,8
 1057 751 1057 751 1057 782 c 0,9,10
 1057 854 1057 854 1016 906 c 0,11,12
 951 985 951 985 809 985 c 2,13,-1
 598 985 l 1,0,-1
447 331 m 1,14,-1
 405 146 l 2,15,16
 397 111 397 111 409 95 c 0,17,18
 415 87 415 87 427 82 c 0,19,20
 477 63 477 63 477 31 c 0,21,22
 477 26 477 26 476 21 c 0,23,24
 472 2 472 2 458 -9 c 128,-1,25
 444 -20 444 -20 425 -20 c 2,26,-1
 86 -20 l 2,27,28
 68 -20 68 -20 59.5 -9 c 128,-1,29
 51 2 51 2 56 21 c 0,30,31
 65 60 65 60 133 82 c 0,32,33
 146 86 146 86 157 95 c 0,34,35
 177 111 177 111 185 146 c 2,36,-1
 441 1257 l 2,37,38
 449 1291 449 1291 437 1308 c 0,39,40
 431 1316 431 1316 419 1320 c 0,41,42
 369 1340 369 1340 369 1373 c 0,43,44
 369 1378 369 1378 370 1383 c 0,45,46
 375 1403 375 1403 388.5 1414 c 128,-1,47
 402 1425 402 1425 421 1425 c 2,48,-1
 759 1425 l 2,49,50
 778 1425 778 1425 786.5 1414 c 128,-1,51
 795 1403 795 1403 790 1383 c 0,52,53
 781 1343 781 1343 713 1320 c 0,54,55
 700 1316 700 1316 689 1308 c 0,56,57
 669 1292 669 1292 661 1257 c 2,58,-1
 627 1108 l 1,59,-1
 917 1108 l 2,60,61
 1023 1108 1023 1108 1129 1071 c 0,62,63
 1239 1032 1239 1032 1278 920 c 0,64,65
 1294 873 1294 873 1294 818 c 0,66,67
 1294 766 1294 766 1280 706 c 0,68,69
 1251 587 1251 587 1162 492 c 0,70,71
 1085 410 1085 410 972 370.5 c 128,-1,72
 859 331 859 331 773 331 c 2,73,-1
 447 331 l 1,14,-1
EndSplineSet
Validated: 1
EndChar

StartChar: germandbls
Encoding: 223 223 161
Width: 1269
GlyphClass: 1
Flags: W
LayerCount: 2
Fore
SplineSet
442 146 m 2,0,1
 434 111 434 111 446 95 c 0,2,3
 452 87 452 87 464 82 c 0,4,5
 514 63 514 63 514 31 c 0,6,7
 514 26 514 26 513 21 c 0,8,9
 509 2 509 2 495 -9 c 128,-1,10
 481 -20 481 -20 462 -20 c 2,11,-1
 123 -20 l 2,12,13
 104 -20 104 -20 95.5 -9 c 128,-1,14
 87 2 87 2 92 21 c 0,15,16
 101 60 101 60 169 82 c 0,17,18
 182 86 182 86 193 95 c 0,19,20
 213 111 213 111 221 146 c 2,21,-1
 424 1027 l 2,22,23
 445 1120 445 1120 489 1209 c 128,-1,24
 533 1298 533 1298 608 1364 c 0,25,26
 743 1486 743 1486 898 1486 c 0,27,28
 932 1486 932 1486 967 1480 c 0,29,30
 1144 1448 1144 1448 1192 1274 c 0,31,32
 1202 1236 1202 1236 1202 1200 c 0,33,34
 1202 1170 1202 1170 1195 1140 c 0,35,36
 1171 1038 1171 1038 1067 948 c 0,37,38
 998 888 998 888 922 843 c 0,39,40
 856 803 856 803 829 747 c 0,41,42
 819 727 819 727 817 711 c 0,43,44
 809 676 809 676 824 656 c 0,45,46
 832 646 832 646 846 639 c 0,47,48
 907 604 907 604 993 584 c 0,49,50
 1117 555 1117 555 1213 504 c 0,51,52
 1295 462 1295 462 1295 349 c 0,53,54
 1295 318 1295 318 1289 282 c 1,55,-1
 1289 281 l 1,56,-1
 1286 269 l 2,57,58
 1268 189 1268 189 1189 111 c 0,59,60
 1103 26 1103 26 971 -17 c 1,61,-1
 970 -17 l 1,62,63
 888 -42 888 -42 797 -45 c 2,64,-1
 796 -45 l 1,65,-1
 769 -45 l 2,66,67
 644 -45 644 -45 536 -12 c 0,68,69
 527 -9 527 -9 525 0 c 2,70,-1
 496 220 l 2,71,72
 496 223 496 223 496 226 c 0,73,74
 496 228 496 228 502 245 c 128,-1,75
 508 262 508 262 520 272 c 128,-1,76
 532 282 532 282 549 282 c 2,77,-1
 551 282 l 2,78,79
 572 282 572 282 582 247 c 1,80,-1
 582 246 l 1,81,82
 603 152 603 152 656.5 114 c 128,-1,83
 710 76 710 76 805 73 c 2,84,-1
 817 73 l 2,85,86
 885 73 885 73 974 105 c 0,87,88
 1008 117 1008 117 1031 136 c 0,89,90
 1068 166 1068 166 1082 216 c 1,91,-1
 1083 222 l 2,92,93
 1088 242 1088 242 1088 259 c 0,94,95
 1088 289 1088 289 1073 309 c 0,96,97
 1057 330 1057 330 1022 340 c 2,98,-1
 893 380 l 1,99,-1
 850 393 l 2,100,101
 754 421 754 421 678 481 c 0,102,103
 619 528 619 528 619 609 c 0,104,105
 619 638 619 638 627 672 c 2,106,-1
 628 675 l 1,107,108
 653 784 653 784 740 840 c 0,109,110
 817 890 817 890 892 949 c 0,111,112
 965 1004 965 1004 998 1095 c 0,113,114
 1004 1114 1004 1114 1009 1133 c 0,115,116
 1015 1159 1015 1159 1015 1183 c 0,117,118
 1015 1219 1015 1219 1001 1249 c 0,119,120
 972 1307 972 1307 885 1316 c 0,121,122
 873 1317 873 1317 862 1317 c 0,123,124
 790 1317 790 1317 740 1266 c 0,125,126
 700 1225 700 1225 680 1159 c 0,127,128
 661 1093 661 1093 645 1027 c 2,129,-1
 442 146 l 2,0,1
EndSplineSet
Validated: 1
EndChar

StartChar: ae
Encoding: 230 230 168
Width: 1762
GlyphClass: 1
Flags: W
LayerCount: 2
Fore
SplineSet
362 373 m 0,0,1
 362 365 362 365 362 358 c 0,2,3
 362 272 362 272 394 208 c 0,4,5
 451 95 451 95 578 95 c 0,6,7
 628 95 628 95 695 118 c 2,8,-1
 822 160 l 1,9,-1
 960 760 l 1,10,11
 933 787 933 787 876 819 c 0,12,13
 832 843 832 843 803 849 c 0,14,15
 792 852 792 852 779 852 c 0,16,17
 753 852 753 852 718 842 c 0,18,19
 632 817 632 817 609 806 c 0,20,21
 550 786 550 786 513 753 c 0,22,23
 464 711 464 711 411 599 c 0,24,25
 390 553 390 553 377 494 c 0,26,27
 363 434 363 434 362 373 c 0,0,1
1481 852 m 2,28,-1
 1470 852 l 1,29,30
 1339 848 1339 848 1263 759 c 0,31,32
 1190 674 1190 674 1159 571 c 1,33,-1
 1645 571 l 1,34,35
 1653 615 1653 615 1653 655 c 0,36,37
 1653 712 1653 712 1637 763 c 0,38,39
 1610 852 1610 852 1481 852 c 2,28,-1
1834 551 m 0,40,41
 1826 518 1826 518 1818 492 c 0,42,43
 1814 481 1814 481 1804 473 c 0,44,45
 1786 458 1786 458 1749 458 c 2,46,-1
 1133 458 l 1,47,48
 1124 409 1124 409 1124 365 c 0,49,50
 1124 254 1124 254 1181 180 c 0,51,52
 1230 116 1230 116 1314 99 c 1,53,-1
 1314 98 l 1,54,55
 1345 91 1345 91 1379 91 c 0,56,57
 1469 91 1469 91 1553 132 c 0,58,59
 1626 167 1626 167 1651 174 c 0,60,61
 1660 177 1660 177 1667 177 c 0,62,63
 1687 177 1687 177 1693.5 168.5 c 128,-1,64
 1700 160 1700 160 1696 142 c 0,65,66
 1693 128 1693 128 1672 100.5 c 128,-1,67
 1651 73 1651 73 1641 64 c 0,68,69
 1625 50 1625 50 1621 48 c 0,70,71
 1483 -51 1483 -51 1289 -51 c 0,72,73
 1035 -49 1035 -49 935 103 c 1,74,-1
 521 -33 l 2,75,76
 484 -45 484 -45 459 -45 c 2,77,-1
 418 -45 l 2,78,79
 267 -45 267 -45 185 79 c 0,80,81
 125 171 125 171 125 294 c 0,82,83
 125 360 125 360 142 434 c 0,84,85
 156 496 156 496 173 541 c 0,86,87
 208 633 208 633 274 710 c 0,88,89
 323 768 323 768 392 812 c 0,90,91
 428 835 428 835 461 849 c 0,92,93
 709 934 709 934 819 968 c 0,94,95
 842 975 842 975 872 975 c 128,-1,96
 902 975 902 975 944 964 c 0,97,98
 984 955 984 955 1172 879 c 1,99,100
 1316 978 1316 978 1504 980 c 2,101,-1
 1508 980 l 2,102,103
 1714 980 1714 980 1796 861 c 0,104,105
 1849 784 1849 784 1849 676 c 0,106,107
 1849 618 1849 618 1834 551 c 0,40,41
EndSplineSet
Validated: 1
EndChar

StartChar: eth
Encoding: 240 240 178
Width: 1105
GlyphClass: 1
Flags: W
LayerCount: 2
Fore
SplineSet
550 1057 m 0,0,1
 543 1057 543 1057 538 1063 c 0,2,3
 536 1065 536 1065 536 1066 c 0,4,5
 519 1108 519 1108 513 1124 c 0,6,7
 511 1130 511 1130 512.5 1136 c 128,-1,8
 514 1142 514 1142 522 1148 c 0,9,10
 526 1151 526 1151 530 1153 c 0,11,12
 665 1201 665 1201 799 1267 c 1,13,14
 734 1334 734 1334 634 1396 c 0,15,16
 608 1413 608 1413 613 1435 c 0,17,18
 615 1444 615 1444 624 1454 c 128,-1,19
 633 1464 633 1464 650 1486 c 0,20,21
 671 1514 671 1514 701 1514 c 0,22,23
 714 1514 714 1514 727 1507 c 0,24,25
 728 1507 728 1507 729 1506 c 0,26,27
 841 1430 841 1430 929 1343 c 1,28,29
 1122 1459 1122 1459 1202 1514 c 0,30,31
 1210 1519 1210 1519 1217 1520 c 0,32,33
 1224 1520 1224 1520 1229 1513 c 0,34,35
 1238 1500 1238 1500 1246.5 1487 c 128,-1,36
 1255 1474 1255 1474 1264 1462 c 0,37,38
 1269 1456 1269 1456 1266.5 1448 c 128,-1,39
 1264 1440 1264 1440 1257 1434 c 0,40,41
 1168 1363 1168 1363 1003 1263 c 1,42,43
 1076 1176 1076 1176 1127 1078 c 0,44,45
 1208 925 1208 925 1208 725 c 0,46,47
 1208 602 1208 602 1177 461 c 1,48,-1
 1176 455 l 1,49,50
 1127 243 1127 243 946 96 c 0,51,52
 762 -54 762 -54 547 -60 c 1,53,-1
 546 -60 l 1,54,-1
 533 -60 l 2,55,56
 330 -60 330 -60 219 91 c 0,57,58
 139 199 139 199 139 336 c 0,59,60
 139 395 139 395 154 458 c 1,61,-1
 154 461 l 1,62,63
 209 694 209 694 417 852 c 0,64,65
 444 873 444 873 486.5 886.5 c 128,-1,66
 529 900 529 900 609 929 c 2,67,-1
 715 964 l 2,68,69
 772 983 772 983 807 983 c 2,70,-1
 810 983 l 1,71,-1
 811 983 l 1,72,73
 897 979 897 979 969 947 c 1,74,75
 925 1080 925 1080 866 1179 c 0,76,77
 864 1181 864 1181 863 1183 c 0,78,79
 718 1111 718 1111 558 1058 c 0,80,81
 554 1057 554 1057 550 1057 c 0,0,1
752 873 m 2,82,83
 645 873 645 873 542 766 c 0,84,85
 431 649 431 649 391 478 c 2,86,-1
 390 474 l 2,87,88
 374 403 374 403 374 340 c 0,89,90
 374 251 374 251 406 178 c 0,91,92
 460 56 460 56 573 50 c 1,93,-1
 586 50 l 2,94,95
 692 50 692 50 794 157 c 0,96,97
 905 273 905 273 946 446 c 0,98,99
 963 518 963 518 963 581 c 0,100,101
 963 670 963 670 930 744 c 0,102,103
 876 867 876 867 764 873 c 1,104,-1
 752 873 l 2,82,83
EndSplineSet
Validated: 1
EndChar

StartChar: oslash
Encoding: 248 248 186
Width: 1107
GlyphClass: 1
Flags: W
LayerCount: 2
Fore
SplineSet
745 869 m 2,0,1
 639 869 639 869 531 759 c 0,2,3
 423 648 423 648 385 480 c 0,4,5
 369 411 369 411 369 349 c 0,6,7
 369 315 369 315 374 283 c 1,8,-1
 927 732 l 1,9,10
 925 737 925 737 922 742 c 0,11,12
 868 862 868 862 756 869 c 1,13,-1
 745 869 l 2,0,1
1256 988 m 2,14,-1
 1295 938 l 2,15,16
 1297 935 1297 935 1294 929.5 c 128,-1,17
 1291 924 1291 924 1286 920 c 2,18,-1
 1129 792 l 1,19,20
 1185 698 1185 698 1185 583 c 0,21,22
 1185 527 1185 527 1172 465 c 2,23,-1
 1171 459 l 1,24,25
 1123 251 1123 251 941 106 c 128,-1,26
 759 -39 759 -39 544 -45 c 1,27,-1
 543 -45 l 1,28,-1
 527 -45 l 2,29,30
 351 -45 351 -45 241 71 c 1,31,-1
 91 -51 l 2,32,33
 85 -56 85 -56 79 -57.5 c 128,-1,34
 73 -59 73 -59 71 -56 c 2,35,-1
 33 -6 l 2,36,37
 31 -3 31 -3 33.5 2.5 c 128,-1,38
 36 8 36 8 42 13 c 2,39,-1
 193 136 l 1,40,41
 134 229 134 229 134 343 c 0,42,43
 134 400 134 400 149 462 c 1,44,-1
 149 465 l 1,45,46
 203 693 203 693 409 848 c 0,47,48
 436 869 436 869 479 882 c 0,49,50
 491 886 491 886 705 956 c 0,51,52
 768 976 768 976 799 976 c 2,53,-1
 802 976 l 1,54,-1
 803 976 l 1,55,56
 977 969 977 969 1081 857 c 1,57,-1
 1237 984 l 2,58,59
 1243 989 1243 989 1248.5 990 c 128,-1,60
 1254 991 1254 991 1256 988 c 2,14,-1
398 198 m 1,61,62
 400 193 400 193 402 189 c 0,63,64
 456 69 456 69 569 63 c 1,65,-1
 583 63 l 2,66,67
 689 63 689 63 795 172.5 c 128,-1,68
 901 282 901 282 940 450 c 0,69,70
 956 518 956 518 956 578 c 0,71,72
 956 614 956 614 950 647 c 1,73,-1
 398 198 l 1,61,62
EndSplineSet
Validated: 1
EndChar

StartChar: thorn
Encoding: 254 254 192
Width: 1180
GlyphClass: 1
Flags: W
LayerCount: 2
Fore
SplineSet
1047 557 m 0,0,1
 1047 565 1047 565 1047 572 c 0,2,3
 1047 658 1047 658 1015 722 c 0,4,5
 958 835 958 835 831 835 c 0,6,7
 781 835 781 835 713 812 c 2,8,-1
 587 770 l 1,9,-1
 448 170 l 1,10,11
 475 143 475 143 533 111 c 0,12,13
 577 87 577 87 606 81 c 0,14,15
 617 78 617 78 630 78 c 0,16,17
 656 78 656 78 690 88 c 0,18,19
 776 113 776 113 800 124 c 0,20,21
 859 144 859 144 896 177 c 0,22,23
 945 219 945 219 997 331 c 0,24,25
 1018 377 1018 377 1032 436 c 0,26,27
 1046 496 1046 496 1047 557 c 0,0,1
289 -519 m 2,28,29
 286 -534 286 -534 272 -545 c 0,30,31
 256 -558 256 -558 229 -562 c 0,32,33
 226 -562 226 -562 224 -562 c 0,34,35
 210 -562 210 -562 202 -549 c 0,36,37
 185 -522 185 -522 137 -506 c 0,38,39
 77 -487 77 -487 24 -487 c 0,40,41
 5 -487 5 -487 -3.5 -476 c 128,-1,42
 -12 -465 -12 -465 -8 -445 c 0,43,44
 1 -406 1 -406 70 -383 c 0,45,46
 84 -378 84 -378 93 -371 c 0,47,48
 113 -355 113 -355 121 -321 c 2,49,-1
 485 1258 l 2,50,51
 493 1291 493 1291 481 1308 c 0,52,53
 475 1316 475 1316 463 1320 c 0,54,55
 413 1340 413 1340 413 1373 c 0,56,57
 413 1378 413 1378 414 1383 c 0,58,59
 418 1402 418 1402 432 1413 c 128,-1,60
 446 1424 446 1424 465 1424 c 0,61,62
 519 1424 519 1424 587 1443 c 0,63,64
 641 1458 641 1458 672 1486 c 0,65,66
 686 1499 686 1499 700 1499 c 0,67,68
 703 1499 703 1499 705 1499 c 0,69,70
 730 1495 730 1495 739.5 1483 c 128,-1,71
 749 1471 749 1471 745 1456 c 2,72,-1
 610 872 l 1,73,-1
 887 963 l 2,74,75
 924 975 924 975 950 975 c 2,76,-1
 991 975 l 2,77,78
 1142 975 1142 975 1223 851 c 0,79,80
 1283 758 1283 758 1283 634 c 0,81,82
 1283 569 1283 569 1267 496 c 0,83,84
 1253 434 1253 434 1236 389 c 0,85,86
 1201 297 1201 297 1135 220 c 0,87,88
 1086 162 1086 162 1016 118 c 0,89,90
 980 95 980 95 948 81 c 0,91,92
 700 -4 700 -4 589 -38 c 0,93,94
 566 -45 566 -45 536.5 -45 c 128,-1,95
 507 -45 507 -45 465 -34 c 0,96,97
 448 -30 448 -30 406 -14 c 1,98,-1
 289 -519 l 2,28,29
EndSplineSet
Validated: 1
EndChar

StartChar: Hbar
Encoding: 294 294 232
Width: 1638
GlyphClass: 1
Flags: W
LayerCount: 2
Fore
SplineSet
308 998 m 2,0,-1
 330 1093 l 2,1,2
 331 1099 331 1099 338.5 1104 c 128,-1,3
 346 1109 346 1109 354 1109 c 2,4,-1
 491 1109 l 1,5,-1
 525 1256 l 2,6,7
 533 1291 533 1291 521 1307 c 0,8,9
 515 1315 515 1315 503 1320 c 0,10,11
 453 1339 453 1339 453 1372 c 0,12,13
 453 1377 453 1377 454 1382 c 0,14,15
 459 1402 459 1402 472.5 1413 c 128,-1,16
 486 1424 486 1424 505 1424 c 2,17,-1
 843 1424 l 2,18,19
 862 1424 862 1424 870.5 1413 c 128,-1,20
 879 1402 879 1402 874 1382 c 0,21,22
 865 1342 865 1342 797 1320 c 0,23,24
 784 1316 784 1316 773 1307 c 0,25,26
 753 1291 753 1291 745 1256 c 2,27,-1
 711 1109 l 1,28,-1
 1518 1109 l 1,29,-1
 1552 1256 l 2,30,31
 1560 1291 1560 1291 1548 1307 c 0,32,33
 1542 1315 1542 1315 1530 1320 c 0,34,35
 1480 1339 1480 1339 1480 1372 c 0,36,37
 1480 1377 1480 1377 1481 1382 c 0,38,39
 1486 1402 1486 1402 1499.5 1413 c 128,-1,40
 1513 1424 1513 1424 1532 1424 c 2,41,-1
 1870 1424 l 2,42,43
 1889 1424 1889 1424 1897.5 1413 c 128,-1,44
 1906 1402 1906 1402 1901 1382 c 0,45,46
 1892 1342 1892 1342 1824 1320 c 0,47,48
 1811 1316 1811 1316 1800 1307 c 0,49,50
 1780 1291 1780 1291 1772 1256 c 2,51,-1
 1738 1109 l 1,52,-1
 1880 1109 l 2,53,54
 1888 1109 1888 1109 1893 1104 c 128,-1,55
 1898 1099 1898 1099 1896 1093 c 2,56,-1
 1874 998 l 2,57,58
 1873 992 1873 992 1866 987 c 128,-1,59
 1859 982 1859 982 1851 982 c 2,60,-1
 1709 982 l 1,61,-1
 1516 147 l 2,62,63
 1508 111 1508 111 1521 94 c 0,64,65
 1527 86 1527 86 1538 82 c 0,66,67
 1588 63 1588 63 1588 31 c 0,68,69
 1588 26 1588 26 1587 21 c 0,70,71
 1583 2 1583 2 1569 -9 c 128,-1,72
 1555 -20 1555 -20 1536 -20 c 2,73,-1
 1197 -20 l 2,74,75
 1179 -20 1179 -20 1170.5 -9 c 128,-1,76
 1162 2 1162 2 1167 21 c 0,77,78
 1176 60 1176 60 1244 82 c 0,79,80
 1257 86 1257 86 1268 95 c 0,81,82
 1288 111 1288 111 1296 146 c 2,83,-1
 1419 680 l 1,84,-1
 612 680 l 1,85,-1
 489 147 l 2,86,87
 481 111 481 111 494 94 c 0,88,89
 500 86 500 86 511 82 c 0,90,91
 561 63 561 63 561 31 c 0,92,93
 561 26 561 26 560 21 c 0,94,95
 556 2 556 2 542 -9 c 128,-1,96
 528 -20 528 -20 509 -20 c 2,97,-1
 170 -20 l 2,98,99
 152 -20 152 -20 143.5 -9 c 128,-1,100
 135 2 135 2 140 21 c 0,101,102
 149 60 149 60 217 82 c 0,103,104
 230 86 230 86 241 95 c 0,105,106
 261 111 261 111 269 146 c 2,107,-1
 462 982 l 1,108,-1
 325 982 l 2,109,110
 317 982 317 982 312 987 c 128,-1,111
 307 992 307 992 308 998 c 2,0,-1
1489 982 m 1,112,-1
 682 982 l 1,113,-1
 641 807 l 1,114,-1
 1448 807 l 1,115,-1
 1489 982 l 1,112,-1
EndSplineSet
Validated: 1
EndChar

StartChar: dotlessi
Encoding: 305 305 243
Width: 597
GlyphClass: 1
Flags: W
LayerCount: 2
Fore
SplineSet
436 146 m 2,0,1
 428 111 428 111 440 95 c 0,2,3
 446 87 446 87 458 82 c 0,4,5
 508 63 508 63 508 31 c 0,6,7
 508 26 508 26 507 21 c 0,8,9
 503 2 503 2 489 -9 c 128,-1,10
 475 -20 475 -20 457 -20 c 2,11,-1
 124 -20 l 2,12,13
 105 -20 105 -20 96.5 -9 c 128,-1,14
 88 2 88 2 93 21 c 0,15,16
 102 60 102 60 170 82 c 0,17,18
 183 86 183 86 194 95 c 0,19,20
 214 111 214 111 222 146 c 2,21,-1
 369 783 l 2,22,23
 377 816 377 816 364 833 c 0,24,25
 358 841 358 841 346 845 c 0,26,27
 297 865 297 865 297 897 c 0,28,29
 297 903 297 903 298 908 c 0,30,31
 302 927 302 927 315.5 938 c 128,-1,32
 329 949 329 949 348 949 c 0,33,34
 402 949 402 949 470 968 c 0,35,36
 524 983 524 983 555 1011 c 0,37,38
 569 1024 569 1024 583 1024 c 0,39,40
 586 1024 586 1024 588 1024 c 0,41,42
 613 1020 613 1020 622.5 1008 c 128,-1,43
 632 996 632 996 628 981 c 2,44,-1
 436 146 l 2,0,1
EndSplineSet
Validated: 1
EndChar

StartChar: kgreenlandic
Encoding: 312 312 250
Width: 1163
GlyphClass: 1
Flags: W
LayerCount: 2
Fore
SplineSet
436 146 m 2,0,1
 428 111 428 111 440 95 c 0,2,3
 446 87 446 87 458 82 c 0,4,5
 508 63 508 63 508 31 c 0,6,7
 508 26 508 26 507 21 c 0,8,9
 503 2 503 2 489 -9 c 128,-1,10
 475 -20 475 -20 457 -20 c 2,11,-1
 124 -20 l 2,12,13
 105 -20 105 -20 96.5 -9 c 128,-1,14
 88 2 88 2 93 21 c 0,15,16
 102 60 102 60 170 82 c 0,17,18
 183 86 183 86 194 95 c 0,19,20
 214 111 214 111 222 146 c 2,21,-1
 369 783 l 2,22,23
 377 816 377 816 364 833 c 0,24,25
 358 841 358 841 346 845 c 0,26,27
 297 865 297 865 297 897 c 0,28,29
 297 903 297 903 298 908 c 0,30,31
 302 927 302 927 315.5 938 c 128,-1,32
 329 949 329 949 348 949 c 0,33,34
 402 949 402 949 470 968 c 0,35,36
 524 983 524 983 555 1011 c 0,37,38
 569 1024 569 1024 583 1024 c 0,39,40
 586 1024 586 1024 588 1024 c 0,41,42
 613 1020 613 1020 622.5 1008 c 128,-1,43
 632 996 632 996 628 981 c 2,44,-1
 544 616 l 1,45,46
 679 707 679 707 1046 947 c 0,47,48
 1080 970 1080 970 1111 970 c 0,49,50
 1131 970 1131 970 1149 960 c 0,51,52
 1174 944 1174 944 1199.5 928 c 128,-1,53
 1225 912 1225 912 1227 910.5 c 128,-1,54
 1229 909 1229 909 1232 905 c 0,55,56
 1240 894 1240 894 1237 880 c 0,57,58
 1235 870 1235 870 1229 862 c 2,59,-1
 1157 754 l 2,60,61
 1154 751 1154 751 1152 748 c 0,62,63
 1145 742 1145 742 1138.5 742 c 128,-1,64
 1132 742 1132 742 1127 745 c 2,65,-1
 1084 773 l 2,66,67
 1062 787 1062 787 1039 787 c 128,-1,68
 1016 787 1016 787 987 768 c 0,69,70
 885 700 885 700 701 578 c 1,71,-1
 959 189 l 2,72,73
 1016 102 1016 102 1051 84 c 0,74,75
 1083 68 1083 68 1125 68 c 2,76,-1
 1132 68 l 1,77,-1
 1133 68 l 2,78,79
 1162 67 1162 67 1172 53 c 0,80,81
 1181 41 1181 41 1177 23 c 0,82,83
 1174 11 1174 11 1163 1 c 0,84,85
 1157 -4 1157 -4 1148 -7 c 2,86,-1
 1086 -34 l 2,87,88
 1018 -63 1018 -63 975 -63 c 0,89,90
 865 -63 865 -63 800 34 c 2,91,-1
 509 462 l 1,92,-1
 436 146 l 2,0,1
EndSplineSet
Validated: 1
EndChar

StartChar: OE
Encoding: 338 338 276
Width: 2101
GlyphClass: 1
Flags: W
LayerCount: 2
Fore
SplineSet
471 735 m 0,0,1
 465 711 465 711 463 698.5 c 128,-1,2
 461 686 461 686 461 686 c 2,3,4
 451 625 451 625 451 567 c 0,5,6
 451 412 451 412 525 278 c 0,7,8
 625 96 625 96 868 85 c 0,9,10
 891 84 891 84 912 84 c 0,11,12
 1036 84 1036 84 1123 121 c 0,13,14
 1156 135 1156 135 1188 159 c 1,15,-1
 1437 1239 l 1,16,17
 1411 1266 1411 1266 1379 1285 c 0,18,19
 1288 1336 1288 1336 1169 1336 c 2,20,-1
 1148 1336 l 1,21,22
 885 1324 885 1324 694 1128 c 0,23,24
 521 950 521 950 471 735 c 0,0,1
1524 657 m 1,25,-1
 1398 114 l 1,26,-1
 1805 114 l 2,27,28
 1889 114 1889 114 1963 179 c 0,29,30
 2043 250 2043 250 2086 290 c 0,31,32
 2105 308 2105 308 2116.5 313.5 c 128,-1,33
 2128 319 2128 319 2136 319 c 0,34,35
 2155 319 2155 319 2163.5 308 c 128,-1,36
 2172 297 2172 297 2168 280 c 128,-1,37
 2164 263 2164 263 2158 252 c 2,38,-1
 2026 -5 l 2,39,40
 2024 -10 2024 -10 2017.5 -15 c 128,-1,41
 2011 -20 2011 -20 2003 -20 c 2,42,-1
 1140 -20 l 1,43,44
 1084 -35 1084 -35 1028 -43 c 0,45,46
 925 -57 925 -57 834 -57 c 0,47,48
 520 -57 520 -57 323 144 c 0,49,50
 184 287 184 287 184 506 c 0,51,52
 184 597 184 597 208 701 c 0,53,54
 288 1047 288 1047 572.5 1256 c 128,-1,55
 857 1465 857 1465 1185 1465 c 2,56,-1
 1194 1465 l 2,57,58
 1307 1465 1307 1465 1428 1440 c 0,59,60
 1457 1434 1457 1434 1483 1425 c 1,61,-1
 2349 1425 l 2,62,63
 2357 1425 2357 1425 2361.5 1419 c 128,-1,64
 2366 1413 2366 1413 2364 1405 c 2,65,-1
 2305 1147 l 2,66,67
 2301 1128 2301 1128 2287 1117 c 128,-1,68
 2273 1106 2273 1106 2254 1106 c 0,69,70
 2241 1106 2241 1106 2232 1118.5 c 128,-1,71
 2223 1131 2223 1131 2213 1155 c 0,72,73
 2177 1228 2177 1228 2151 1261 c 0,74,75
 2128 1291 2128 1291 2077 1291 c 2,76,-1
 1670 1291 l 1,77,-1
 1554 788 l 1,78,-1
 1763 788 l 2,79,80
 1798 788 1798 788 1819 805 c 0,81,82
 1829 813 1829 813 1837 827 c 0,83,84
 1877 891 1877 891 1917 891 c 0,85,86
 1935 891 1935 891 1943.5 880 c 128,-1,87
 1952 869 1952 869 1947 850 c 2,88,-1
 1889 596 l 2,89,90
 1885 577 1885 577 1871 566 c 128,-1,91
 1857 555 1857 555 1838 555 c 0,92,93
 1800 555 1800 555 1787 618 c 0,94,95
 1784 630 1784 630 1777 638 c 0,96,97
 1762 657 1762 657 1727 657 c 2,98,-1
 1524 657 l 1,25,-1
EndSplineSet
Validated: 1
EndChar

StartChar: oe
Encoding: 339 339 277
Width: 1789
GlyphClass: 1
Flags: W
LayerCount: 2
Fore
SplineSet
527 -45 m 2,0,1
 327 -45 327 -45 214 105 c 0,2,3
 135 210 135 210 135 344 c 0,4,5
 135 401 135 401 149 462 c 1,6,-1
 149 465 l 1,7,8
 203 693 203 693 409 848 c 0,9,10
 436 869 436 869 479 882 c 0,11,12
 491 886 491 886 705 956 c 0,13,14
 768 976 768 976 799 976 c 2,15,-1
 802 976 l 1,16,-1
 803 976 l 1,17,18
 1005 968 1005 968 1111 820 c 0,19,20
 1119 808 1119 808 1127 795 c 1,21,22
 1161 831 1161 831 1202 862 c 0,23,24
 1354 978 1354 978 1557 980 c 2,25,-1
 1561 980 l 2,26,27
 1767 980 1767 980 1849 861 c 0,28,29
 1902 784 1902 784 1902 676 c 0,30,31
 1902 618 1902 618 1887 551 c 0,32,33
 1879 518 1879 518 1871 492 c 0,34,35
 1867 481 1867 481 1857 473 c 0,36,37
 1839 458 1839 458 1802 458 c 2,38,-1
 1186 458 l 1,39,40
 1177 409 1177 409 1177 365 c 0,41,42
 1177 254 1177 254 1234 180 c 0,43,44
 1283 116 1283 116 1367 99 c 1,45,-1
 1367 98 l 1,46,47
 1398 91 1398 91 1432 91 c 0,48,49
 1522 91 1522 91 1606 132 c 0,50,51
 1679 167 1679 167 1704 174 c 0,52,53
 1713 177 1713 177 1720 177 c 0,54,55
 1740 177 1740 177 1746.5 168.5 c 128,-1,56
 1753 160 1753 160 1749 142 c 0,57,58
 1746 128 1746 128 1725 100.5 c 128,-1,59
 1704 73 1704 73 1694 64 c 0,60,61
 1678 50 1678 50 1674 48 c 0,62,63
 1536 -51 1536 -51 1342 -51 c 0,64,65
 1070 -49 1070 -49 974 125 c 0,66,67
 973 128 973 128 970 131 c 1,68,69
 955 118 955 118 940 106 c 0,70,71
 759 -39 759 -39 544 -45 c 1,72,-1
 543 -45 l 1,73,-1
 527 -45 l 2,0,1
745 869 m 2,74,75
 638 869 638 869 531 759 c 0,76,77
 424 648 424 648 385 480 c 0,78,79
 369 411 369 411 369 350 c 0,80,81
 369 262 369 262 402 189 c 0,82,83
 456 69 456 69 569 63 c 1,84,-1
 583 63 l 2,85,86
 689 63 689 63 795 172.5 c 128,-1,87
 901 282 901 282 940 450 c 0,88,89
 956 518 956 518 956 580 c 0,90,91
 956 669 956 669 922 742 c 0,92,93
 868 862 868 862 756 869 c 1,94,-1
 745 869 l 2,74,75
1534 852 m 2,95,-1
 1523 852 l 1,96,97
 1392 848 1392 848 1316 759 c 0,98,99
 1243 674 1243 674 1212 571 c 1,100,-1
 1698 571 l 1,101,102
 1706 615 1706 615 1706 655 c 0,103,104
 1706 712 1706 712 1690 763 c 0,105,106
 1663 852 1663 852 1534 852 c 2,95,-1
EndSplineSet
Validated: 1
EndChar

